<svg width="65" height="94" viewBox="0 0 65 94" fill="none" xmlns="http://www.w3.org/2000/svg">
<path d="M47.9615 33.1485C48.4739 31.6797 50.5794 30.3164 51.4601 30.8358C52.3407 31.3551 52.8371 33.9194 52.4689 35.5342C51.9502 37.3439 51.1561 39.0605 50.1151 40.6221C49.6027 41.1901 47.7133 42.3586 46.5125 42.0421L47.9615 33.1485Z" fill="#FAD4AF"/>
<path d="M48.4739 32.2476C48.254 32.5162 48.0808 32.8208 47.9615 33.1483L46.5125 42.0744C47.4371 42.1673 48.3644 41.9258 49.1304 41.3928L48.4739 32.2476Z" fill="#F09E78"/>
<path d="M17.0427 33.1485C16.5304 31.6797 14.4248 30.3164 13.5362 30.8358C12.6475 31.3551 12.1672 33.9194 12.5354 35.5342C13.0501 37.3454 13.8445 39.0627 14.8891 40.6221C15.4015 41.1901 17.2909 42.3586 18.4918 42.0421L17.0427 33.1485Z" fill="#FAD4AF"/>
<path d="M16.5304 32.2476C16.7479 32.5179 16.9209 32.8221 17.0428 33.1483L18.4919 42.0744C17.565 42.1636 16.6364 41.9226 15.866 41.3928L16.5304 32.2476Z" fill="#F09E78"/>
<path d="M21.3099 37.4165C21.3099 37.4165 22.1985 47.8519 22.3907 52.8343C22.5828 57.8167 22.9831 61.1843 17.1468 65.55C11.3105 69.9156 8.07609 71.9605 6.26676 73.405C4.87176 74.3569 3.74148 75.6562 2.98433 77.1783C2.24778 78.6713 0.342377 82.8179 0.582554 83.1425C1.95157 84.9764 15.7538 93.3751 32.5021 93.3751C49.2505 93.3751 63.0447 84.9764 64.4217 83.1425C64.6619 82.8179 62.7565 78.6713 62.0199 77.1783C61.2628 75.6562 60.1325 74.3569 58.7375 73.405C56.9202 71.9605 53.6858 69.9238 47.8575 65.55C42.0292 61.1762 42.4134 57.8573 42.6056 52.8343C42.7977 47.8114 43.6864 37.4165 43.6864 37.4165H21.3099Z" fill="url(#paint0_linear_99_660)"/>
<path d="M38.7867 56.9403C40.1793 55.4838 41.4663 53.9271 42.6376 52.2825C42.8697 47.0892 43.6863 37.4165 43.6863 37.4165H21.2698C21.2698 37.4165 22.0704 47.0892 22.3266 52.2825C23.4976 53.925 24.7818 55.4814 26.1694 56.9403C28.8994 60.0158 30.8128 60.9977 32.462 60.9977C34.1112 60.9977 36.0567 60.0158 38.7867 56.9403Z" fill="#F09E78"/>
<path d="M32.502 5.17725C17.6271 5.17725 15.3374 15.4098 15.3374 21.2767C15.3082 27.8225 16.173 34.3409 17.9073 40.6463C19.8047 47.9495 23.5114 50.5868 26.2094 52.9157C28.9074 55.2446 30.8528 55.9992 32.502 55.9992C34.1513 55.9992 36.0567 55.2527 38.7867 52.9157C41.5167 50.5787 45.1914 47.9576 47.0888 40.6463C48.8291 34.342 49.6967 27.8231 49.6667 21.2767C49.6667 15.4098 47.377 5.17725 32.502 5.17725Z" fill="url(#paint1_linear_99_660)"/>
<g style="mix-blend-mode:multiply">
<path d="M32.5021 5.17725C17.6271 5.17725 15.3374 15.4098 15.3374 21.2767C15.3374 21.796 15.3374 22.3154 15.3374 22.8266L18.844 19.6294L22.7108 17.544C24.1679 15.2394 27.7626 11.4012 28.5712 11.6203C29.3798 11.8394 34.2314 19.1101 37.6899 21.9989C41.1485 24.8877 46.9768 25.9345 46.9768 25.9345L49.6347 23.5001C49.6347 22.7536 49.6347 22.0151 49.6347 21.2767C49.6667 15.4098 47.377 5.17725 32.5021 5.17725Z" fill="#E6C8BA"/>
</g>
<path d="M51.212 11.2549H13.8004L13.4321 21.7228L14.5289 30.7949L16.2342 32.4179C16.2342 32.4179 19.3885 24.7252 19.3885 23.7595C19.3885 22.7939 18.9802 18.0793 18.9802 18.0793L22.727 17.5924L23.3675 16.2941C29.6884 15.2543 36.1605 15.6985 42.2854 17.5924L46.0322 18.0793C46.0322 18.0793 45.6319 22.8101 45.6319 23.7595C45.6319 24.709 48.7862 32.4179 48.7862 32.4179L50.4835 30.7949L51.5883 21.7228L51.212 11.2549Z" fill="url(#paint2_linear_99_660)"/>
<path d="M38.0262 11.2549H23.3594V16.2535C28.2227 15.4513 33.1873 15.5227 38.0262 16.4645V11.2549Z" fill="#171B1F"/>
<path d="M45.6238 23.7353C45.6293 23.8395 45.6454 23.9428 45.6718 24.0436C46.6767 24.0325 47.6716 23.8401 48.61 23.4756L45.6959 22.2422C45.6558 22.9076 45.6238 23.4675 45.6238 23.7353Z" fill="#171B1F"/>
<path d="M13.7362 24.3034C13.1037 21.4632 10.75 13.0727 10.75 13.0727C12.8025 10.217 15.8515 8.26124 19.2763 7.60343C21.3394 3.97085 24.6742 1.25693 28.6192 0C34.6477 0.519337 51.0918 8.82873 51.5802 9.5347C52.0685 10.2407 51.5802 21.7067 51.5802 21.7067L48.6099 23.4594C48.6099 23.4594 42.6936 23.1592 38.9068 20.7329C35.12 18.3066 29.3878 11.8068 28.5792 11.6039C27.7706 11.4011 24.1759 15.2231 22.7188 17.5276L18.876 17.982L13.7362 24.3034Z" fill="url(#paint3_linear_99_660)"/>
<path opacity="0.1" d="M37.4658 14.8172C42.0597 16.3966 46.9609 16.8336 51.7564 16.0912C51.7564 14.7522 51.8044 13.389 51.7964 12.2529C48.7222 13.251 42.7737 14.9226 37.4658 14.8172Z" fill="white"/>
<path d="M22.2065 16.1885C22.2065 16.1885 23.4394 11.5875 25.3448 9.99707C25.3448 9.99707 23.5996 13.7947 22.2065 16.1885Z" fill="#171B1F"/>
<path d="M21.6062 13.4461C21.9081 11.6004 22.4241 9.79726 23.1433 8.07422C22.8186 9.91461 22.3034 11.7152 21.6062 13.4461Z" fill="#171B1F"/>
<path d="M20.7734 10.1999C20.9006 9.06637 21.1696 7.95383 21.574 6.88916C21.4499 8.02326 21.1808 9.13618 20.7734 10.1999Z" fill="#171B1F"/>
<path d="M62.5403 76.9432C61.7518 75.3381 60.5656 73.968 59.0977 72.9671C58.2971 72.326 57.2563 71.6038 55.8073 70.5895C53.9899 69.3236 51.5001 67.5789 48.2016 65.104C45.6638 63.197 44.3668 61.5173 43.7184 59.7808L32.5101 69.5183L21.3018 59.7808C20.6533 61.5173 19.3564 63.2051 16.8105 65.104C13.5201 67.5384 11.0302 69.3155 9.21287 70.5813C7.7638 71.5957 6.72304 72.326 5.92245 72.9671C4.45265 73.968 3.26383 75.3379 2.4719 76.9432C-0.418233 82.802 -0.0339432 83.3132 0.126175 83.5323C1.67132 85.6015 15.8498 94.0002 32.5181 94.0002C49.1864 94.0002 63.3569 85.6015 64.902 83.5323C65.0381 83.3132 65.4304 82.802 62.5403 76.9432Z" fill="#E5EBF2"/>
<g style="mix-blend-mode:multiply">
<path d="M22.3587 57.9385L32.4942 69.5424L23.0552 82.3149L19.3245 62.2555L22.3587 57.9385Z" fill="#D7DCE3"/>
</g>
<g style="mix-blend-mode:multiply">
<path d="M42.6376 57.9385L32.4941 69.5424L41.9491 82.3149L45.6719 62.2555L42.6376 57.9385Z" fill="#D7DCE3"/>
</g>
<path d="M32.5021 94C34.4146 93.9993 36.3256 93.8909 38.2263 93.6754L34.5035 76.3182L37.7059 70.7028V66.6455H35.8325L32.4861 69.5587L29.1316 66.6455H27.2662V70.7028L30.4686 76.3182L26.7378 93.6754C28.6517 93.8924 30.5762 94.0007 32.5021 94Z" fill="url(#paint4_linear_99_660)"/>
<path d="M22.3587 57.9385L32.4942 69.5424L23.0552 77.4623L19.3245 62.2555L22.3587 57.9385Z" fill="white"/>
<path d="M19.5807 62.5718C18.7486 63.519 17.8141 64.3682 16.7946 65.1036C13.5042 67.5379 11.0144 69.3151 9.19702 70.5809C7.74795 71.5953 6.70719 72.3256 5.9066 72.9666C4.43681 73.9676 3.24796 75.3375 2.45603 76.9428C-0.434102 82.8016 -0.0498124 83.3128 0.110306 83.5319C1.57539 85.4956 14.3929 93.1396 29.9163 93.9268L19.5807 62.5718Z" fill="url(#paint5_linear_99_660)"/>
<path d="M30.1805 93.9431H30.2605L20.5413 60.5107C20.5413 60.5107 17.4751 63.359 17.1068 63.7566C16.9686 63.9423 16.8696 64.1548 16.8159 64.381C16.7622 64.6071 16.7549 64.8421 16.7946 65.0712C16.7946 65.5012 16.9307 79.8155 16.9307 80.5945C16.9206 80.9416 16.9995 81.2855 17.1594 81.5926C17.3193 81.8998 17.5549 82.1597 17.8434 82.3472C18.4358 82.753 24.4242 86.2179 24.7925 86.4776C25.1607 86.7373 25.0167 87.1105 24.7205 87.005C24.4242 86.8996 14.7931 83.0532 14.0245 82.9072C13.256 82.7611 12.9197 83.4995 12.7756 84.1325C12.6555 84.6274 14.2647 88.133 15.7618 91.3302C20.4429 92.8023 25.2861 93.68 30.1805 93.9431Z" fill="#273852"/>
<path d="M42.6376 57.9385L32.4941 69.5424L41.9491 77.4623L45.6719 62.2555L42.6376 57.9385Z" fill="white"/>
<path d="M45.4237 62.5718C46.2528 63.519 47.1847 64.3683 48.2017 65.1036C51.4922 67.5379 53.982 69.3151 55.7994 70.5809C57.2485 71.5953 58.2972 72.3256 59.0978 72.9666C60.5635 73.9701 61.7491 75.3395 62.5403 76.9428C65.4305 82.8016 65.0542 83.3128 64.8861 83.5319C63.421 85.4956 50.6115 93.1396 35.0801 93.9268L45.4237 62.5718Z" fill="url(#paint6_linear_99_660)"/>
<path d="M34.8237 93.9431H34.7437L44.4628 60.5107C44.4628 60.5107 47.5211 63.359 47.8894 63.7566C48.0316 63.9401 48.1331 64.1525 48.187 64.3794C48.2409 64.6062 48.2458 64.8422 48.2016 65.0712C48.2016 65.5012 48.0735 79.8155 48.0735 80.5945C48.0835 80.9425 48.0038 81.2872 47.8424 81.5945C47.6809 81.9019 47.4433 82.1613 47.1528 82.3472C46.5684 82.753 40.572 86.2179 40.2037 86.4776C39.8354 86.7373 39.9876 87.1105 40.2838 87.005C40.58 86.8996 50.2031 83.0532 50.9797 82.9072C51.7562 82.7611 52.0845 83.4995 52.2286 84.1325C52.3407 84.6274 50.7315 88.133 49.2424 91.3302C44.5613 92.8023 39.7181 93.68 34.8237 93.9431Z" fill="#273852"/>
<path d="M34.5036 76.3184H30.4927L30.3005 77.2353H34.6958L34.5036 76.3184Z" fill="#611717"/>
<defs>
<linearGradient id="paint0_linear_99_660" x1="32.5021" y1="64.5681" x2="32.5021" y2="44.1598" gradientUnits="userSpaceOnUse">
<stop stop-color="#FAD4AF"/>
<stop offset="1" stop-color="#F09E78"/>
</linearGradient>
<linearGradient id="paint1_linear_99_660" x1="32.502" y1="33.5298" x2="32.502" y2="4.19537" gradientUnits="userSpaceOnUse">
<stop stop-color="#FAD4AF"/>
<stop offset="1" stop-color="#F09E78"/>
</linearGradient>
<linearGradient id="paint2_linear_99_660" x1="32.5022" y1="5.53406" x2="32.5022" y2="29.0584" gradientUnits="userSpaceOnUse">
<stop stop-color="#1C242B"/>
<stop offset="1" stop-color="#343D45"/>
</linearGradient>
<linearGradient id="paint3_linear_99_660" x1="31.2772" y1="5.53419" x2="31.2772" y2="29.0585" gradientUnits="userSpaceOnUse">
<stop stop-color="#1C242B"/>
<stop offset="1" stop-color="#343D45"/>
</linearGradient>
<linearGradient id="paint4_linear_99_660" x1="32.5021" y1="92.3608" x2="32.5021" y2="73.0804" gradientUnits="userSpaceOnUse">
<stop stop-color="#AD2828"/>
<stop offset="1" stop-color="#8C0F0F"/>
</linearGradient>
<linearGradient id="paint5_linear_99_660" x1="14.9613" y1="92.2633" x2="14.9613" y2="66.7833" gradientUnits="userSpaceOnUse">
<stop stop-color="#111924"/>
<stop offset="1" stop-color="#223147"/>
</linearGradient>
<linearGradient id="paint6_linear_99_660" x1="50.0431" y1="92.2633" x2="50.0431" y2="66.7833" gradientUnits="userSpaceOnUse">
<stop stop-color="#111924"/>
<stop offset="1" stop-color="#223147"/>
</linearGradient>
</defs>
</svg>
