<svg width="117" height="104" viewBox="0 0 117 104" fill="none" xmlns="http://www.w3.org/2000/svg">
<g clip-path="url(#clip0_106_607)">
<path d="M116.993 69.3785C117.251 79.0167 107.59 88.3254 96.8313 94.641C93.0632 96.8608 89.1801 98.6939 85.5196 100.062C73.7486 104.451 63.8437 104.114 56.5298 103.885C56.4221 103.871 56.3288 103.871 56.2212 103.871C55.9915 103.857 55.7475 103.857 55.5178 103.842C43.4094 103.341 31.1431 100.735 20.3625 95.0993C20.0754 94.9489 19.7955 94.7985 19.5084 94.641C10.2136 89.6787 0.933087 82.5969 0.0646123 71.3047C-0.366036 65.7481 1.39245 60.0985 4.73715 55.6517C8.3546 50.8542 13.6372 48.1618 18.4102 44.6889C21.7693 42.24 23.2622 38.7027 24.8341 35.0222C25.9322 32.4658 27.1237 29.9382 28.4946 27.5107C29.2554 26.186 30.0377 24.9043 30.9062 23.644C36.964 14.8437 46.9838 8.3992 57.6064 6.88116C68.6741 5.313 79.2393 10.4614 86.4886 18.7462C90.8668 23.73 93.8742 29.8952 95.1733 36.397C96.2428 41.7101 95.1446 48.3551 99.2932 52.5226C104.102 57.3488 111.014 55.9167 114.926 61.9316C116.878 64.9175 116.957 68.0395 117 69.3642L116.993 69.3785Z" fill="#DFEAF7"/>
<path d="M78.0192 50.1024C87.8523 41.6959 90.7735 26.3509 84.0482 16.4764C80.1724 10.7838 74.1936 8.53538 71.258 7.66896C70.0378 5.89314 66.9443 1.95483 61.7048 0.522715C52.5678 -1.98348 44.6439 5.25585 43.5242 6.27981C33.0308 15.8606 29.076 39.2542 43.4094 50.6825C52.7186 58.108 67.8918 58.7524 78.012 50.1024H78.0192Z" fill="#002D53"/>
<path d="M65.4155 36.1538H54.1469V50.0238H65.4155V36.1538Z" fill="#FFB3AE"/>
<path d="M65.4155 36.1538V42.8275C59.4654 43.2571 56.0704 42.4909 54.1469 41.3166V36.1538H65.4155Z" fill="#FF7A72"/>
<path d="M76.5549 27.8257C75.4783 30.6827 72.8657 32.344 70.7124 31.5348C68.5592 30.7257 67.6907 27.7612 68.7673 24.9042C69.8439 22.0471 72.4565 20.3858 74.6098 21.195C76.763 22.0041 77.6315 24.9686 76.5549 27.8257Z" fill="#FFB3AE"/>
<path d="M44.8233 27.8257C45.8999 30.6827 48.5125 32.344 50.6658 31.5348C52.819 30.7257 53.6875 27.7612 52.6109 24.9042C51.5342 22.0471 48.9216 20.3858 46.7684 21.195C44.6151 22.0041 43.7467 24.9686 44.8233 27.8257Z" fill="#FFB3AE"/>
<path d="M71.1718 25.1836C72.9877 30.1602 67.2601 40.0919 59.939 40.0919C53.7377 40.0919 48.7063 33.4183 48.7063 25.1836C48.7063 16.2114 57.7284 9.17977 59.939 10.2753C60.8291 10.7121 60.0969 12.2087 60.8936 14.765C62.8029 20.873 69.6215 20.9446 71.1646 25.1836H71.1718Z" fill="#FFB3AE"/>
<path d="M91.4267 88.9988H27.1093V76.5036C27.1093 58.7884 41.5073 44.4243 59.2644 44.4243C77.0286 44.4243 91.4195 58.7884 91.4195 76.5036V88.9988H91.4267Z" fill="#FFB042"/>
<path d="M101.009 69.0562H83.2946V89.1702H101.009V69.0562Z" fill="#3D71F2"/>
<path d="M106.643 79.1813C106.643 80.9356 105.215 82.3534 103.456 82.3534C102.466 82.3534 101.583 81.9023 101.001 81.2006V85.4683C101.755 85.769 102.588 85.9265 103.456 85.9265C107.196 85.9265 110.225 82.9119 110.225 79.1884C110.225 75.4649 107.196 72.436 103.456 72.436C102.595 72.436 101.762 72.5936 101.001 72.8943V77.162C101.583 76.4603 102.466 76.0092 103.456 76.0092C105.215 76.0092 106.643 77.4269 106.643 79.1884V79.1813Z" fill="#3D71F2"/>
<path d="M113.921 89.1704H5.97168V94.6339H113.921V89.1704Z" fill="#D18C7E"/>
<path d="M24.4968 76.7825C24.1235 67.2375 24.2599 55.2077 27.4323 54.5275C27.54 54.506 27.9204 54.4272 28.3008 54.6277C30.8704 55.9452 27.9061 66.6932 24.4968 76.7896V76.7825Z" fill="#40C1B0"/>
<path d="M24.4968 76.7824C19.8171 68.5979 17.5633 67.1157 16.3934 67.4808C15.9484 67.6169 15.6326 68.0322 15.5177 68.4117C14.7067 71.054 22.4297 75.6009 24.5039 76.7824H24.4968Z" fill="#40C1B0"/>
<path d="M24.4968 76.7826C24.4968 76.7826 28.8607 64.2516 31.8752 64.9963C34.8897 65.741 24.4968 76.7826 24.4968 76.7826Z" fill="#40C1B0"/>
<path d="M17.6494 88.9982H29.5928L30.6479 74.4121H16.5944L17.6494 88.9982Z" fill="#FF828A"/>
<path d="M81.1126 56.5684H37.4162C35.9217 56.5684 34.7103 57.777 34.7103 59.2679V86.478C34.7103 87.9689 35.9217 89.1776 37.4162 89.1776H81.1126C82.6071 89.1776 83.8185 87.9689 83.8185 86.478V59.2679C83.8185 57.777 82.6071 56.5684 81.1126 56.5684Z" fill="white"/>
<path d="M59.2644 77.6563C61.3574 77.6563 63.0541 75.9636 63.0541 73.8755C63.0541 71.7874 61.3574 70.0947 59.2644 70.0947C57.1714 70.0947 55.4747 71.7874 55.4747 73.8755C55.4747 75.9636 57.1714 77.6563 59.2644 77.6563Z" fill="#DFEAF7"/>
<path d="M96.8385 94.6338C93.0703 96.8536 89.1873 98.6867 85.5268 100.054C73.7557 104.444 63.8508 104.107 56.537 103.878C56.4293 103.864 56.336 103.864 56.2283 103.864C55.9987 103.849 55.7546 103.849 55.5249 103.835C43.4165 103.334 31.1502 100.727 20.3697 95.0921C20.0826 94.9417 19.8027 94.7913 19.5156 94.6338H96.8457H96.8385Z" fill="#BC7F72"/>
</g>
<defs>
<clipPath id="clip0_106_607">
<rect width="117" height="104" fill="white"/>
</clipPath>
</defs>
</svg>
