<svg width="428" height="316" viewBox="0 0 428 316" fill="none" xmlns="http://www.w3.org/2000/svg">
<path d="M385.728 237.331C340.81 309.065 227.752 336.797 133.253 299.272C38.7535 261.748 -29.2518 183.504 21.0594 114.073C57.948 63.1194 121.087 96.1238 188.444 77.2811C238.998 63.1194 251.623 26.9082 310.91 30.2119C429.28 36.8192 430.632 165.608 385.728 237.331Z" fill="url(#paint0_linear_32_3468)"/>
<g clip-path="url(#clip0_32_3468)">
<path d="M88.8697 120H231.761C233.757 120.066 235.675 120.787 237.216 122.05C238.757 123.312 239.836 125.046 240.283 126.981L243.228 141.647C243.447 142.496 243.463 143.384 243.273 144.24C243.083 145.097 242.694 145.896 242.137 146.576C241.58 147.255 240.87 147.794 240.064 148.151C239.259 148.508 238.381 148.671 237.5 148.628H94.6088C92.6172 148.555 90.7052 147.832 89.1687 146.57C87.6322 145.308 86.5568 143.578 86.1088 141.647L83.1415 126.949C82.9286 126.102 82.9179 125.217 83.1103 124.365C83.3026 123.514 83.6926 122.718 84.2492 122.043C84.8058 121.368 85.5135 120.832 86.3158 120.477C87.118 120.122 87.9927 119.959 88.8697 120Z" fill="#87A1CF"/>
<path d="M93.7174 120H236.565C238.561 120.066 240.479 120.787 242.02 122.05C243.562 123.312 244.64 125.046 245.087 126.982L248.065 141.647C248.284 142.496 248.299 143.384 248.11 144.241C247.92 145.097 247.531 145.896 246.974 146.576C246.417 147.255 245.707 147.795 244.901 148.151C244.096 148.508 243.218 148.671 242.337 148.628H99.4239C97.4285 148.56 95.5115 147.839 93.9706 146.577C92.4297 145.314 91.3511 143.581 90.9022 141.647L87.9565 126.949C87.7427 126.099 87.7324 125.212 87.9264 124.357C88.1205 123.503 88.5135 122.706 89.0738 122.03C89.6342 121.354 90.3462 120.818 91.1527 120.465C91.9592 120.113 92.8376 119.954 93.7174 120Z" fill="#7DBDFD"/>
<path d="M139.641 129.986C139.099 129.962 138.559 130.066 138.064 130.289C137.57 130.512 137.135 130.847 136.795 131.268C136.455 131.689 136.22 132.184 136.108 132.712C135.997 133.24 136.012 133.787 136.152 134.309C136.423 135.499 137.081 136.568 138.024 137.349C138.967 138.13 140.143 138.581 141.37 138.632C141.91 138.651 142.448 138.544 142.94 138.32C143.432 138.096 143.864 137.76 144.202 137.34C144.54 136.92 144.775 136.427 144.887 135.901C144.999 135.374 144.986 134.829 144.848 134.309C144.579 133.119 143.923 132.051 142.982 131.27C142.04 130.488 140.866 130.037 139.641 129.986ZM159.511 129.986C158.969 129.964 158.43 130.069 157.937 130.293C157.444 130.517 157.011 130.852 156.672 131.273C156.334 131.694 156.1 132.188 155.988 132.715C155.877 133.242 155.892 133.788 156.033 134.309C156.304 135.499 156.962 136.568 157.905 137.349C158.848 138.13 160.023 138.581 161.25 138.632C161.791 138.651 162.329 138.544 162.821 138.319C163.313 138.095 163.746 137.76 164.085 137.34C164.423 136.92 164.659 136.428 164.773 135.901C164.886 135.375 164.875 134.83 164.739 134.309C164.469 133.116 163.81 132.045 162.864 131.263C161.919 130.481 160.74 130.032 159.511 129.986ZM179.391 129.986C178.85 129.965 178.31 130.07 177.817 130.294C177.324 130.517 176.89 130.853 176.551 131.273C176.212 131.693 175.976 132.187 175.864 132.714C175.751 133.241 175.764 133.788 175.902 134.309C176.174 135.501 176.833 136.571 177.779 137.352C178.724 138.134 179.902 138.583 181.13 138.632C181.671 138.651 182.209 138.544 182.701 138.32C183.193 138.096 183.625 137.76 183.963 137.34C184.301 136.92 184.536 136.427 184.648 135.901C184.76 135.374 184.746 134.829 184.609 134.309C184.339 133.118 183.682 132.048 182.738 131.267C181.795 130.485 180.618 130.035 179.391 129.986ZM199.272 129.986C198.729 129.962 198.189 130.066 197.695 130.289C197.2 130.512 196.765 130.847 196.426 131.268C196.086 131.689 195.85 132.184 195.739 132.712C195.627 133.24 195.642 133.787 195.783 134.309C196.054 135.499 196.712 136.568 197.655 137.349C198.598 138.13 199.773 138.581 201 138.632C201.542 138.653 202.081 138.547 202.574 138.324C203.067 138.1 203.501 137.765 203.84 137.345C204.18 136.924 204.415 136.431 204.528 135.903C204.64 135.376 204.627 134.83 204.489 134.309C204.22 133.118 203.562 132.048 202.619 131.267C201.675 130.485 200.499 130.035 199.272 129.986ZM219.141 129.986C218.6 129.965 218.06 130.07 217.567 130.294C217.074 130.517 216.64 130.853 216.301 131.273C215.962 131.693 215.726 132.187 215.614 132.714C215.501 133.241 215.514 133.788 215.652 134.309C215.924 135.501 216.583 136.571 217.529 137.352C218.474 138.134 219.652 138.583 220.88 138.632C221.421 138.651 221.959 138.544 222.451 138.32C222.943 138.096 223.375 137.76 223.713 137.34C224.051 136.92 224.286 136.427 224.398 135.901C224.51 135.374 224.496 134.829 224.359 134.309C224.089 133.118 223.432 132.048 222.488 131.267C221.545 130.485 220.368 130.035 219.141 129.986Z" fill="white"/>
<path d="M95.0543 123.318H110.685C111.842 123.359 112.954 123.779 113.848 124.511C114.742 125.244 115.368 126.249 115.63 127.371L118.413 141.258C118.544 141.752 118.556 142.269 118.447 142.768C118.339 143.268 118.113 143.734 117.789 144.13C117.465 144.526 117.051 144.841 116.581 145.048C116.112 145.255 115.6 145.348 115.087 145.321H99.4674C98.3092 145.282 97.1965 144.863 96.3022 144.13C95.4079 143.397 94.782 142.391 94.5217 141.269L91.7391 127.381C91.6086 126.888 91.5968 126.372 91.7047 125.874C91.8126 125.375 92.0372 124.909 92.3601 124.514C92.6831 124.118 93.0953 123.803 93.5634 123.595C94.0316 123.388 94.5423 123.293 95.0543 123.318Z" fill="white"/>
<path d="M103.261 125.285C102.8 125.266 102.342 125.355 101.922 125.545C101.502 125.735 101.133 126.02 100.845 126.377C100.556 126.735 100.356 127.155 100.26 127.603C100.164 128.052 100.176 128.516 100.293 128.959C100.52 129.974 101.078 130.885 101.88 131.552C102.683 132.218 103.684 132.603 104.728 132.645C105.189 132.661 105.648 132.57 106.068 132.379C106.487 132.188 106.856 131.902 107.144 131.544C107.433 131.186 107.633 130.766 107.729 130.317C107.824 129.868 107.813 129.403 107.696 128.959C107.464 127.946 106.904 127.036 106.1 126.372C105.296 125.708 104.294 125.326 103.25 125.285H103.261ZM102.261 133.747C101.611 133.713 100.962 133.832 100.368 134.095C99.7734 134.358 99.2501 134.758 98.8407 135.261C98.4314 135.763 98.1477 136.356 98.0129 136.989C97.8781 137.621 97.896 138.277 98.0652 138.902L98.9565 143.344H114.772L113.88 138.902C113.56 137.481 112.777 136.206 111.653 135.274C110.529 134.341 109.126 133.805 107.663 133.747H102.261Z" fill="#314E9E"/>
<path d="M96.25 156.831H239.13C241.128 156.897 243.047 157.617 244.59 158.88C246.133 160.142 247.214 161.877 247.663 163.813L250.598 178.478C250.819 179.327 250.836 180.215 250.648 181.071C250.46 181.927 250.072 182.727 249.515 183.407C248.959 184.087 248.249 184.626 247.444 184.983C246.639 185.34 245.761 185.503 244.88 185.46H102C100.003 185.392 98.0847 184.671 96.5419 183.409C94.9992 182.147 93.9185 180.413 93.4674 178.478L90.5326 163.813C90.3116 162.964 90.2944 162.076 90.4824 161.22C90.6705 160.364 91.0584 159.563 91.615 158.884C92.1715 158.204 92.881 157.664 93.6862 157.308C94.4914 156.951 95.3696 156.788 96.25 156.831Z" fill="#87A1CF"/>
<path d="M101.076 156.831H243.957C245.952 156.898 247.87 157.618 249.412 158.881C250.953 160.144 252.031 161.877 252.478 163.813L255.424 178.478C255.643 179.327 255.658 180.216 255.469 181.072C255.279 181.928 254.89 182.728 254.333 183.407C253.775 184.086 253.065 184.626 252.26 184.982C251.455 185.339 250.576 185.502 249.696 185.46H106.815C104.82 185.391 102.903 184.67 101.362 183.408C99.821 182.145 98.7424 180.412 98.2935 178.478L95.3478 163.813C95.1289 162.964 95.1136 162.075 95.3032 161.219C95.4927 160.363 95.8818 159.563 96.4391 158.884C96.9964 158.205 97.7064 157.665 98.5118 157.309C99.3172 156.952 100.196 156.788 101.076 156.831Z" fill="#7DBDFD"/>
<path d="M140.511 185.46H249.783C250.617 185.459 251.442 185.276 252.198 184.924C252.953 184.571 253.622 184.057 254.155 183.418C254.688 182.78 255.074 182.032 255.283 181.229C255.493 180.425 255.523 179.586 255.37 178.77L253.652 169.659" stroke="#556884" stroke-miterlimit="10" stroke-linecap="round"/>
<path d="M132.348 148.682H241.63C242.465 148.682 243.29 148.499 244.045 148.146C244.801 147.794 245.469 147.28 246.003 146.641C246.536 146.003 246.921 145.255 247.131 144.452C247.341 143.648 247.371 142.809 247.217 141.993L245.5 132.893" stroke="#556884" stroke-miterlimit="10" stroke-linecap="round"/>
<path d="M102.413 160.149H118.065C119.233 160.177 120.358 160.59 121.263 161.324C122.169 162.058 122.803 163.07 123.065 164.202L125.848 178.089C125.976 178.581 125.987 179.097 125.878 179.593C125.769 180.09 125.544 180.555 125.221 180.949C124.899 181.344 124.487 181.657 124.02 181.864C123.553 182.072 123.043 182.167 122.533 182.142H106.859C105.7 182.102 104.588 181.683 103.694 180.951C102.799 180.218 102.173 179.212 101.913 178.089L99.1522 164.202C99.0253 163.714 99.0144 163.204 99.1204 162.711C99.2263 162.219 99.4463 161.757 99.7628 161.364C100.079 160.971 100.484 160.656 100.944 160.445C101.404 160.234 101.907 160.133 102.413 160.149Z" fill="white"/>
<path d="M108.37 162.343C107.965 162.329 107.562 162.41 107.195 162.579C106.827 162.748 106.504 163 106.251 163.315C105.999 163.63 105.824 163.999 105.741 164.393C105.658 164.788 105.668 165.196 105.772 165.585L106.598 169.724C106.367 169.778 106.148 169.876 105.956 170.014C105.763 170.152 105.6 170.326 105.475 170.527C105.351 170.728 105.268 170.952 105.231 171.185C105.194 171.418 105.204 171.656 105.261 171.886L106.413 177.743C106.554 178.363 106.896 178.92 107.388 179.326C107.879 179.732 108.492 179.966 109.13 179.991H119.609C119.89 180.002 120.171 179.947 120.427 179.831C120.684 179.715 120.909 179.54 121.086 179.322C121.262 179.103 121.385 178.847 121.443 178.572C121.502 178.298 121.495 178.014 121.424 177.743L120.261 171.972C120.135 171.447 119.865 170.967 119.481 170.586C119.098 170.204 118.615 169.936 118.087 169.811L117.261 165.671C117.059 164.782 116.569 163.982 115.866 163.397C115.163 162.811 114.286 162.471 113.37 162.429L108.37 162.343ZM108.761 164.299H113.707C114.071 164.308 114.421 164.439 114.701 164.67C114.981 164.902 115.174 165.22 115.25 165.574L116.065 169.659H108.554L107.728 165.574C107.685 165.42 107.679 165.258 107.711 165.101C107.743 164.944 107.813 164.797 107.914 164.672C108.015 164.547 108.145 164.448 108.292 164.383C108.439 164.319 108.6 164.29 108.761 164.299ZM112.804 172.134C113.23 172.151 113.638 172.307 113.964 172.579C114.291 172.851 114.518 173.223 114.609 173.636C114.673 173.877 114.659 174.132 114.569 174.365C114.479 174.598 114.318 174.797 114.109 174.933L114.5 176.9C114.526 176.989 114.53 177.083 114.513 177.174C114.495 177.264 114.456 177.35 114.399 177.422C114.341 177.495 114.267 177.554 114.183 177.592C114.098 177.631 114.006 177.65 113.913 177.646C113.702 177.638 113.5 177.561 113.338 177.426C113.177 177.291 113.065 177.106 113.022 176.9L112.62 174.933C112.363 174.806 112.138 174.624 111.961 174.4C111.784 174.175 111.66 173.915 111.598 173.636C111.55 173.456 111.546 173.267 111.585 173.084C111.624 172.902 111.705 172.731 111.822 172.585C111.94 172.439 112.089 172.322 112.26 172.244C112.43 172.166 112.617 172.128 112.804 172.134Z" fill="#314E9E"/>
<path d="M146.978 166.817C146.437 166.795 145.898 166.901 145.405 167.124C144.912 167.348 144.478 167.683 144.14 168.104C143.801 168.525 143.567 169.019 143.456 169.546C143.345 170.074 143.36 170.62 143.5 171.14C143.771 172.33 144.429 173.399 145.372 174.18C146.315 174.962 147.491 175.412 148.717 175.463C149.258 175.482 149.796 175.375 150.288 175.151C150.781 174.926 151.213 174.591 151.552 174.171C151.891 173.751 152.126 173.259 152.24 172.733C152.354 172.206 152.342 171.661 152.207 171.14C151.937 169.947 151.277 168.876 150.332 168.094C149.386 167.313 148.207 166.864 146.978 166.817ZM166.859 166.817C166.317 166.796 165.778 166.901 165.285 167.125C164.791 167.348 164.358 167.684 164.018 168.104C163.679 168.525 163.444 169.018 163.331 169.545C163.218 170.073 163.231 170.619 163.37 171.14C163.641 172.332 164.301 173.402 165.246 174.183C166.191 174.965 167.369 175.415 168.598 175.463C169.139 175.482 169.676 175.376 170.168 175.151C170.66 174.927 171.092 174.591 171.431 174.171C171.769 173.751 172.003 173.258 172.115 172.732C172.227 172.205 172.214 171.66 172.076 171.14C171.809 169.956 171.158 168.891 170.223 168.11C169.288 167.329 168.122 166.875 166.902 166.817H166.859ZM186.739 166.817C186.197 166.794 185.656 166.897 185.162 167.12C184.667 167.343 184.233 167.679 183.893 168.1C183.553 168.521 183.318 169.015 183.206 169.543C183.094 170.072 183.11 170.619 183.25 171.14C183.521 172.33 184.179 173.399 185.122 174.18C186.065 174.962 187.241 175.412 188.467 175.463C189.009 175.484 189.548 175.379 190.041 175.155C190.535 174.932 190.968 174.596 191.308 174.176C191.647 173.755 191.882 173.262 191.995 172.735C192.108 172.207 192.095 171.661 191.957 171.14C191.689 169.956 191.038 168.891 190.103 168.11C189.169 167.329 188.002 166.875 186.783 166.817H186.739ZM206.609 166.817C206.067 166.796 205.528 166.901 205.035 167.125C204.541 167.348 204.108 167.684 203.768 168.104C203.429 168.525 203.194 169.018 203.081 169.545C202.968 170.073 202.981 170.619 203.12 171.14C203.395 172.33 204.055 173.398 205 174.179C205.944 174.96 207.12 175.411 208.348 175.463C208.889 175.482 209.427 175.375 209.919 175.151C210.411 174.926 210.844 174.591 211.182 174.171C211.521 173.751 211.757 173.259 211.87 172.733C211.984 172.206 211.973 171.661 211.837 171.14C211.566 169.956 210.912 168.892 209.976 168.111C209.04 167.331 207.872 166.876 206.652 166.817H206.609ZM226.489 166.817C225.947 166.796 225.408 166.901 224.915 167.125C224.422 167.348 223.988 167.684 223.649 168.104C223.309 168.525 223.074 169.018 222.961 169.545C222.849 170.073 222.862 170.619 223 171.14C223.271 172.33 223.929 173.399 224.872 174.18C225.815 174.962 226.991 175.412 228.217 175.463C228.758 175.482 229.296 175.376 229.788 175.151C230.28 174.927 230.712 174.591 231.05 174.171C231.388 173.751 231.623 173.258 231.735 172.732C231.847 172.205 231.833 171.66 231.696 171.14C231.429 169.957 230.779 168.894 229.847 168.114C228.914 167.333 227.75 166.877 226.533 166.817H226.489Z" fill="white"/>
</g>
<path d="M366.19 70.5463C369.013 70.5463 371.576 73.1515 371.911 76.3296L372.963 86.29C373.302 89.4633 371.282 92.0195 368.474 91.9999L352.81 91.8922C349.982 91.8922 347.424 89.287 347.089 86.1137L346.037 76.1484C345.698 72.9752 347.718 70.4189 350.526 70.4385H350.925L350.59 67.2653C350.341 64.8952 351.842 62.9902 353.942 63L361.188 63.0539C363.288 63.0539 365.203 65.0127 365.452 67.3632L365.786 70.5414L366.19 70.5463ZM363.996 70.5463L363.662 67.373C363.527 66.1194 362.515 65.091 361.398 65.0812L354.156 65.0323C353.044 65.0323 352.246 66.0411 352.381 67.2947L352.715 70.4679L363.996 70.5463ZM360.315 83.107C361.577 82.7985 362.41 81.5106 362.245 79.9582C362.056 78.1611 360.605 76.7018 359.009 76.6871C357.413 76.6724 356.276 78.1219 356.465 79.9142C356.525 80.6312 356.8 81.3149 357.254 81.8794C357.708 82.4439 358.322 82.8642 359.019 83.0874L358.66 86.388H361.378L360.315 83.0874" fill="#0CBC8B"/>
<g clip-path="url(#clip1_32_3468)">
<path d="M229.407 103.383C215.797 103.383 204.034 104.482 193.885 106.742L190.435 108.131C195.761 121.969 191.084 131.738 179.327 136.608C195.744 217.39 258.077 231.727 258.077 231.727L261.532 230.344C272.277 226.322 311.453 206.871 294.347 136.608C280.41 131.755 271.371 121.986 270.518 108.131C257.703 105.225 245.057 103.383 229.418 103.383H229.407Z" fill="#6C8BB7"/>
<path d="M193.908 106.742L190.459 108.131C195.785 121.969 191.108 131.738 179.351 136.608C195.767 217.39 258.1 231.727 258.1 231.727" stroke="#556884" stroke-miterlimit="10" stroke-linecap="round"/>
<path d="M232.914 102C219.771 101.902 206.669 103.496 193.937 106.742C199.263 120.58 194.586 130.355 182.829 135.219C199.211 216.006 261.561 230.326 261.561 230.326C261.561 230.326 317.498 216.006 297.808 135.202C283.877 130.355 274.832 120.58 273.979 106.725C260.521 103.574 246.74 101.989 232.914 102Z" fill="#87A1CF"/>
<path d="M233.803 106.132C222.111 106.052 210.451 107.359 199.07 110.026C200.754 116.198 200.707 121.864 198.766 126.554C196.743 131.459 192.786 135.167 187.6 137.823C195.896 175.598 214.165 197.38 230.506 210.055C245.478 221.679 257.983 225.328 260.579 226.008C262.853 225.328 273.745 221.673 283.526 210.055C294.207 197.38 302.737 175.575 294.172 137.823C287.799 135.167 282.187 131.43 277.966 126.554C273.949 121.836 271.295 116.124 270.284 110.026C258.3 107.425 246.069 106.12 233.803 106.132Z" fill="#D4E8FC"/>
<path d="M228.109 129.216C229.313 134.597 225.899 138.962 220.479 138.962C215.06 138.962 209.699 134.597 208.495 129.216C207.29 123.828 210.71 119.464 216.124 119.464C221.543 119.464 226.904 123.828 228.109 129.216Z" fill="#6C8BB7"/>
<path d="M233.335 152.613C234.54 158.001 231.12 162.365 225.706 162.365C220.292 162.365 214.92 158.001 213.721 152.613C212.517 147.232 215.931 142.867 221.35 142.867C226.764 142.867 232.131 147.232 233.335 152.613Z" fill="#6C8BB7"/>
<path d="M238.562 176.017C239.766 181.398 236.346 185.763 230.962 185.763C225.577 185.763 220.175 181.398 218.977 176.017C217.773 170.629 221.187 166.265 226.577 166.265C231.991 166.265 237.358 170.629 238.562 176.017Z" fill="#6C8BB7"/>
<path d="M251.652 129.216C252.821 134.597 249.436 138.962 244.017 138.962C238.597 138.962 233.236 134.597 232.032 129.216C230.827 123.834 234.247 119.464 239.632 119.464C245.016 119.464 250.453 123.828 251.652 129.216Z" fill="#6C8BB7"/>
<path d="M256.884 152.613C258.089 158.001 254.674 162.365 249.284 162.365C243.894 162.365 238.503 158.001 237.299 152.613C236.095 147.226 239.515 142.867 244.899 142.867C250.284 142.867 255.674 147.232 256.884 152.613Z" fill="#233F7C"/>
<path d="M262.099 176.017C263.303 181.398 259.889 185.763 254.499 185.763C249.109 185.763 243.718 181.398 242.514 176.017C241.31 170.635 244.73 166.265 250.114 166.265C255.499 166.265 260.901 170.629 262.099 176.017Z" fill="#6C8BB7"/>
<path d="M275.189 129.216C276.393 134.597 272.973 138.962 267.56 138.962C262.14 138.962 256.773 134.597 255.575 129.216C254.37 123.828 257.785 119.464 263.204 119.464C268.618 119.464 273.985 123.828 275.189 129.216Z" fill="#6C8BB7"/>
<path d="M280.416 152.613C281.62 158.001 278.2 162.365 272.786 162.365C267.367 162.365 262 158.001 260.795 152.613C259.597 147.232 263.011 142.867 268.431 142.867C273.844 142.867 279.211 147.232 280.416 152.613Z" fill="#6C8BB7"/>
<path d="M285.642 176.017C286.841 181.398 283.426 185.763 278.007 185.763C272.593 185.763 267.226 181.398 266.022 176.017C264.853 170.629 268.238 166.265 273.657 166.265C279.071 166.265 284.438 170.629 285.642 176.017Z" fill="#6C8BB7"/>
<path d="M221.497 135.3H219.047L216.872 125.566H215.65L215.107 123.131H218.778L221.497 135.3Z" fill="#6C8BB7"/>
<path d="M245.583 126.781C245.695 127.248 245.705 127.733 245.613 128.205C245.527 128.628 245.343 129.026 245.075 129.367C244.813 129.699 244.477 129.966 244.093 130.146C243.667 130.346 243.201 130.445 242.73 130.436H241.497C241.34 130.433 241.184 130.464 241.041 130.529C240.911 130.59 240.797 130.679 240.708 130.791C240.623 130.905 240.565 131.036 240.538 131.174C240.503 131.331 240.503 131.494 240.538 131.651L240.807 132.865H246.601L247.144 135.3H238.901L238.088 131.651C237.977 131.186 237.967 130.702 238.059 130.233C238.141 129.81 238.321 129.412 238.585 129.07C238.851 128.737 239.191 128.47 239.579 128.292C240.005 128.092 240.471 127.992 240.941 128.001H242.175C242.332 128.005 242.488 127.973 242.631 127.908C242.76 127.851 242.872 127.763 242.958 127.652C243.047 127.538 243.107 127.405 243.134 127.263C243.166 127.104 243.166 126.94 243.134 126.781C243.096 126.612 243.028 126.45 242.935 126.304C242.837 126.16 242.719 126.031 242.584 125.921C242.451 125.81 242.301 125.722 242.14 125.659C241.982 125.597 241.813 125.565 241.643 125.566H237.27L236.726 123.131H241.099C241.61 123.132 242.116 123.228 242.59 123.416C243.073 123.608 243.523 123.875 243.923 124.206C244.332 124.537 244.687 124.929 244.975 125.368C245.256 125.801 245.455 126.282 245.56 126.786L245.583 126.781Z" fill="#6C8BB7"/>
<path d="M270.214 131.651C270.316 132.118 270.316 132.602 270.214 133.069C270.125 133.491 269.944 133.888 269.682 134.231C269.417 134.562 269.079 134.829 268.694 135.01C268.268 135.208 267.802 135.307 267.332 135.3H262.432L261.889 132.865H266.823C266.98 132.866 267.135 132.834 267.279 132.772C267.407 132.714 267.519 132.626 267.606 132.517C267.694 132.402 267.754 132.269 267.782 132.127C267.819 131.971 267.819 131.807 267.782 131.651C267.745 131.481 267.678 131.32 267.583 131.174C267.488 131.028 267.37 130.898 267.232 130.791C267.099 130.68 266.949 130.592 266.788 130.529C266.63 130.467 266.461 130.435 266.291 130.436H262.953L262.409 128.001H265.747C265.904 128.005 266.06 127.973 266.203 127.908C266.332 127.851 266.445 127.763 266.531 127.652C266.621 127.539 266.683 127.405 266.712 127.263C266.746 127.104 266.746 126.94 266.712 126.781C266.676 126.611 266.609 126.449 266.513 126.304C266.418 126.158 266.3 126.028 266.162 125.921C266.029 125.81 265.879 125.722 265.718 125.659C265.56 125.596 265.391 125.565 265.221 125.566H260.322L259.778 123.131H264.677C265.188 123.13 265.694 123.227 266.168 123.416C267.143 123.812 267.976 124.49 268.559 125.363C268.841 125.795 269.039 126.276 269.144 126.781C269.235 127.213 269.241 127.659 269.161 128.094C269.095 128.498 268.942 128.883 268.711 129.222C269.086 129.549 269.41 129.931 269.67 130.355C269.917 130.758 270.099 131.197 270.208 131.657L270.214 131.651Z" fill="#6C8BB7"/>
<path d="M229.284 156.263H228.062L228.606 158.698H226.156L225.612 156.263H219.468L218.655 146.529H221.105L221.69 153.834H225.063L223.701 147.749H226.156L227.512 153.834H228.734L229.284 156.263Z" fill="#6C8BB7"/>
<path d="M251.962 154.874C252.091 155.4 252.105 155.947 252.003 156.478C251.911 156.921 251.71 157.334 251.418 157.681C251.134 158.017 250.77 158.276 250.36 158.437C249.918 158.615 249.445 158.703 248.968 158.698H244.022L243.473 156.263H248.413C248.574 156.264 248.734 156.239 248.886 156.187C249.038 156.142 249.175 156.057 249.284 155.943C249.401 155.823 249.48 155.672 249.512 155.507C249.561 155.299 249.561 155.082 249.512 154.874C249.462 154.665 249.373 154.468 249.249 154.293C249.138 154.124 248.995 153.978 248.828 153.863C248.53 153.646 248.174 153.522 247.805 153.508H242.853L242.017 146.534H249.576L250.12 148.969H244.782L245.028 151.056H247.267C247.781 151.06 248.291 151.15 248.775 151.323C249.28 151.499 249.752 151.756 250.173 152.084C250.609 152.424 250.986 152.832 251.289 153.293C251.611 153.776 251.839 154.314 251.962 154.88V154.874Z" fill="#6C8BB7"/>
<path d="M275.686 154.06C275.83 154.67 275.85 155.303 275.744 155.92C275.651 156.472 275.436 156.996 275.113 157.454C274.785 157.898 274.354 158.255 273.856 158.495C273.308 158.753 272.708 158.882 272.102 158.872C271.427 158.87 270.759 158.742 270.132 158.495C269.498 158.238 268.906 157.887 268.378 157.454C267.842 157.015 267.375 156.497 266.992 155.92C266.619 155.353 266.351 154.723 266.203 154.06C266.031 153.311 265.937 152.545 265.923 151.776C265.905 151.068 265.974 150.359 266.127 149.667C266.263 149.024 266.489 148.404 266.799 147.825C267.092 147.277 267.471 146.781 267.922 146.354H271.225C270.929 146.578 270.652 146.825 270.395 147.092C270.129 147.368 269.883 147.661 269.658 147.97C269.437 148.281 269.241 148.609 269.074 148.952C268.899 149.297 268.756 149.657 268.647 150.027C268.862 149.861 269.098 149.722 269.348 149.615C269.614 149.493 269.904 149.431 270.196 149.434C271.506 149.431 272.773 149.895 273.768 150.742C274.253 151.158 274.666 151.651 274.99 152.201C275.331 152.778 275.578 153.406 275.721 154.06H275.686ZM273.236 154.06C273.163 153.741 273.039 153.434 272.868 153.154C272.715 152.872 272.518 152.617 272.283 152.398C272.043 152.18 271.766 152.005 271.465 151.881C271.163 151.755 270.839 151.692 270.512 151.695C270.209 151.685 269.908 151.749 269.635 151.881C269.397 151.998 269.195 152.177 269.05 152.398C268.908 152.628 268.818 152.886 268.787 153.154C268.748 153.456 268.764 153.763 268.834 154.06C268.905 154.377 269.025 154.681 269.191 154.961C269.359 155.242 269.568 155.496 269.81 155.717C270.052 155.934 270.326 156.113 270.623 156.246C270.922 156.374 271.244 156.44 271.57 156.437C271.871 156.444 272.169 156.38 272.441 156.251C272.678 156.134 272.879 155.958 273.026 155.74C273.176 155.511 273.27 155.25 273.301 154.979C273.343 154.672 273.327 154.361 273.254 154.06H273.236Z" fill="#6C8BB7"/>
<path d="M231.681 169.938L230.213 182.142H227.594L228.863 172.408H223.654L223.11 169.967L231.681 169.938Z" fill="#6C8BB7"/>
<path d="M257.673 178.655C257.797 179.155 257.785 179.678 257.638 180.172C257.49 180.633 257.227 181.049 256.873 181.381C256.484 181.731 256.026 181.996 255.528 182.16C254.949 182.359 254.34 182.457 253.727 182.45C253.075 182.45 252.427 182.352 251.804 182.16C251.202 181.982 250.629 181.72 250.103 181.381C249.607 181.051 249.168 180.642 248.805 180.172C248.469 179.721 248.233 179.204 248.115 178.655C248.047 178.352 248.021 178.041 248.039 177.731C248.054 177.437 248.113 177.147 248.214 176.871C248.317 176.606 248.461 176.359 248.641 176.139C248.818 175.91 249.034 175.713 249.278 175.558C249.067 175.402 248.871 175.227 248.694 175.035C248.515 174.836 248.349 174.626 248.197 174.407C248.054 174.19 247.929 173.963 247.822 173.727C247.722 173.499 247.643 173.261 247.589 173.018C247.477 172.581 247.477 172.124 247.589 171.687C247.706 171.276 247.925 170.9 248.226 170.594C248.54 170.263 248.926 170.007 249.354 169.845C249.839 169.659 250.355 169.566 250.874 169.572C251.435 169.572 251.992 169.665 252.523 169.845C253.046 170.018 253.539 170.271 253.984 170.594C254.421 170.891 254.803 171.261 255.113 171.687C255.412 172.082 255.623 172.536 255.732 173.018C255.785 173.25 255.809 173.489 255.803 173.727C255.808 173.957 255.786 174.187 255.738 174.413C255.692 174.63 255.617 174.841 255.516 175.04C255.43 175.237 255.311 175.417 255.165 175.575C255.482 175.736 255.78 175.931 256.054 176.156C256.328 176.372 256.577 176.618 256.797 176.888C257.025 177.147 257.221 177.432 257.381 177.737C257.532 178.029 257.644 178.34 257.714 178.661L257.673 178.655ZM253.376 173.291C253.333 173.08 253.243 172.882 253.113 172.71C252.988 172.53 252.832 172.375 252.652 172.251C252.284 171.981 251.84 171.834 251.383 171.832C251.167 171.831 250.954 171.868 250.751 171.943C250.574 172.013 250.413 172.117 250.278 172.251C250.158 172.382 250.072 172.539 250.027 172.71C249.971 172.9 249.971 173.101 250.027 173.291C250.071 173.49 250.157 173.678 250.278 173.843C250.407 174.012 250.561 174.16 250.734 174.285C250.915 174.409 251.111 174.508 251.319 174.581C251.539 174.653 251.77 174.69 252.003 174.692C252.216 174.693 252.428 174.656 252.628 174.581C252.801 174.515 252.958 174.414 253.09 174.285C253.214 174.163 253.303 174.011 253.347 173.843C253.407 173.665 253.417 173.474 253.376 173.291ZM255.224 178.585C255.162 178.311 255.04 178.053 254.867 177.83C254.689 177.589 254.472 177.379 254.224 177.208C253.966 177.029 253.682 176.89 253.382 176.795C253.077 176.694 252.757 176.643 252.435 176.644C252.134 176.638 251.834 176.689 251.552 176.795C251.307 176.885 251.084 177.025 250.898 177.208C250.725 177.382 250.598 177.596 250.529 177.83C250.465 178.078 250.465 178.338 250.529 178.585C250.591 178.856 250.708 179.112 250.874 179.335C251.055 179.561 251.27 179.757 251.511 179.916C251.77 180.086 252.052 180.219 252.348 180.311C252.655 180.4 252.974 180.445 253.295 180.445C253.594 180.448 253.892 180.403 254.177 180.311C254.425 180.227 254.652 180.093 254.844 179.916C255.019 179.76 255.146 179.559 255.212 179.335C255.284 179.091 255.288 178.832 255.224 178.585Z" fill="#6C8BB7"/>
<path d="M280.269 174.587C280.438 175.339 280.528 176.106 280.538 176.877C280.555 177.586 280.487 178.294 280.334 178.986C280.2 179.619 279.982 180.231 279.685 180.805C279.391 181.352 279.012 181.848 278.562 182.276H275.253C275.553 182.05 275.837 181.804 276.101 181.538C276.365 181.264 276.607 180.97 276.826 180.66C277.049 180.351 277.245 180.022 277.411 179.678C277.583 179.333 277.727 178.976 277.843 178.609C277.621 178.775 277.382 178.917 277.13 179.033C276.866 179.146 276.581 179.203 276.294 179.201C274.982 179.217 273.71 178.756 272.716 177.905C272.232 177.482 271.818 176.986 271.488 176.435C271.153 175.856 270.911 175.229 270.769 174.575C270.625 173.966 270.601 173.334 270.699 172.716C270.794 172.162 271.014 171.638 271.342 171.181C271.663 170.735 272.091 170.376 272.587 170.135C273.134 169.872 273.734 169.741 274.341 169.752C275.017 169.753 275.686 169.883 276.311 170.135C276.948 170.39 277.54 170.743 278.065 171.181C278.604 171.617 279.07 172.135 279.445 172.716C279.834 173.283 280.114 173.918 280.269 174.587ZM277.644 174.587C277.574 174.269 277.451 173.965 277.282 173.686C277.113 173.401 276.9 173.144 276.65 172.925C276.409 172.704 276.133 172.525 275.832 172.396C275.533 172.269 275.21 172.204 274.885 172.204C274.583 172.196 274.284 172.262 274.014 172.396C273.779 172.516 273.578 172.691 273.429 172.907C273.28 173.135 273.186 173.393 273.154 173.663C273.121 173.972 273.138 174.284 273.207 174.587C273.282 174.909 273.404 175.219 273.57 175.505C273.725 175.781 273.922 176.032 274.154 176.249C274.393 176.463 274.666 176.635 274.961 176.761C275.263 176.884 275.587 176.947 275.914 176.947C276.215 176.953 276.513 176.89 276.785 176.761C277.02 176.642 277.222 176.466 277.37 176.249C277.519 176.026 277.613 175.771 277.644 175.505C277.692 175.2 277.678 174.887 277.603 174.587H277.644Z" fill="#6C8BB7"/>
<path d="M267.536 200.35C268.74 205.731 265.32 210.096 259.907 210.096C254.493 210.096 249.12 205.731 247.922 200.35C246.723 194.968 250.132 190.598 255.551 190.598C260.971 190.598 266.332 194.963 267.536 200.35Z" fill="#6C8BB7"/>
<path d="M260.509 200.385C260.325 199.28 259.858 198.241 259.153 197.369C258.895 197.062 258.574 196.815 258.21 196.645C257.846 196.476 257.45 196.387 257.048 196.386C256.704 196.357 256.36 196.436 256.063 196.611C255.767 196.786 255.532 197.049 255.393 197.363C255.097 198.014 255.097 199.021 255.393 200.385C255.578 201.484 256.039 202.519 256.732 203.395C256.986 203.701 257.305 203.948 257.665 204.118C258.026 204.288 258.42 204.376 258.819 204.377C259.179 204.388 259.535 204.308 259.854 204.145C260.14 203.97 260.364 203.71 260.491 203.401C260.651 203.008 260.728 202.587 260.719 202.163C260.717 201.564 260.646 200.968 260.509 200.385ZM262.847 200.385C263.085 201.334 263.176 202.314 263.116 203.291C263.078 203.977 262.864 204.643 262.497 205.226C262.177 205.709 261.716 206.082 261.175 206.295C260.592 206.518 259.971 206.629 259.345 206.621C258.669 206.621 257.997 206.509 257.358 206.289C256.693 206.051 256.083 205.684 255.563 205.208C254.965 204.651 254.467 203.997 254.09 203.273C253.609 202.358 253.26 201.38 253.055 200.367C252.815 199.418 252.724 198.438 252.786 197.462C252.82 196.779 253.02 196.115 253.371 195.526C253.689 195.045 254.148 194.672 254.686 194.457C255.273 194.229 255.898 194.117 256.528 194.126C257.201 194.127 257.87 194.243 258.504 194.469C259.174 194.7 259.789 195.066 260.31 195.544C260.909 196.101 261.409 196.756 261.789 197.479C262.267 198.396 262.615 199.373 262.824 200.385H262.847Z" fill="#6C8BB7"/>
<path d="M229.407 127.926C230.611 133.313 227.191 137.677 221.777 137.677C216.364 137.677 210.991 133.325 209.787 127.926C208.588 122.544 212.002 118.174 217.422 118.174C222.835 118.174 228.202 122.544 229.407 127.926Z" fill="#87A1CF"/>
<path d="M234.633 151.341C235.832 156.722 232.418 161.087 226.998 161.087C221.579 161.087 216.217 156.722 215.013 151.341C213.844 145.953 217.229 141.589 222.648 141.589C228.062 141.577 233.429 145.942 234.633 151.341Z" fill="#87A1CF"/>
<path d="M239.86 174.726C241.058 180.108 237.644 184.478 232.225 184.478C226.805 184.478 221.444 180.108 220.24 174.726C219.07 169.339 222.455 164.975 227.869 164.975C233.289 164.975 238.655 169.357 239.86 174.726Z" fill="#87A1CF"/>
<path d="M252.944 127.926C254.148 133.313 250.734 137.677 245.344 137.677C239.953 137.677 234.563 133.313 233.359 127.926C232.154 122.538 235.574 118.174 240.959 118.174C246.343 118.174 251.739 122.544 252.944 127.926Z" fill="#87A1CF"/>
<path d="M258.17 151.341C259.375 156.722 255.955 161.087 250.57 161.087C245.186 161.087 239.784 156.722 238.585 151.341C237.387 145.959 240.795 141.589 246.186 141.589C251.576 141.589 256.966 145.942 258.17 151.341Z" fill="#314E9E"/>
<path d="M263.397 174.726C264.601 180.108 261.181 184.478 255.797 184.478C250.412 184.478 245.01 180.108 243.812 174.726C242.613 169.345 246.022 164.975 251.412 164.975C256.802 164.975 262.193 169.357 263.397 174.726Z" fill="#87A1CF"/>
<path d="M276.487 127.926C277.685 133.313 274.271 137.677 268.852 137.677C263.438 137.677 258.071 133.313 256.867 127.926C255.668 122.544 259.082 118.174 264.496 118.174C269.916 118.174 275.282 122.544 276.487 127.926Z" fill="#87A1CF"/>
<path d="M281.708 151.341C282.912 156.722 279.498 161.087 274.107 161.087C268.694 161.087 263.327 156.722 262.122 151.341C260.918 145.953 264.338 141.589 269.723 141.589C275.142 141.589 280.509 145.953 281.708 151.341Z" fill="#87A1CF"/>
<path d="M286.934 174.726C288.138 180.108 284.724 184.478 279.334 184.478C273.92 184.478 268.553 180.108 267.349 174.726C266.145 169.339 269.565 164.975 274.949 164.975C280.369 164.975 285.736 169.339 286.934 174.726Z" fill="#87A1CF"/>
<path d="M222.795 134.01H220.339L218.17 124.276H216.948L216.405 121.841H220.053L222.795 134.01Z" fill="white"/>
<path d="M246.881 125.491C246.983 125.96 246.983 126.445 246.881 126.914C246.798 127.338 246.615 127.736 246.349 128.077C246.087 128.413 245.749 128.682 245.361 128.861C244.935 129.058 244.469 129.155 243.999 129.146H242.771C242.614 129.144 242.458 129.178 242.315 129.245C242.183 129.301 242.068 129.392 241.982 129.506C241.893 129.618 241.835 129.75 241.812 129.89C241.775 130.045 241.775 130.206 241.812 130.361L242.081 131.575H247.869L248.413 134.01H240.211L239.392 130.361C239.29 129.893 239.29 129.41 239.392 128.943C239.475 128.52 239.655 128.122 239.918 127.78C240.182 127.446 240.523 127.179 240.912 127.002C241.338 126.803 241.804 126.704 242.274 126.711H243.502C243.661 126.715 243.819 126.683 243.964 126.618C244.092 126.56 244.204 126.472 244.291 126.362C244.381 126.249 244.441 126.115 244.467 125.973C244.499 125.814 244.499 125.65 244.467 125.491C244.428 125.321 244.359 125.159 244.262 125.014C244.168 124.868 244.049 124.738 243.911 124.63C243.78 124.52 243.632 124.432 243.473 124.369C243.313 124.306 243.142 124.275 242.97 124.276H238.603L238.053 121.841H242.426C242.937 121.842 243.443 121.941 243.917 122.131C244.402 122.322 244.854 122.586 245.256 122.916C245.665 123.247 246.02 123.639 246.308 124.078C246.587 124.512 246.785 124.993 246.893 125.496L246.881 125.491Z" fill="white"/>
<path d="M271.5 130.361C271.611 130.826 271.621 131.309 271.529 131.779C271.441 132.202 271.257 132.599 270.991 132.941C270.729 133.277 270.391 133.546 270.003 133.726C269.579 133.922 269.115 134.019 268.647 134.01H263.742L263.198 131.575H268.097C268.256 131.579 268.414 131.548 268.559 131.482C268.687 131.424 268.799 131.336 268.887 131.227C268.975 131.112 269.035 130.979 269.062 130.837C269.094 130.68 269.094 130.518 269.062 130.361C269.025 130.193 268.958 130.033 268.863 129.89C268.768 129.744 268.65 129.614 268.512 129.506C268.382 129.392 268.232 129.303 268.068 129.245C267.91 129.181 267.742 129.147 267.571 129.146H264.233L263.689 126.711H267.028C267.185 126.715 267.341 126.683 267.484 126.618C267.614 126.563 267.727 126.475 267.811 126.362C267.901 126.249 267.961 126.115 267.986 125.973C268.018 125.814 268.018 125.65 267.986 125.491C267.947 125.322 267.88 125.161 267.788 125.014C267.69 124.87 267.571 124.741 267.437 124.63C267.304 124.52 267.154 124.432 266.992 124.369C266.834 124.307 266.666 124.275 266.496 124.276H261.561L261.018 121.841H265.923C266.433 121.843 266.939 121.942 267.413 122.131C267.896 122.322 268.346 122.587 268.746 122.916C269.155 123.247 269.51 123.639 269.799 124.078C270.08 124.511 270.278 124.992 270.383 125.496C270.483 125.925 270.499 126.369 270.43 126.804C270.363 127.207 270.209 127.592 269.98 127.931C270.354 128.27 270.675 128.661 270.933 129.094C271.183 129.493 271.365 129.931 271.471 130.39L271.5 130.361Z" fill="white"/>
<path d="M230.576 154.979H229.36L229.904 157.414H227.448L226.904 154.979H220.783L219.977 145.238H222.426L223.011 152.549H226.384L225.022 146.465H227.472L228.822 152.549H230.044L230.576 154.979Z" fill="white"/>
<path d="M253.254 153.584C253.385 154.109 253.401 154.656 253.3 155.188C253.21 155.631 253.009 156.045 252.716 156.391C252.431 156.725 252.067 156.985 251.658 157.146C251.215 157.329 250.74 157.42 250.26 157.414H245.326L244.782 154.979H249.717C249.88 154.979 250.042 154.951 250.196 154.897C250.349 154.855 250.487 154.77 250.594 154.653C250.709 154.534 250.788 154.385 250.822 154.223C250.871 154.013 250.871 153.794 250.822 153.584C250.773 153.375 250.684 153.177 250.559 153.003C250.446 152.833 250.304 152.685 250.138 152.567C249.984 152.453 249.812 152.364 249.629 152.305C249.462 152.245 249.286 152.213 249.109 152.212H244.174L243.338 145.238H250.892L251.441 147.673H246.086L246.332 149.766H248.565C249.081 149.767 249.593 149.855 250.079 150.027C250.585 150.203 251.057 150.462 251.476 150.794C251.912 151.132 252.29 151.538 252.593 151.997C252.914 152.48 253.14 153.018 253.26 153.584H253.254Z" fill="white"/>
<path d="M276.984 152.776C277.129 153.384 277.147 154.015 277.036 154.63C276.95 155.185 276.733 155.713 276.405 156.17C276.079 156.611 275.65 156.967 275.154 157.204C274.607 157.466 274.007 157.598 273.4 157.588C272.723 157.586 272.052 157.456 271.424 157.204C270.789 156.952 270.197 156.603 269.67 156.17C269.132 155.729 268.665 155.21 268.284 154.63C267.912 154.064 267.644 153.436 267.495 152.776C267.324 152.026 267.23 151.261 267.215 150.492C267.198 149.782 267.265 149.072 267.413 148.377C267.553 147.735 267.782 147.115 268.092 146.534C268.381 145.986 268.76 145.489 269.214 145.064H272.517C271.609 145.758 270.87 146.646 270.354 147.662C270.182 148.009 270.041 148.371 269.933 148.743C270.148 148.574 270.384 148.433 270.635 148.324C270.902 148.207 271.191 148.148 271.482 148.15C272.143 148.146 272.799 148.263 273.418 148.493C274.015 148.713 274.567 149.038 275.049 149.452C275.535 149.87 275.95 150.365 276.276 150.916C276.616 151.495 276.862 152.122 277.007 152.776H276.984ZM274.528 152.776C274.458 152.454 274.336 152.146 274.166 151.864C274.003 151.581 273.795 151.326 273.552 151.108C273.313 150.891 273.038 150.716 272.739 150.591C272.435 150.467 272.109 150.404 271.781 150.405C271.48 150.399 271.181 150.462 270.909 150.591C270.673 150.71 270.471 150.888 270.325 151.108C270.181 151.338 270.089 151.595 270.056 151.864C270.022 152.169 270.04 152.477 270.109 152.776C270.18 153.091 270.3 153.393 270.465 153.671C270.632 153.953 270.841 154.207 271.085 154.427C271.323 154.645 271.596 154.824 271.892 154.955C272.191 155.082 272.513 155.148 272.839 155.147C273.142 155.157 273.443 155.093 273.716 154.961C273.952 154.847 274.153 154.672 274.3 154.456C274.448 154.224 274.542 153.961 274.575 153.688C274.617 153.384 274.601 153.075 274.528 152.776Z" fill="white"/>
<path d="M232.979 168.642L231.511 180.811H228.892L230.155 171.1H224.946L224.402 168.665L232.979 168.642Z" fill="white"/>
<path d="M258.965 177.365C259.09 177.867 259.078 178.392 258.93 178.888C258.786 179.347 258.525 179.762 258.17 180.091C257.78 180.441 257.32 180.706 256.82 180.869C256.243 181.069 255.636 181.167 255.025 181.16C254.373 181.161 253.724 181.063 253.102 180.869C252.498 180.692 251.923 180.43 251.395 180.091C250.901 179.763 250.464 179.356 250.103 178.888C249.757 178.437 249.514 177.918 249.389 177.365C249.319 177.062 249.292 176.751 249.307 176.441C249.321 175.863 249.527 175.305 249.892 174.854C250.073 174.627 250.29 174.431 250.535 174.273C250.324 174.118 250.128 173.942 249.951 173.75C249.768 173.553 249.6 173.343 249.448 173.122C249.305 172.907 249.181 172.68 249.079 172.443C248.976 172.217 248.898 171.981 248.846 171.739C248.728 171.301 248.728 170.841 248.846 170.403C248.964 169.993 249.181 169.618 249.477 169.31C249.795 168.982 250.183 168.728 250.611 168.566C251.095 168.377 251.611 168.284 252.131 168.293C252.692 168.291 253.25 168.383 253.78 168.566C254.301 168.741 254.794 168.992 255.241 169.31C255.674 169.61 256.053 169.979 256.364 170.403C256.666 170.799 256.879 171.255 256.989 171.739C257.042 171.97 257.066 172.206 257.06 172.443C257.06 172.673 257.036 172.903 256.989 173.128C256.945 173.346 256.872 173.557 256.773 173.756C256.683 173.95 256.564 174.13 256.422 174.291C256.737 174.455 257.034 174.65 257.311 174.872C257.584 175.089 257.833 175.334 258.053 175.604C258.279 175.865 258.475 176.149 258.638 176.453C258.787 176.746 258.899 177.056 258.971 177.377L258.965 177.365ZM254.668 172.001C254.63 171.79 254.542 171.591 254.411 171.42C254.208 171.148 253.943 170.928 253.639 170.776C253.334 170.625 252.998 170.547 252.657 170.548C252.44 170.544 252.224 170.582 252.02 170.658C251.846 170.717 251.689 170.817 251.563 170.95C251.436 171.082 251.344 171.244 251.295 171.42C251.246 171.61 251.246 171.81 251.295 172.001C251.341 172.2 251.427 172.387 251.547 172.553C251.677 172.723 251.832 172.872 252.008 172.995C252.189 173.118 252.386 173.218 252.593 173.291C252.813 173.365 253.044 173.403 253.277 173.401C253.489 173.405 253.699 173.368 253.897 173.291C254.072 173.226 254.231 173.125 254.364 172.995C254.487 172.872 254.576 172.72 254.622 172.553C254.687 172.377 254.703 172.186 254.668 172.001ZM256.522 177.295C256.456 177.022 256.335 176.765 256.165 176.54C255.987 176.3 255.769 176.092 255.522 175.924C255.261 175.744 254.976 175.603 254.674 175.505C254.369 175.405 254.049 175.354 253.727 175.354C253.428 175.351 253.131 175.402 252.85 175.505C252.604 175.6 252.38 175.742 252.19 175.924C252.014 176.101 251.887 176.32 251.822 176.561C251.756 176.801 251.754 177.054 251.815 177.295C251.874 177.567 251.992 177.823 252.16 178.045C252.34 178.272 252.555 178.468 252.798 178.626C253.058 178.792 253.339 178.922 253.634 179.015C253.941 179.104 254.26 179.149 254.581 179.149C254.88 179.151 255.178 179.106 255.464 179.015C255.708 178.931 255.933 178.799 256.124 178.626C256.299 178.469 256.428 178.268 256.498 178.045C256.574 177.802 256.582 177.543 256.522 177.295Z" fill="white"/>
<path d="M281.561 173.285C281.736 174.048 281.828 174.827 281.836 175.61C281.85 176.317 281.781 177.023 281.632 177.714C281.493 178.352 281.265 178.969 280.953 179.544C280.665 180.094 280.286 180.591 279.831 181.015H276.528C276.829 180.792 277.11 180.546 277.37 180.277C277.906 179.728 278.353 179.101 278.697 178.417C278.87 178.074 279.013 177.716 279.123 177.348C278.905 177.516 278.668 177.658 278.416 177.772C278.151 177.888 277.864 177.945 277.574 177.94C276.91 177.947 276.25 177.833 275.627 177.603C275.034 177.376 274.483 177.052 273.996 176.644C273.51 176.225 273.097 175.728 272.774 175.174C272.436 174.596 272.192 173.968 272.049 173.314C271.904 172.705 271.882 172.073 271.985 171.455C272.081 170.903 272.298 170.379 272.622 169.92C272.946 169.477 273.374 169.118 273.868 168.874C274.416 168.617 275.016 168.488 275.622 168.496C276.296 168.499 276.965 168.627 277.592 168.874C278.228 169.13 278.819 169.483 279.346 169.92C279.883 170.358 280.348 170.875 280.725 171.455C281.102 172.021 281.372 172.651 281.52 173.314L281.561 173.285ZM278.942 173.285C278.869 172.97 278.747 172.668 278.58 172.39C278.403 172.104 278.185 171.845 277.931 171.623C277.69 171.404 277.413 171.227 277.112 171.1C276.814 170.969 276.491 170.902 276.165 170.902C275.863 170.892 275.563 170.961 275.294 171.1C275.059 171.216 274.857 171.39 274.71 171.606C274.558 171.832 274.464 172.091 274.435 172.361C274.395 172.67 274.413 172.983 274.487 173.285C274.559 173.607 274.679 173.917 274.844 174.203C275.007 174.484 275.215 174.737 275.458 174.953C275.694 175.165 275.965 175.336 276.259 175.459C276.562 175.585 276.889 175.648 277.218 175.645C277.519 175.654 277.818 175.59 278.089 175.459C278.325 175.344 278.526 175.17 278.673 174.953C278.822 174.728 278.916 174.471 278.948 174.203C278.992 173.898 278.978 173.586 278.907 173.285H278.942Z" fill="white"/>
<path d="M268.834 199.06C270.033 204.447 266.618 208.812 261.199 208.812C255.779 208.812 250.418 204.447 249.214 199.06C248.01 193.672 251.43 189.308 256.843 189.308C262.257 189.308 267.63 193.672 268.834 199.06Z" fill="#87A1CF"/>
<path d="M261.807 199.095C261.618 197.995 261.152 196.961 260.45 196.09C260.192 195.783 259.87 195.536 259.505 195.366C259.14 195.196 258.743 195.108 258.34 195.108C257.997 195.079 257.654 195.158 257.358 195.333C257.062 195.508 256.829 195.771 256.691 196.084C256.395 196.735 256.395 197.742 256.691 199.106C256.877 200.205 257.338 201.24 258.03 202.117C258.285 202.424 258.604 202.672 258.966 202.842C259.328 203.013 259.723 203.103 260.123 203.105C260.481 203.115 260.835 203.033 261.152 202.866C261.441 202.698 261.665 202.438 261.789 202.128C261.953 201.737 262.031 201.314 262.017 200.89C262.016 200.286 261.945 199.683 261.807 199.095ZM264.145 199.095C264.383 200.044 264.473 201.024 264.414 202C264.37 202.686 264.157 203.351 263.795 203.936C263.471 204.415 263.011 204.787 262.473 205.005C261.887 205.226 261.264 205.334 260.638 205.325C259.961 205.325 259.289 205.213 258.65 204.993C257.986 204.756 257.376 204.391 256.855 203.918C256.26 203.359 255.762 202.705 255.382 201.983C254.905 201.066 254.557 200.088 254.347 199.077C254.108 198.128 254.019 197.148 254.084 196.171C254.118 195.489 254.318 194.824 254.668 194.236C254.989 193.756 255.447 193.384 255.984 193.167C256.568 192.939 257.192 192.827 257.82 192.836C258.497 192.837 259.17 192.955 259.807 193.184C260.474 193.419 261.087 193.784 261.608 194.259C262.209 194.817 262.711 195.471 263.093 196.195C263.57 197.112 263.918 198.089 264.128 199.1L264.145 199.095Z" fill="white"/>
</g>
<g clip-path="url(#clip2_32_3468)">
<path d="M305.887 273.629C305.887 273.629 290.411 275.47 288.623 282.994H315.804C315.804 282.994 315.902 276.661 314.336 273.971C311.53 273.678 308.708 273.563 305.887 273.629Z" fill="#622600"/>
<path d="M289.883 280.955H315.688" stroke="#964727" stroke-linecap="round" stroke-linejoin="bevel"/>
<path d="M299.446 274.854C299.959 275.376 300.282 276.055 300.363 276.783" stroke="#964727" stroke-linecap="round" stroke-linejoin="bevel"/>
<path d="M300.798 274.407C301.307 274.931 301.628 275.61 301.709 276.336" stroke="#964727" stroke-linecap="round" stroke-linejoin="bevel"/>
<path d="M302.243 274.134C302.753 274.655 303.073 275.332 303.154 276.057" stroke="#964727" stroke-linecap="round" stroke-linejoin="bevel"/>
<path d="M352.89 181.513C352.89 181.513 353.157 184.784 352.762 185.132C351.949 186.264 351.292 187.498 350.806 188.804C350.307 190.117 348.485 192.842 349.269 193.859C350.052 194.876 351.392 193.673 352.141 191.535C351.897 195.311 352.06 200.447 353.11 200.778C354.16 201.11 354.578 196.369 354.851 195.201C355.124 194.033 354.659 200.912 355.431 201.65C356.203 202.388 357.056 199.762 357.352 195.468C357.735 194.306 357.352 200.046 358.362 200.29C359.371 200.534 359.389 196.468 359.487 195.108C359.586 193.749 359.905 197.897 360.427 198.42C360.95 198.943 361.698 198.362 361.861 196.613C362.023 194.864 362.017 189.194 361.449 187.695C361.153 186.849 360.711 186.063 360.143 185.371L359.772 181.17L352.89 181.513Z" fill="#FFC5B3"/>
<path d="M322.57 167.465L339.891 276.423C339.891 276.423 350.76 277.324 353.354 274.163C351.334 212.834 340.767 165.112 340.767 165.112L322.57 167.465Z" fill="#314E9E"/>
<path d="M312.781 163.194C312.781 163.194 306.664 217.354 306.432 220.41C306.2 223.466 305.492 274.163 305.492 274.163C305.492 274.163 314.417 277.678 318.839 276.336C320.179 260.353 322.361 229.596 323.591 226.952C324.821 224.309 332.208 171.648 332.208 171.648L312.781 163.194Z" fill="#314E9E"/>
<path d="M322.924 168.441V187.712H326.98V171.758" stroke="#103262" stroke-width="0.91" stroke-linecap="round" stroke-linejoin="bevel"/>
<path d="M326.063 187.712V197.107" stroke="#103262" stroke-width="0.91" stroke-linecap="round" stroke-linejoin="bevel"/>
<path d="M329.092 197.107L341.504 274.947" stroke="#103262" stroke-width="0.91" stroke-linecap="round" stroke-linejoin="bevel"/>
<path d="M322.924 197.101C322.924 197.101 319.767 221.781 318.833 231.437C317.899 241.093 316.674 274.64 316.674 274.64" stroke="#103262" stroke-width="0.91" stroke-linecap="round" stroke-linejoin="bevel"/>
<path d="M320.446 197.107H331.721" stroke="#100E00" stroke-width="0.91" stroke-linecap="round" stroke-linejoin="bevel"/>
<path d="M320.771 122.659C317.138 124.617 311.695 125.564 310.436 128.411C309.63 130.578 308.626 137.654 309.589 145.166C310.552 152.678 311.748 160.777 311.225 167.244C319.802 169.882 334.843 170.306 342.085 165.704C338.603 154.334 339.804 140.083 340.443 136.945C341.081 133.808 342.357 125.907 341.226 123.71C340.094 121.514 327.746 121.23 327.746 121.23L320.771 122.659Z" fill="#F2A112"/>
<path d="M308.243 107.971C307.045 106.071 306.649 103.773 307.14 101.581C307.14 98.6756 308.457 94.2194 314.754 92.5578C321.05 90.8961 324.984 93.4292 327.143 95.759C329.301 98.0888 329.214 99.059 331.321 100.628C333.427 102.196 335.626 105.752 333.967 109.674C332.307 113.595 333.456 115.704 335.499 115.263C331.437 119.98 321.137 121.933 318.496 122.316C315.856 122.699 306.537 121.038 308.243 107.971Z" fill="#622600"/>
<path d="M308.457 102.65C308.457 102.65 308.73 110.377 310.918 115.571C312.177 118.557 315.409 121.892 317.73 120.48C319.738 119.254 319.918 118.795 320.388 121.404C320.44 121.706 320.51 122.67 320.8 124.344C325.355 124.808 326.382 123.972 328.593 121.944C328.593 121.944 327.282 116.715 325.651 112.271C328.274 112.974 329.614 110.342 329.133 106.937C328.651 103.533 324.74 103.097 324.235 106.699C324.088 107.711 324.071 108.738 324.183 109.755C324.16 110.38 324.243 111.005 324.427 111.603C320.62 108.779 323.62 105.322 318.624 103.045C314.492 101.162 314.011 104.468 308.463 102.65H308.457Z" fill="#FFC5B3"/>
<path d="M323.597 114.943C323.081 116.28 320.411 118.633 319.378 119.516C319.854 119.376 320.057 119.736 320.289 120.887C323.353 119.266 323.597 114.943 323.597 114.943Z" fill="#FFA88D"/>
<path d="M327.584 106.188C327.463 106.077 327.319 105.994 327.163 105.945C327.006 105.895 326.841 105.882 326.679 105.904C326.516 105.926 326.361 105.984 326.223 106.073C326.086 106.162 325.97 106.281 325.883 106.42C325.141 107.478 325.378 110.307 326.388 110.836" stroke="#E2866D" stroke-width="0.7" stroke-linecap="round" stroke-linejoin="round"/>
<path d="M315.235 106.455C315.566 106.391 315.908 106.699 316.001 107.146C316.061 107.328 316.05 107.525 315.97 107.699C315.891 107.872 315.748 108.009 315.572 108.082C315.241 108.146 314.899 107.838 314.806 107.39C314.746 107.209 314.757 107.012 314.837 106.838C314.916 106.665 315.059 106.528 315.235 106.455Z" fill="#622600"/>
<path d="M310.616 107.286C310.947 107.222 311.283 107.53 311.376 107.977C311.469 108.425 311.278 108.849 310.947 108.913C310.616 108.976 310.28 108.669 310.187 108.221C310.124 108.04 310.134 107.841 310.214 107.667C310.294 107.493 310.438 107.356 310.616 107.286Z" fill="#622600"/>
<path d="M325.616 107.762C325.94 107.651 326.293 107.664 326.608 107.799C326.922 107.934 327.175 108.182 327.317 108.494" stroke="#E2866D" stroke-width="0.7" stroke-linecap="round" stroke-linejoin="round"/>
<path d="M311.962 109.924C311.962 109.924 311.22 112.195 312.165 112.939C312.294 113.04 312.441 113.115 312.598 113.159C312.756 113.202 312.92 113.214 313.082 113.194C313.244 113.173 313.4 113.121 313.542 113.039C313.683 112.957 313.807 112.848 313.906 112.718" stroke="#E2866D" stroke-width="0.7" stroke-linecap="round" stroke-linejoin="round"/>
<path d="M315.949 103.109C315.708 102.978 315.439 102.909 315.165 102.909C314.892 102.909 314.623 102.978 314.382 103.109C313.459 103.55 313.477 104.003 313.959 104.27C314.44 104.538 314.603 104.096 315.218 103.916C315.833 103.736 316.343 104.026 316.576 103.591C316.808 103.155 315.949 103.109 315.949 103.109Z" fill="#622600"/>
<path d="M309.015 104.753C309.162 104.521 309.364 104.33 309.603 104.196C309.842 104.062 310.11 103.99 310.384 103.986C311.405 103.904 311.614 104.305 311.318 104.764C311.022 105.223 310.68 104.939 310.053 105.09C309.427 105.241 309.136 105.746 308.713 105.485C308.289 105.223 309.015 104.753 309.015 104.753Z" fill="#622600"/>
<path d="M319.57 119.324C319.57 119.324 321.775 118.162 324.038 114.141" stroke="#E2866D" stroke-width="0.7" stroke-linecap="round" stroke-linejoin="round"/>
<path d="M314.138 114.752C314.765 114.316 315.368 113.847 315.943 113.346C316.57 114.507 314.783 115.484 314.783 115.484L314.138 114.752Z" fill="white"/>
<path d="M319.344 123.344C317.712 127.016 316.757 130.952 316.523 134.964C316.146 141.669 317.585 182.338 317.585 182.338L308.55 182.245C308.55 182.245 310.912 157.843 309.804 151.917C308.695 145.991 307.587 129.148 311.852 126.023C316.848 123.844 319.344 123.344 319.344 123.344Z" fill="#C5673C"/>
<path d="M330.224 121.067C330.224 121.067 328.669 133.483 329.202 138.839C329.736 144.196 333.183 182.413 333.183 182.413C333.183 182.413 344.342 183.575 348.433 181.484C345.352 171.607 340.599 142.825 340.924 140.088C341.249 137.352 341.742 124.832 341.081 122.206C337.51 121.459 333.872 121.078 330.224 121.067Z" fill="#C5673C"/>
<path d="M272.178 166.651C272.178 166.651 267.461 168.336 264.019 168.168C260.387 167.97 256.83 164.339 256.296 163.52C255.762 162.701 256.36 161.777 259.58 162.985C257.602 160.08 255.745 154.851 257.195 153.108C258.646 151.365 258.936 155.891 259.714 157.756C259.296 152.882 259.099 151.017 260.34 150.947C261.582 150.877 262.557 157.233 262.557 157.233C262.557 157.233 261.89 152.737 262.923 152.533C263.956 152.33 264.971 158.082 264.971 158.082C264.971 158.082 264.606 154.787 265.992 154.532C267.379 154.276 266.776 159.952 268.314 161.347C269.44 162.232 270.803 162.764 272.23 162.875L272.178 166.651Z" fill="#FFC5B3"/>
<path d="M271.36 166.826C270.141 167.075 267.153 168.632 263.602 168.284C260.387 167.97 256.72 164.595 256.296 163.526C255.872 162.456 256.876 162.067 259.377 163.02L259.58 162.991C259.58 162.991 257.161 159.296 256.928 156.937C256.696 154.578 256.662 153.219 257.509 152.87C258.356 152.522 261.077 160.487 261.077 160.487" stroke="#E2866D" stroke-width="0.7" stroke-linecap="round" stroke-linejoin="round"/>
<path d="M259.882 157.303C258.559 153.672 259.424 151.011 260.34 150.97C261.257 150.93 262.453 156.641 262.453 156.641" stroke="#E2866D" stroke-width="0.7" stroke-linecap="round" stroke-linejoin="round"/>
<path d="M262.273 155.688C262.163 153.033 262.052 152.626 262.923 152.556C263.793 152.487 264.739 156.937 264.739 156.937C264.891 158.023 265.212 159.077 265.691 160.063" stroke="#E2866D" stroke-width="0.7" stroke-linecap="round" stroke-linejoin="round"/>
<path d="M264.873 157.64C265.238 155.246 264.797 154.538 265.992 154.555C267.188 154.572 267.025 157.681 267.35 158.971C267.675 160.26 268.087 161.916 268.772 162.044" stroke="#E2866D" stroke-width="0.7" stroke-linecap="round" stroke-linejoin="round"/>
<path d="M312.781 125.726C310.628 126.034 307.854 129.334 305.341 131.769C302.829 134.203 289.622 146.293 289.622 146.293L268.314 159.18C268.314 159.18 267.623 165.849 273.066 168.295C286.697 163.189 295.378 159.528 297.571 158.029C299.765 156.53 311.701 149.495 311.765 148.606C311.829 147.717 311.37 128.033 311.37 128.033L312.781 125.726Z" fill="#C5673C"/>
<path d="M339.99 121.915C344.464 122.636 346.652 125.982 348.787 129.305C350.922 132.629 357.393 150.889 358.199 153.817C359.006 156.745 361.443 183.878 361.443 183.878C358.89 186.376 355.367 186.69 351.201 185.551C351.201 185.551 346.994 159.267 346.477 156.908C345.961 154.549 339.88 143.871 338.661 136.864C337.442 129.857 339.99 121.915 339.99 121.915Z" fill="#C5673C"/>
<path d="M311.736 127.801C311.736 127.801 307.094 138.293 309.415 148.827" stroke="#964727" stroke-linecap="round" stroke-linejoin="bevel"/>
<path d="M339.7 124.652C339.7 124.652 338 135.423 339.891 141.471" stroke="#964727" stroke-linecap="round" stroke-linejoin="bevel"/>
<path d="M332.046 123.42C332.046 123.42 336.421 140.791 336.375 143.662C336.353 144.494 336.102 145.305 335.651 146.005C335.199 146.705 334.565 147.267 333.816 147.63C333.816 147.63 336.642 147.543 335.916 151.418C335.191 155.293 333.433 161.55 333.433 161.55" stroke="#964727" stroke-linecap="round" stroke-linejoin="bevel"/>
<path d="M316.941 125.256C316.941 125.256 312.003 137.317 311.974 141.239C311.945 145.16 314.44 146.903 314.44 146.903C314.44 146.903 312.67 147.345 312.995 150.546C313.32 153.747 316.303 160.621 316.303 160.621" stroke="#964727" stroke-linecap="round" stroke-linejoin="bevel"/>
<path d="M347.557 156.403C347.557 156.403 349.878 153.207 353.853 154.125" stroke="#964727" stroke-linecap="round" stroke-linejoin="bevel"/>
<path d="M290.643 148.06C290.478 149.243 290.726 150.448 291.346 151.469C291.965 152.491 292.918 153.267 294.043 153.666" stroke="#964727" stroke-linecap="round" stroke-linejoin="bevel"/>
<path d="M344.98 274.541C344.98 274.541 341.197 276.795 341.864 282.849H357.81C357.81 282.849 359.696 278.875 353.168 273.396C350.392 272.737 347.47 273.145 344.98 274.541Z" fill="#622600"/>
<path d="M341.934 280.955H358.042" stroke="#964727" stroke-linecap="round" stroke-linejoin="bevel"/>
<path d="M346.28 275.104C346.28 275.104 349.762 273.164 352.663 274.767" stroke="#964727" stroke-linecap="round" stroke-linejoin="bevel"/>
<path d="M346.506 275.877C346.506 275.877 349.988 273.942 352.89 275.54" stroke="#964727" stroke-linecap="round" stroke-linejoin="bevel"/>
<path d="M346.628 276.574C346.628 276.574 350.11 274.634 353.011 276.237" stroke="#964727" stroke-linecap="round" stroke-linejoin="bevel"/>
<path d="M351.334 182.617C351.334 182.617 357.63 183.082 359.911 181.385" stroke="#964727" stroke-linecap="round" stroke-linejoin="bevel"/>
<path d="M271.697 158.157C271.697 158.157 272.201 162.869 275.724 165.96" stroke="#964727" stroke-linecap="round" stroke-linejoin="bevel"/>
<path d="M336.589 167.07L342.973 171.555L342.004 173.449L335.435 169.591L336.589 167.07Z" stroke="#964727" stroke-linecap="round" stroke-linejoin="bevel"/>
<path d="M313.349 168.394L314.672 171.398L310.367 174.431L310.1 171.932L313.349 168.394Z" stroke="#964727" stroke-linecap="round" stroke-linejoin="bevel"/>
</g>
<path d="M170.716 47.9817C169.182 47.9865 167.662 48.2439 166.227 48.7417C166.227 48.4917 166.227 48.2317 166.227 47.9817C166.222 43.3366 164.256 38.8731 160.74 35.5247C157.223 32.1762 152.429 30.2019 147.36 30.0146C142.291 29.8274 137.339 31.4417 133.539 34.5199C129.74 37.5982 127.387 41.902 126.973 46.5317C125.489 45.2296 123.69 44.2671 121.723 43.7227C119.756 43.1782 117.676 43.0672 115.652 43.3986C113.629 43.7301 111.72 44.4947 110.081 45.63C108.442 46.7653 107.12 48.2393 106.221 49.9317C104.977 47.4997 103.044 45.418 100.621 43.9039C98.1994 42.3897 95.3777 41.4987 92.451 41.3237C89.5244 41.1486 86.6001 41.6961 83.9834 42.909C81.3668 44.1218 79.1537 45.9556 77.5752 48.2187C75.9967 50.4819 75.1107 53.0915 75.0097 55.7752C74.9087 58.4588 75.5964 61.1181 77.001 63.4754C78.4055 65.8327 80.4755 67.8015 82.9948 69.1764C85.514 70.5513 88.3902 71.2818 91.3231 71.2917H170.76C172.463 71.3373 174.159 71.0697 175.747 70.5045C177.335 69.9393 178.783 69.0882 180.005 68.0014C181.228 66.9146 182.199 65.6143 182.863 64.1775C183.526 62.7407 183.868 61.1966 183.868 59.6367C183.868 58.0767 183.526 56.5326 182.863 55.0958C182.199 53.659 181.228 52.3587 180.005 51.2719C178.783 50.1852 177.335 49.334 175.747 48.7688C174.159 48.2036 172.463 47.936 170.76 47.9817H170.716Z" fill="url(#paint1_linear_32_3468)"/>
<path d="M255.33 13.5356C254.21 13.5325 253.099 13.719 252.053 14.0856C252.053 13.9056 252.053 13.7256 252.053 13.5356C252.205 10.0878 250.855 6.72588 248.3 4.18945C245.744 1.65302 242.193 0.149846 238.427 0.0106078C234.662 -0.128631 230.99 1.10747 228.219 3.44699C225.449 5.78651 223.807 9.03779 223.655 12.4856C222.582 11.5411 221.279 10.8426 219.854 10.4473C218.429 10.0519 216.922 9.97086 215.456 10.2108C213.991 10.4507 212.608 11.0048 211.421 11.8277C210.234 12.6506 209.276 13.719 208.626 14.9456C207.73 13.1726 206.328 11.6538 204.568 10.5491C202.808 9.44451 200.756 8.795 198.626 8.66905C196.497 8.5431 194.37 8.94538 192.469 9.8335C190.569 10.7216 188.965 12.0627 187.827 13.7154C186.689 15.368 186.059 17.2712 186.004 19.2241C185.949 21.1771 186.47 23.1076 187.512 24.8122C188.554 26.5168 190.08 27.9324 191.927 28.9097C193.775 29.8871 195.876 30.3901 198.01 30.3656H255.362C256.596 30.4046 257.826 30.2157 258.978 29.8104C260.13 29.405 261.181 28.7914 262.069 28.0062C262.957 27.2209 263.663 26.2801 264.145 25.2397C264.627 24.1993 264.876 23.0808 264.876 21.9506C264.876 20.8205 264.627 19.7019 264.145 18.6615C263.663 17.6212 262.957 16.6803 262.069 15.8951C261.181 15.1098 260.13 14.4962 258.978 14.0909C257.826 13.6855 256.596 13.4967 255.362 13.5356H255.33Z" fill="url(#paint2_linear_32_3468)"/>
<defs>
<linearGradient id="paint0_linear_32_3468" x1="8.10126" y1="136.673" x2="398.254" y2="225.912" gradientUnits="userSpaceOnUse">
<stop stop-color="#F7FAFF"/>
<stop offset="1" stop-color="#EFF5FF"/>
</linearGradient>
<linearGradient id="paint1_linear_32_3468" x1="74.8415" y1="50.6317" x2="183.452" y2="50.6317" gradientUnits="userSpaceOnUse">
<stop stop-color="#EFF5FF"/>
<stop offset="1" stop-color="#EFF5FF"/>
</linearGradient>
<linearGradient id="paint2_linear_32_3468" x1="186.105" y1="15.4556" x2="264.526" y2="15.4556" gradientUnits="userSpaceOnUse">
<stop stop-color="#EFF5FF"/>
<stop offset="1" stop-color="#EFF5FF"/>
</linearGradient>
<clipPath id="clip0_32_3468">
<rect width="173" height="66" fill="white" transform="translate(83 120)"/>
</clipPath>
<clipPath id="clip1_32_3468">
<rect width="123" height="130" fill="white" transform="translate(179 102)"/>
</clipPath>
<clipPath id="clip2_32_3468">
<rect width="106" height="191" fill="white" transform="translate(256 92)"/>
</clipPath>
</defs>
</svg>
