<svg width="318" height="227" viewBox="0 0 318 227" fill="none" xmlns="http://www.w3.org/2000/svg">
<path d="M270.822 177.789C242.816 231.222 183.333 211.253 114.27 189.639C45.2061 168.024 -0.518582 132.632 31.4376 80.5473C54.8657 42.3254 101.437 62.4094 148.21 45.3905C183.314 32.6034 190.321 6.17011 232.561 5.33627C316.896 3.6795 298.819 124.365 270.822 177.789Z" fill="url(#paint0_linear_43_4725)" fill-opacity="0.83"/>
<path d="M197.071 75.2956L165.904 63.6223C162.674 62.4323 157.404 62.4323 154.174 63.6223L123.008 75.2956C117.001 77.5623 112.128 84.589 112.128 90.9923V136.892C112.128 141.482 115.131 147.546 118.814 150.266L149.981 173.556C155.478 177.692 164.488 177.692 169.984 173.556L201.151 150.266C204.834 147.489 207.838 141.482 207.838 136.892V90.9923C207.894 84.589 203.021 77.5623 197.071 75.2956ZM179.731 107.029L155.364 131.396C154.514 132.246 153.438 132.642 152.361 132.642C151.284 132.642 150.208 132.246 149.358 131.396L140.291 122.216C139.501 121.416 139.057 120.337 139.057 119.212C139.057 118.088 139.501 117.009 140.291 116.209C141.934 114.566 144.654 114.566 146.298 116.209L152.418 122.329L173.781 100.966C175.424 99.3223 178.144 99.3223 179.788 100.966C181.431 102.609 181.431 105.386 179.731 107.029Z" fill="url(#paint1_linear_43_4725)"/>
<ellipse cx="237.511" cy="103.949" rx="12.5" ry="13" fill="#B9D7FA"/>
<circle cx="253.511" cy="166.449" r="4.5" fill="#97C7FF"/>
<circle cx="75.011" cy="122.949" r="7.5" stroke="#A8BBFF" stroke-width="3"/>
<circle cx="238.011" cy="161.949" r="7.5" stroke="#A8BBFF" stroke-width="3"/>
<circle cx="83.511" cy="146.449" r="5" stroke="#A8BBFF" stroke-width="3"/>
<circle cx="253.511" cy="83.449" r="5.5" fill="#ADD2FF"/>
<path d="M108.011 58.949V40.949M114.011 49.949H117.011M99.011 49.949H107.501" stroke="#E1EDFF" stroke-width="5" stroke-linecap="round" stroke-linejoin="round"/>
<defs>
<linearGradient id="paint0_linear_43_4725" x1="23.461" y1="97.3172" x2="305.11" y2="139.53" gradientUnits="userSpaceOnUse">
<stop stop-color="#F7FAFF"/>
<stop offset="1" stop-color="#EFF5FF"/>
</linearGradient>
<linearGradient id="paint1_linear_43_4725" x1="159.983" y1="62.7298" x2="159.983" y2="176.658" gradientUnits="userSpaceOnUse">
<stop stop-color="#8894FF"/>
<stop offset="1" stop-color="#5364FF"/>
</linearGradient>
</defs>
</svg>
