<svg width="428" height="333" viewBox="0 0 428 333" fill="none" xmlns="http://www.w3.org/2000/svg">
<path d="M377.728 254.643C336.105 321.11 231.34 346.805 143.772 312.036C56.2043 277.268 -6.81283 204.769 39.8081 140.436C73.9909 93.2232 132.499 123.804 194.915 106.345C241.761 93.2232 253.46 59.6709 308.398 62.7319C418.086 68.8541 419.339 188.187 377.728 254.643Z" fill="url(#paint0_linear_20_3274)"/>
<path d="M179.368 45.4456C177.834 45.4504 176.314 45.7078 174.879 46.2056C174.879 45.9556 174.879 45.6956 174.879 45.4456C174.874 40.8005 172.908 36.3371 169.391 32.9886C165.875 29.6401 161.081 27.6658 156.012 27.4786C150.942 27.2913 145.99 28.9056 142.191 31.9838C138.391 35.0621 136.039 39.366 135.625 43.9956C134.141 42.6936 132.342 41.7311 130.375 41.1866C128.407 40.6421 126.327 40.5311 124.304 40.8626C122.281 41.194 120.372 41.9586 118.733 43.0939C117.094 44.2293 115.771 45.7032 114.873 47.3956C113.629 44.9637 111.695 42.882 109.273 41.3678C106.851 39.8537 104.029 38.9626 101.103 38.7876C98.176 38.6126 95.2517 39.1601 92.635 40.3729C90.0184 41.5858 87.8053 43.4195 86.2268 45.6827C84.6483 47.9458 83.7623 50.5554 83.6613 53.2391C83.5603 55.9227 84.248 58.582 85.6526 60.9393C87.0572 63.2966 89.1271 65.2654 91.6464 66.6403C94.1657 68.0152 97.0418 68.7457 99.9747 68.7556H179.412C181.115 68.8013 182.811 68.5336 184.399 67.9684C185.987 67.4033 187.435 66.5521 188.657 65.4653C189.879 64.3785 190.851 63.0782 191.515 61.6414C192.178 60.2046 192.52 58.6605 192.52 57.1006C192.52 55.5406 192.178 53.9965 191.515 52.5597C190.851 51.1229 189.879 49.8227 188.657 48.7359C187.435 47.6491 185.987 46.7979 184.399 46.2327C182.811 45.6676 181.115 45.3999 179.412 45.4456H179.368Z" fill="url(#paint1_linear_20_3274)"/>
<path d="M365.33 13.5356C364.21 13.5325 363.099 13.719 362.053 14.0856C362.053 13.9056 362.053 13.7256 362.053 13.5356C362.205 10.0878 360.855 6.72588 358.3 4.18945C355.744 1.65302 352.193 0.149846 348.427 0.0106078C344.662 -0.128631 340.99 1.10747 338.219 3.44699C335.449 5.78651 333.807 9.03779 333.655 12.4856C332.582 11.5411 331.279 10.8426 329.854 10.4473C328.429 10.0519 326.922 9.97086 325.456 10.2108C323.991 10.4507 322.608 11.0048 321.421 11.8277C320.234 12.6506 319.276 13.719 318.626 14.9456C317.73 13.1726 316.328 11.6538 314.568 10.5491C312.808 9.44451 310.756 8.795 308.626 8.66905C306.497 8.5431 304.37 8.94538 302.469 9.8335C300.569 10.7216 298.965 12.0627 297.827 13.7154C296.689 15.368 296.059 17.2712 296.004 19.2241C295.949 21.1771 296.47 23.1076 297.512 24.8122C298.554 26.5168 300.08 27.9324 301.927 28.9097C303.775 29.8871 305.876 30.3901 308.01 30.3656H365.362C366.596 30.4046 367.826 30.2157 368.978 29.8104C370.13 29.405 371.181 28.7914 372.069 28.0062C372.957 27.2209 373.663 26.2801 374.145 25.2397C374.627 24.1993 374.876 23.0808 374.876 21.9506C374.876 20.8205 374.627 19.7019 374.145 18.6615C373.663 17.6212 372.957 16.6803 372.069 15.8951C371.181 15.1098 370.13 14.4962 368.978 14.0909C367.826 13.6855 366.596 13.4967 365.362 13.5356H365.33Z" fill="url(#paint2_linear_20_3274)"/>
<g clip-path="url(#clip0_20_3274)">
<path d="M283.17 137.94C283.152 136.62 282.619 135.358 281.685 134.424C280.752 133.491 279.49 132.958 278.17 132.94C265.17 132.66 230.94 131.83 197.52 111.59L197.43 111.51C228.31 132.87 260.43 135.45 273.01 136.28C274.325 136.372 275.552 136.971 276.434 137.95C277.317 138.93 277.785 140.213 277.74 141.53C274.74 234.89 229.81 262.93 207.59 271.11C231.93 262.58 283.83 233.28 283.17 137.94Z" fill="#71B5D3"/>
<path d="M192.75 111.79C162.4 131.79 129.56 135.55 117.59 136.25C116.325 136.322 115.137 136.885 114.28 137.819C113.423 138.752 112.964 139.983 113 141.25C116.66 258.83 186.84 272.98 194.68 274.25C195.154 274.32 195.636 274.32 196.11 274.25C203.95 273.03 274.11 258.88 277.79 141.25C277.826 139.983 277.367 138.752 276.51 137.819C275.652 136.885 274.465 136.322 273.2 136.25C261.2 135.55 228.39 131.81 198.04 111.79C197.255 111.272 196.335 110.995 195.395 110.995C194.454 110.995 193.535 111.272 192.75 111.79Z" fill="url(#paint3_linear_20_3274)"/>
<path d="M192.63 122.99C166.63 140.13 138.63 143.71 127.48 144.46C126.126 144.552 124.865 145.178 123.972 146.2C123.08 147.222 122.629 148.556 122.72 149.91C129.22 248.23 186.12 263.05 194.58 264.72C195.273 264.86 195.987 264.86 196.68 264.72C205.26 262.85 263.8 246.58 268.19 149.83C268.251 148.493 267.785 147.186 266.894 146.188C266.002 145.189 264.755 144.58 263.42 144.49C252.3 143.76 224.25 140.2 198.16 123.01C197.342 122.463 196.382 122.169 195.398 122.166C194.414 122.162 193.451 122.449 192.63 122.99Z" fill="url(#paint4_linear_20_3274)"/>
<path d="M143.64 225.15C147.146 230.968 151.237 236.413 155.85 241.4L212.04 130.86C208.217 129.003 204.492 126.95 200.88 124.71L143.64 225.15Z" fill="url(#paint5_linear_20_3274)"/>
<path d="M129.39 191.23C131.027 197.168 133.031 203 135.39 208.69L178.06 131.21C172.236 133.992 166.22 136.354 160.06 138.28L129.39 191.23Z" fill="url(#paint6_linear_20_3274)"/>
</g>
<g clip-path="url(#clip1_20_3274)">
<path d="M205.19 181H108.82C106.71 181 105 182.71 105 184.82V203.22C105 205.33 106.71 207.04 108.82 207.04H205.19C207.3 207.04 209.01 205.33 209.01 203.22V184.82C209.01 182.71 207.3 181 205.19 181Z" fill="url(#paint7_linear_20_3274)"/>
<path d="M207.94 181H205.31C206.286 181 207.222 181.388 207.912 182.078C208.602 182.768 208.99 183.704 208.99 184.68V203.36C208.99 204.336 208.602 205.272 207.912 205.962C207.222 206.652 206.286 207.04 205.31 207.04H207.94C208.916 207.04 209.852 206.652 210.542 205.962C211.232 205.272 211.62 204.336 211.62 203.36V184.68C211.62 183.704 211.232 182.768 210.542 182.078C209.852 181.388 208.916 181 207.94 181Z" fill="#7EBDE0"/>
<path d="M131.36 193.14H130.77C130.597 193.139 130.427 193.087 130.284 192.99C130.14 192.894 130.028 192.756 129.961 192.596C129.895 192.436 129.878 192.26 129.911 192.09C129.945 191.919 130.028 191.763 130.15 191.64L130.57 191.22C130.734 191.055 130.826 190.832 130.826 190.6C130.826 190.368 130.734 190.145 130.57 189.98C130.405 189.816 130.182 189.724 129.95 189.724C129.718 189.724 129.495 189.816 129.33 189.98L128.91 190.4C128.787 190.522 128.631 190.605 128.46 190.639C128.29 190.672 128.114 190.655 127.954 190.589C127.794 190.523 127.657 190.41 127.56 190.267C127.463 190.123 127.411 189.953 127.41 189.78V189.19C127.41 188.957 127.317 188.733 127.152 188.568C126.987 188.403 126.763 188.31 126.53 188.31C126.414 188.309 126.299 188.33 126.192 188.374C126.084 188.418 125.987 188.483 125.905 188.565C125.823 188.647 125.758 188.744 125.714 188.852C125.671 188.959 125.649 189.074 125.65 189.19V189.78C125.649 189.953 125.597 190.123 125.5 190.267C125.404 190.41 125.266 190.523 125.106 190.589C124.946 190.655 124.77 190.672 124.6 190.639C124.43 190.605 124.273 190.522 124.15 190.4L123.73 189.98C123.565 189.816 123.342 189.724 123.11 189.724C122.878 189.724 122.655 189.816 122.49 189.98C122.407 190.06 122.34 190.157 122.295 190.263C122.249 190.37 122.226 190.484 122.226 190.6C122.226 190.716 122.249 190.83 122.295 190.937C122.34 191.043 122.407 191.14 122.49 191.22L122.91 191.64C123.033 191.764 123.116 191.921 123.149 192.092C123.183 192.263 123.164 192.44 123.097 192.601C123.029 192.761 122.916 192.898 122.77 192.994C122.625 193.09 122.454 193.141 122.28 193.14H121.69C121.457 193.143 121.235 193.236 121.071 193.401C120.906 193.565 120.813 193.787 120.81 194.02C120.81 194.253 120.903 194.477 121.068 194.642C121.233 194.807 121.457 194.9 121.69 194.9H122.28C122.454 194.899 122.625 194.95 122.77 195.046C122.916 195.142 123.029 195.279 123.097 195.439C123.164 195.6 123.183 195.777 123.149 195.948C123.116 196.119 123.033 196.276 122.91 196.4L122.49 196.82C122.407 196.9 122.34 196.997 122.295 197.103C122.249 197.21 122.226 197.324 122.226 197.44C122.226 197.556 122.249 197.67 122.295 197.777C122.34 197.883 122.407 197.98 122.49 198.06C122.57 198.143 122.667 198.21 122.773 198.255C122.88 198.301 122.994 198.324 123.11 198.324C123.226 198.324 123.34 198.301 123.447 198.255C123.554 198.21 123.65 198.143 123.73 198.06L124.15 197.64C124.274 197.517 124.431 197.434 124.602 197.401C124.773 197.367 124.95 197.386 125.111 197.453C125.271 197.521 125.409 197.634 125.505 197.78C125.6 197.925 125.651 198.096 125.65 198.27V198.86C125.65 199.093 125.743 199.317 125.908 199.482C126.073 199.647 126.297 199.74 126.53 199.74C126.763 199.737 126.985 199.644 127.149 199.479C127.314 199.315 127.407 199.093 127.41 198.86V198.27C127.409 198.096 127.46 197.925 127.556 197.78C127.652 197.634 127.789 197.521 127.949 197.453C128.11 197.386 128.287 197.367 128.458 197.401C128.629 197.434 128.786 197.517 128.91 197.64L129.33 198.06C129.41 198.143 129.507 198.21 129.613 198.255C129.72 198.301 129.834 198.324 129.95 198.324C130.066 198.324 130.18 198.301 130.287 198.255C130.394 198.21 130.49 198.143 130.57 198.06C130.734 197.895 130.826 197.672 130.826 197.44C130.826 197.208 130.734 196.985 130.57 196.82L130.15 196.4C130.028 196.277 129.945 196.121 129.911 195.95C129.878 195.78 129.895 195.604 129.961 195.444C130.028 195.284 130.14 195.146 130.284 195.05C130.427 194.953 130.597 194.901 130.77 194.9H131.36C131.476 194.901 131.591 194.879 131.698 194.836C131.806 194.792 131.903 194.727 131.985 194.645C132.067 194.563 132.132 194.466 132.176 194.358C132.22 194.251 132.241 194.136 132.24 194.02C132.24 193.787 132.147 193.563 131.982 193.398C131.817 193.233 131.593 193.14 131.36 193.14Z" fill="url(#paint8_linear_20_3274)"/>
<path d="M146.42 193.14H145.82C145.647 193.139 145.477 193.087 145.333 192.99C145.19 192.894 145.077 192.756 145.011 192.596C144.945 192.436 144.928 192.26 144.961 192.09C144.995 191.919 145.078 191.763 145.2 191.64L145.62 191.22C145.784 191.055 145.875 190.832 145.875 190.6C145.875 190.368 145.784 190.145 145.62 189.98C145.455 189.816 145.232 189.724 145 189.724C144.768 189.724 144.545 189.816 144.38 189.98L143.96 190.4C143.837 190.522 143.681 190.605 143.51 190.639C143.34 190.672 143.164 190.655 143.004 190.589C142.844 190.523 142.706 190.41 142.61 190.267C142.513 190.123 142.461 189.953 142.46 189.78V189.19C142.46 188.957 142.367 188.733 142.202 188.568C142.037 188.403 141.813 188.31 141.58 188.31C141.464 188.309 141.349 188.33 141.242 188.374C141.134 188.418 141.037 188.483 140.955 188.565C140.873 188.647 140.808 188.744 140.764 188.852C140.72 188.959 140.699 189.074 140.7 189.19V189.78C140.699 189.953 140.647 190.123 140.55 190.267C140.453 190.41 140.316 190.523 140.156 190.589C139.996 190.655 139.82 190.672 139.65 190.639C139.479 190.605 139.323 190.522 139.2 190.4L138.78 189.98C138.615 189.816 138.392 189.724 138.16 189.724C137.928 189.724 137.705 189.816 137.54 189.98C137.376 190.145 137.284 190.368 137.284 190.6C137.284 190.832 137.376 191.055 137.54 191.22L137.96 191.64C138.082 191.763 138.165 191.919 138.199 192.09C138.232 192.26 138.215 192.436 138.149 192.596C138.083 192.756 137.97 192.894 137.827 192.99C137.683 193.087 137.513 193.139 137.34 193.14H136.74C136.507 193.143 136.285 193.236 136.121 193.401C135.956 193.565 135.863 193.787 135.86 194.02C135.86 194.253 135.953 194.477 136.118 194.642C136.283 194.807 136.507 194.9 136.74 194.9H137.34C137.513 194.901 137.683 194.953 137.827 195.05C137.97 195.146 138.083 195.284 138.149 195.444C138.215 195.604 138.232 195.78 138.199 195.95C138.165 196.121 138.082 196.277 137.96 196.4L137.54 196.82C137.376 196.985 137.284 197.208 137.284 197.44C137.284 197.672 137.376 197.895 137.54 198.06C137.62 198.143 137.717 198.21 137.823 198.255C137.93 198.301 138.044 198.324 138.16 198.324C138.276 198.324 138.39 198.301 138.497 198.255C138.603 198.21 138.7 198.143 138.78 198.06L139.2 197.64C139.324 197.517 139.481 197.434 139.652 197.401C139.823 197.367 140 197.386 140.161 197.453C140.321 197.521 140.458 197.634 140.554 197.78C140.65 197.925 140.701 198.096 140.7 198.27V198.86C140.7 199.093 140.793 199.317 140.958 199.482C141.123 199.647 141.347 199.74 141.58 199.74C141.813 199.737 142.035 199.644 142.199 199.479C142.364 199.315 142.457 199.093 142.46 198.86V198.27C142.459 198.096 142.51 197.925 142.606 197.78C142.702 197.634 142.839 197.521 142.999 197.453C143.16 197.386 143.337 197.367 143.508 197.401C143.679 197.434 143.836 197.517 143.96 197.64L144.38 198.06C144.46 198.143 144.557 198.21 144.663 198.255C144.77 198.301 144.884 198.324 145 198.324C145.116 198.324 145.23 198.301 145.337 198.255C145.443 198.21 145.54 198.143 145.62 198.06C145.784 197.895 145.875 197.672 145.875 197.44C145.875 197.208 145.784 196.985 145.62 196.82L145.2 196.4C145.078 196.277 144.995 196.121 144.961 195.95C144.928 195.78 144.945 195.604 145.011 195.444C145.077 195.284 145.19 195.146 145.333 195.05C145.477 194.953 145.647 194.901 145.82 194.9H146.42C146.535 194.9 146.649 194.877 146.755 194.833C146.861 194.788 146.958 194.723 147.039 194.642C147.12 194.56 147.184 194.463 147.227 194.356C147.27 194.249 147.291 194.135 147.29 194.02C147.29 193.788 147.199 193.566 147.036 193.401C146.873 193.237 146.652 193.143 146.42 193.14Z" fill="url(#paint9_linear_20_3274)"/>
<path d="M162.23 193.14H161.63C161.457 193.139 161.287 193.087 161.143 192.99C161 192.894 160.887 192.756 160.821 192.596C160.755 192.436 160.738 192.26 160.771 192.09C160.805 191.919 160.888 191.763 161.01 191.64L161.43 191.22C161.594 191.055 161.686 190.832 161.686 190.6C161.686 190.368 161.594 190.145 161.43 189.98C161.265 189.816 161.042 189.724 160.81 189.724C160.578 189.724 160.355 189.816 160.19 189.98L159.77 190.4C159.647 190.522 159.491 190.605 159.32 190.639C159.15 190.672 158.974 190.655 158.814 190.589C158.654 190.523 158.517 190.41 158.42 190.267C158.323 190.123 158.271 189.953 158.27 189.78V189.19C158.27 188.957 158.177 188.733 158.012 188.568C157.847 188.403 157.623 188.31 157.39 188.31C157.274 188.309 157.159 188.33 157.052 188.374C156.944 188.418 156.847 188.483 156.765 188.565C156.683 188.647 156.618 188.744 156.574 188.852C156.531 188.959 156.509 189.074 156.51 189.19V189.78C156.509 189.953 156.457 190.123 156.36 190.267C156.264 190.41 156.126 190.523 155.966 190.589C155.806 190.655 155.63 190.672 155.46 190.639C155.289 190.605 155.133 190.522 155.01 190.4L154.59 189.98C154.425 189.816 154.202 189.724 153.97 189.724C153.738 189.724 153.515 189.816 153.35 189.98C153.267 190.06 153.2 190.157 153.155 190.263C153.109 190.37 153.086 190.484 153.086 190.6C153.086 190.716 153.109 190.83 153.155 190.937C153.2 191.043 153.267 191.14 153.35 191.22L153.77 191.64C153.892 191.763 153.975 191.919 154.009 192.09C154.042 192.26 154.025 192.436 153.959 192.596C153.893 192.756 153.78 192.894 153.637 192.99C153.493 193.087 153.323 193.139 153.15 193.14H152.55C152.317 193.143 152.095 193.236 151.931 193.401C151.766 193.565 151.673 193.787 151.67 194.02C151.67 194.253 151.763 194.477 151.928 194.642C152.093 194.807 152.317 194.9 152.55 194.9H153.15C153.323 194.901 153.493 194.953 153.637 195.05C153.78 195.146 153.893 195.284 153.959 195.444C154.025 195.604 154.042 195.78 154.009 195.95C153.975 196.121 153.892 196.277 153.77 196.4L153.35 196.82C153.267 196.9 153.2 196.997 153.155 197.103C153.109 197.21 153.086 197.324 153.086 197.44C153.086 197.556 153.109 197.67 153.155 197.777C153.2 197.883 153.267 197.98 153.35 198.06C153.43 198.143 153.527 198.21 153.633 198.255C153.74 198.301 153.854 198.324 153.97 198.324C154.086 198.324 154.2 198.301 154.307 198.255C154.414 198.21 154.51 198.143 154.59 198.06L155.01 197.64C155.134 197.517 155.291 197.434 155.462 197.401C155.633 197.367 155.81 197.386 155.971 197.453C156.131 197.521 156.268 197.634 156.364 197.78C156.46 197.925 156.511 198.096 156.51 198.27V198.86C156.51 199.093 156.603 199.317 156.768 199.482C156.933 199.647 157.157 199.74 157.39 199.74C157.623 199.737 157.845 199.644 158.009 199.479C158.174 199.315 158.267 199.093 158.27 198.86V198.27C158.269 198.096 158.32 197.925 158.416 197.78C158.512 197.634 158.649 197.521 158.809 197.453C158.97 197.386 159.147 197.367 159.318 197.401C159.489 197.434 159.646 197.517 159.77 197.64L160.19 198.06C160.27 198.143 160.367 198.21 160.473 198.255C160.58 198.301 160.694 198.324 160.81 198.324C160.926 198.324 161.04 198.301 161.147 198.255C161.254 198.21 161.35 198.143 161.43 198.06C161.594 197.895 161.686 197.672 161.686 197.44C161.686 197.208 161.594 196.985 161.43 196.82L161.01 196.4C160.888 196.277 160.805 196.121 160.771 195.95C160.738 195.78 160.755 195.604 160.821 195.444C160.887 195.284 161 195.146 161.143 195.05C161.287 194.953 161.457 194.901 161.63 194.9H162.23C162.345 194.9 162.459 194.877 162.565 194.833C162.672 194.788 162.768 194.723 162.849 194.642C162.93 194.56 162.994 194.463 163.037 194.356C163.08 194.249 163.101 194.135 163.1 194.02C163.1 193.788 163.009 193.566 162.846 193.401C162.683 193.237 162.462 193.143 162.23 193.14Z" fill="url(#paint10_linear_20_3274)"/>
<path d="M178.01 193.14H177.42C177.247 193.139 177.077 193.087 176.933 192.99C176.79 192.894 176.677 192.756 176.611 192.596C176.545 192.436 176.528 192.26 176.561 192.09C176.595 191.919 176.678 191.763 176.8 191.64L177.22 191.22C177.384 191.055 177.475 190.832 177.475 190.6C177.475 190.368 177.384 190.145 177.22 189.98C177.055 189.816 176.832 189.724 176.6 189.724C176.368 189.724 176.145 189.816 175.98 189.98L175.56 190.4C175.437 190.522 175.281 190.605 175.11 190.639C174.94 190.672 174.764 190.655 174.604 190.589C174.444 190.523 174.306 190.41 174.21 190.267C174.113 190.123 174.061 189.953 174.06 189.78V189.19C174.06 188.957 173.967 188.733 173.802 188.568C173.637 188.403 173.413 188.31 173.18 188.31C173.064 188.309 172.949 188.33 172.842 188.374C172.734 188.418 172.637 188.483 172.555 188.565C172.473 188.647 172.408 188.744 172.364 188.852C172.32 188.959 172.299 189.074 172.3 189.19V189.78C172.299 189.953 172.247 190.123 172.15 190.267C172.053 190.41 171.916 190.523 171.756 190.589C171.596 190.655 171.42 190.672 171.25 190.639C171.079 190.605 170.923 190.522 170.8 190.4L170.38 189.98C170.215 189.816 169.992 189.724 169.76 189.724C169.528 189.724 169.305 189.816 169.14 189.98C169.056 190.06 168.99 190.157 168.945 190.263C168.899 190.37 168.876 190.484 168.876 190.6C168.876 190.716 168.899 190.83 168.945 190.937C168.99 191.043 169.056 191.14 169.14 191.22L169.56 191.64C169.682 191.763 169.765 191.919 169.799 192.09C169.832 192.26 169.815 192.436 169.749 192.596C169.683 192.756 169.57 192.894 169.427 192.99C169.283 193.087 169.113 193.139 168.94 193.14H168.34C168.107 193.143 167.885 193.236 167.721 193.401C167.556 193.565 167.463 193.787 167.46 194.02C167.46 194.253 167.553 194.477 167.718 194.642C167.883 194.807 168.107 194.9 168.34 194.9H168.94C169.113 194.901 169.283 194.953 169.427 195.05C169.57 195.146 169.683 195.284 169.749 195.444C169.815 195.604 169.832 195.78 169.799 195.95C169.765 196.121 169.682 196.277 169.56 196.4L169.14 196.82C169.056 196.9 168.99 196.997 168.945 197.103C168.899 197.21 168.876 197.324 168.876 197.44C168.876 197.556 168.899 197.67 168.945 197.777C168.99 197.883 169.056 197.98 169.14 198.06C169.22 198.143 169.316 198.21 169.423 198.255C169.53 198.301 169.644 198.324 169.76 198.324C169.876 198.324 169.99 198.301 170.097 198.255C170.203 198.21 170.3 198.143 170.38 198.06L170.8 197.64C170.924 197.517 171.081 197.434 171.252 197.401C171.423 197.367 171.6 197.386 171.761 197.453C171.921 197.521 172.058 197.634 172.154 197.78C172.25 197.925 172.301 198.096 172.3 198.27V198.86C172.3 199.093 172.393 199.317 172.558 199.482C172.723 199.647 172.947 199.74 173.18 199.74C173.413 199.737 173.635 199.644 173.799 199.479C173.964 199.315 174.057 199.093 174.06 198.86V198.27C174.059 198.096 174.11 197.925 174.206 197.78C174.302 197.634 174.439 197.521 174.599 197.453C174.76 197.386 174.937 197.367 175.108 197.401C175.279 197.434 175.436 197.517 175.56 197.64L175.98 198.06C176.06 198.143 176.156 198.21 176.263 198.255C176.37 198.301 176.484 198.324 176.6 198.324C176.716 198.324 176.83 198.301 176.937 198.255C177.043 198.21 177.14 198.143 177.22 198.06C177.384 197.895 177.475 197.672 177.475 197.44C177.475 197.208 177.384 196.985 177.22 196.82L176.8 196.4C176.678 196.277 176.595 196.121 176.561 195.95C176.528 195.78 176.545 195.604 176.611 195.444C176.677 195.284 176.79 195.146 176.933 195.05C177.077 194.953 177.247 194.901 177.42 194.9H178.02C178.135 194.9 178.249 194.877 178.355 194.833C178.461 194.788 178.558 194.723 178.639 194.642C178.72 194.56 178.784 194.463 178.827 194.356C178.87 194.249 178.891 194.135 178.89 194.02C178.89 193.787 178.797 193.563 178.632 193.398C178.467 193.233 178.243 193.14 178.01 193.14Z" fill="url(#paint11_linear_20_3274)"/>
<path d="M194.52 193.14H193.93C193.754 193.144 193.582 193.095 193.435 192.999C193.287 192.903 193.173 192.765 193.106 192.603C193.039 192.44 193.022 192.261 193.059 192.09C193.095 191.918 193.183 191.761 193.31 191.64L193.72 191.22C193.804 191.14 193.87 191.043 193.915 190.937C193.961 190.83 193.984 190.716 193.984 190.6C193.984 190.484 193.961 190.37 193.915 190.263C193.87 190.157 193.804 190.06 193.72 189.98C193.555 189.816 193.332 189.724 193.1 189.724C192.868 189.724 192.645 189.816 192.48 189.98L192.06 190.4C191.937 190.522 191.781 190.605 191.61 190.639C191.44 190.672 191.264 190.655 191.104 190.589C190.944 190.523 190.807 190.41 190.71 190.267C190.613 190.123 190.561 189.953 190.56 189.78V189.19C190.561 189.074 190.54 188.959 190.496 188.852C190.452 188.744 190.387 188.647 190.305 188.565C190.223 188.483 190.126 188.418 190.018 188.374C189.911 188.33 189.796 188.309 189.68 188.31C189.447 188.31 189.223 188.403 189.058 188.568C188.893 188.733 188.8 188.957 188.8 189.19V189.78C188.799 189.953 188.747 190.123 188.65 190.267C188.554 190.41 188.416 190.523 188.256 190.589C188.096 190.655 187.92 190.672 187.75 190.639C187.579 190.605 187.423 190.522 187.3 190.4L186.89 189.98C186.723 189.816 186.499 189.724 186.265 189.724C186.031 189.724 185.807 189.816 185.64 189.98C185.476 190.145 185.385 190.368 185.385 190.6C185.385 190.832 185.476 191.055 185.64 191.22L186.06 191.64C186.182 191.763 186.265 191.919 186.299 192.09C186.332 192.26 186.315 192.436 186.249 192.596C186.183 192.756 186.07 192.894 185.927 192.99C185.783 193.087 185.613 193.139 185.44 193.14H184.85C184.617 193.14 184.393 193.233 184.228 193.398C184.063 193.563 183.97 193.787 183.97 194.02C183.969 194.136 183.991 194.251 184.034 194.358C184.078 194.466 184.143 194.563 184.225 194.645C184.307 194.727 184.404 194.792 184.512 194.836C184.619 194.879 184.734 194.901 184.85 194.9H185.42C185.593 194.901 185.763 194.953 185.907 195.05C186.05 195.146 186.163 195.284 186.229 195.444C186.295 195.604 186.312 195.78 186.279 195.95C186.245 196.121 186.162 196.277 186.04 196.4L185.62 196.82C185.456 196.985 185.365 197.208 185.365 197.44C185.365 197.672 185.456 197.895 185.62 198.06C185.702 198.143 185.799 198.208 185.906 198.253C186.014 198.297 186.129 198.321 186.245 198.321C186.361 198.321 186.476 198.297 186.584 198.253C186.691 198.208 186.788 198.143 186.87 198.06L187.28 197.64C187.404 197.517 187.561 197.434 187.732 197.401C187.903 197.367 188.08 197.386 188.241 197.453C188.401 197.521 188.538 197.634 188.634 197.78C188.73 197.925 188.781 198.096 188.78 198.27V198.86C188.783 199.093 188.876 199.315 189.041 199.479C189.205 199.644 189.427 199.737 189.66 199.74C189.893 199.74 190.117 199.647 190.282 199.482C190.447 199.317 190.54 199.093 190.54 198.86V198.27C190.539 198.096 190.59 197.925 190.686 197.78C190.782 197.634 190.919 197.521 191.079 197.453C191.24 197.386 191.417 197.367 191.588 197.401C191.759 197.434 191.916 197.517 192.04 197.64L192.46 198.06C192.54 198.143 192.637 198.21 192.743 198.255C192.85 198.301 192.964 198.324 193.08 198.324C193.196 198.324 193.31 198.301 193.417 198.255C193.523 198.21 193.62 198.143 193.7 198.06C193.784 197.98 193.85 197.883 193.895 197.777C193.941 197.67 193.964 197.556 193.964 197.44C193.964 197.324 193.941 197.21 193.895 197.103C193.85 196.997 193.784 196.9 193.7 196.82L193.29 196.4C193.168 196.277 193.085 196.121 193.051 195.95C193.018 195.78 193.035 195.604 193.101 195.444C193.167 195.284 193.28 195.146 193.423 195.05C193.567 194.953 193.737 194.901 193.91 194.9H194.5C194.733 194.9 194.957 194.807 195.122 194.642C195.287 194.477 195.38 194.253 195.38 194.02C195.378 193.791 195.287 193.571 195.127 193.407C194.966 193.244 194.749 193.148 194.52 193.14Z" fill="url(#paint12_linear_20_3274)"/>
</g>
<path d="M332.785 264.886H294.756L292.474 234.535L331.422 235.906C331.422 235.906 331.894 232.368 331.917 239.076C331.933 243.729 332.905 252.955 332.785 264.886Z" fill="#262626"/>
<path d="M308.584 232.791C308.549 233.514 308.51 234.24 308.462 234.963C307.857 245.031 306.464 255.036 304.298 264.886H266.29C266.784 249.475 267.197 237.268 267.197 237.268L292.474 234.535L293.99 234.369L308.584 232.791Z" fill="#262626"/>
<path d="M317.751 129.941C317.751 129.941 318.182 139.869 320.327 143.517C326.506 154.019 328.094 165.709 321.524 171.643C314.953 177.578 273.946 176.708 271.165 162.641C268.824 150.798 274.466 149.661 276.058 139.974C276.778 135.59 278.693 126.408 278.693 126.408" fill="#0A0A0A"/>
<path d="M282.663 161.095C282.734 161.086 283.519 174.123 298.664 172.986C309.149 172.2 312.888 161.076 313.128 161.076C311.997 160.836 310.094 160.487 309.592 160.219C307.941 159.332 305.898 158.409 305.366 155.203C305.059 153.355 305.579 143.901 305.419 142.031L289.325 145.624C289.55 149.573 291.124 158.726 285.608 160.348C284.69 160.615 283.701 160.86 282.663 161.095Z" fill="#E98862"/>
<path opacity="0.52" d="M289.1 156.606C289.352 155.793 289.514 154.956 289.584 154.108C289.761 152.173 289.725 150.225 289.479 148.298C292.75 147.857 295.831 146.506 298.373 144.401C298.672 145.504 300.316 150.327 299.861 151.376C299.001 153.359 294.959 156.606 289.1 156.606Z" fill="#0C0C0C"/>
<path d="M290.541 152.485C296.871 153.248 305.137 150.901 307.034 142.492L308.746 134.906C310.643 126.498 307.764 118.685 299.848 116.899C291.931 115.113 284.476 120.594 282.579 129.003L281.821 132.362C281.094 135.587 279.249 151.127 290.541 152.485Z" fill="#E98862"/>
<path d="M289.028 143.197C290.243 143.22 291.435 143.528 292.51 144.096C292.553 144.12 292.586 144.159 292.6 144.206C292.615 144.254 292.611 144.305 292.589 144.349C292.566 144.393 292.528 144.426 292.481 144.443C292.435 144.459 292.383 144.456 292.339 144.435C290.021 143.266 287.849 143.276 286.056 144.464C286.019 144.489 285.982 144.512 285.943 144.533C285.898 144.552 285.848 144.553 285.803 144.536C285.757 144.519 285.72 144.485 285.699 144.442C285.678 144.398 285.674 144.348 285.689 144.302C285.703 144.255 285.735 144.217 285.777 144.193C285.792 144.185 285.815 144.169 285.848 144.147C286.789 143.521 287.897 143.19 289.028 143.197Z" fill="#0C0C0C"/>
<path d="M288.719 140.623H288.703C288.377 140.573 288.055 140.506 287.737 140.421C287.262 140.291 286.638 140.068 286.699 139.641C286.769 139.155 288.86 134.103 289.098 133.529C289.107 133.503 289.122 133.48 289.141 133.46C289.16 133.441 289.183 133.425 289.208 133.414C289.233 133.403 289.26 133.398 289.288 133.397C289.315 133.397 289.342 133.403 289.368 133.413C289.393 133.424 289.416 133.439 289.435 133.459C289.454 133.478 289.469 133.501 289.479 133.527C289.49 133.552 289.494 133.579 289.494 133.607C289.493 133.634 289.487 133.661 289.476 133.686C288.584 135.837 287.152 139.373 287.105 139.7C287.164 139.848 287.954 140.1 288.763 140.217C288.815 140.225 288.862 140.253 288.894 140.295C288.927 140.336 288.942 140.389 288.936 140.441C288.93 140.494 288.905 140.542 288.865 140.576C288.824 140.611 288.773 140.628 288.72 140.625L288.719 140.623Z" fill="#0C0C0C"/>
<path d="M315.028 137.79L307.932 136.231C302.598 133.853 301.288 124.43 301.288 124.43C301.288 124.43 294.493 130.606 278.694 126.408C278.694 126.408 282.662 104.309 305.965 111.587C313.479 113.934 318.657 121.768 317.622 131.963C316.896 139.106 315.028 137.79 315.028 137.79Z" fill="#0A0A0A"/>
<path d="M305.965 144.942C308.37 145.485 310.901 143.351 311.444 140.946C311.987 138.541 310.336 136.773 307.929 136.23L306.326 137.562L303.896 144.478L305.965 144.942Z" fill="#E98862"/>
<path d="M287.804 129.038C287.113 128.557 286.306 128.271 285.467 128.209C285.054 128.176 284.638 128.205 284.234 128.296C283.833 128.384 283.446 128.522 283.08 128.707C283.03 128.731 282.991 128.774 282.971 128.826C282.952 128.878 282.954 128.936 282.976 128.987C282.999 129.038 283.04 129.078 283.092 129.099C283.143 129.12 283.201 129.119 283.253 129.098L283.268 129.092C283.605 128.941 283.96 128.832 284.325 128.769C284.685 128.705 285.053 128.696 285.416 128.742C286.137 128.827 286.822 129.102 287.402 129.537L287.42 129.552C287.488 129.605 287.573 129.628 287.657 129.618C287.742 129.607 287.819 129.564 287.871 129.496C287.924 129.429 287.947 129.344 287.937 129.259C287.926 129.175 287.883 129.098 287.815 129.045L287.804 129.038Z" fill="#0C0C0C"/>
<path d="M294.004 130.475C294.714 130.327 295.451 130.37 296.139 130.598C296.488 130.711 296.817 130.876 297.115 131.088C297.419 131.3 297.694 131.549 297.935 131.829L297.946 131.841C297.984 131.882 298.036 131.907 298.091 131.91C298.147 131.913 298.201 131.894 298.243 131.857C298.285 131.821 298.311 131.77 298.316 131.714C298.321 131.659 298.304 131.604 298.269 131.561C298.016 131.238 297.724 130.948 297.399 130.699C297.072 130.444 296.708 130.241 296.321 130.095C295.535 129.794 294.682 129.71 293.853 129.851C293.81 129.858 293.77 129.872 293.733 129.895C293.696 129.917 293.665 129.947 293.64 129.982C293.615 130.017 293.597 130.056 293.587 130.098C293.578 130.14 293.577 130.183 293.584 130.226C293.592 130.268 293.608 130.308 293.631 130.344C293.655 130.38 293.685 130.411 293.721 130.435C293.756 130.459 293.796 130.476 293.838 130.484C293.881 130.493 293.924 130.492 293.966 130.484L293.979 130.481L294.004 130.475Z" fill="#0C0C0C"/>
<path d="M307.918 136.14L307.995 135.944C299.058 132.38 301.581 123.575 301.607 123.486L301.406 123.426C301.38 123.516 298.799 132.503 307.918 136.14Z" fill="#0C0C0C"/>
<path d="M283.957 132.613C284.509 132.613 284.956 132.165 284.956 131.613C284.956 131.061 284.509 130.614 283.957 130.614C283.405 130.614 282.957 131.061 282.957 131.613C282.957 132.165 283.405 132.613 283.957 132.613Z" fill="#0C0C0C"/>
<path d="M293.837 134.314C294.389 134.314 294.836 133.866 294.836 133.314C294.836 132.762 294.389 132.315 293.837 132.315C293.285 132.315 292.837 132.762 292.837 133.314C292.837 133.866 293.285 134.314 293.837 134.314Z" fill="#0C0C0C"/>
<path opacity="0.1" d="M296.913 140.396C297.022 139.632 296.267 138.893 295.226 138.744C294.185 138.595 293.252 139.093 293.143 139.857C293.034 140.621 293.789 141.36 294.831 141.509C295.872 141.658 296.804 141.16 296.913 140.396Z" fill="#0C0C0C"/>
<path opacity="0.1" d="M283.872 138.191C283.761 138.954 282.829 139.451 281.787 139.304C281.607 139.278 281.431 139.234 281.26 139.171C281.233 138.259 281.25 137.381 281.296 136.57C281.587 136.505 281.889 136.494 282.184 136.539C283.225 136.685 283.98 137.426 283.872 138.191Z" fill="#0C0C0C"/>
<path d="M209.596 160.33C209.736 160.054 209.957 159.828 210.231 159.683C210.504 159.539 210.815 159.482 211.122 159.523C211.119 159.504 211.121 159.485 211.127 159.468C211.134 159.45 211.144 159.434 211.158 159.422C211.171 159.409 211.188 159.4 211.206 159.395C211.224 159.39 211.243 159.39 211.261 159.394L210.227 158.653C209.917 158.441 209.695 158.124 209.601 157.761C209.507 157.398 209.547 157.014 209.715 156.678C209.891 156.352 210.182 156.103 210.531 155.98C210.88 155.856 211.263 155.867 211.605 156.009C211.602 155.995 211.612 155.981 211.615 155.966L211.19 155.661C210.899 155.46 210.686 155.165 210.588 154.826C210.49 154.486 210.512 154.123 210.651 153.798C210.742 153.596 210.877 153.417 211.045 153.274C211.214 153.13 211.413 153.026 211.627 152.968C211.841 152.911 212.065 152.901 212.283 152.941C212.501 152.98 212.708 153.068 212.888 153.197L213.868 153.9C213.871 153.894 213.868 153.887 213.872 153.882C213.876 153.876 213.887 153.874 213.893 153.868C213.667 153.615 213.534 153.293 213.516 152.954C213.498 152.616 213.596 152.281 213.793 152.006C214.257 151.261 215.325 151.413 215.959 151.867L221.731 155.855L220.699 154.118C220.492 153.784 220.419 153.383 220.496 152.997C220.572 152.612 220.792 152.269 221.111 152.039C221.28 151.926 221.47 151.849 221.67 151.812C221.87 151.774 222.075 151.778 222.273 151.823C222.471 151.868 222.659 151.953 222.823 152.072C222.987 152.192 223.126 152.344 223.229 152.518L228.863 162.003C229.524 163.115 229.725 164.442 229.424 165.7C229.122 166.959 228.342 168.05 227.248 168.743C225.98 169.546 224.501 169.951 223.001 169.908C221.501 169.865 220.048 169.375 218.828 168.501L210.11 162.253C209.82 162.037 209.612 161.73 209.519 161.381C209.425 161.032 209.453 160.661 209.596 160.33Z" fill="#E98862"/>
<g opacity="0.25">
<path d="M219.582 157.842C219.561 157.872 219.529 157.892 219.494 157.898C219.458 157.904 219.421 157.896 219.392 157.876L213.907 154.075C213.891 154.065 213.878 154.051 213.868 154.036C213.857 154.021 213.85 154.003 213.846 153.985C213.843 153.967 213.843 153.948 213.847 153.93C213.85 153.912 213.858 153.895 213.868 153.88C213.879 153.864 213.892 153.852 213.908 153.842C213.924 153.832 213.941 153.825 213.96 153.822C213.978 153.819 213.997 153.82 214.015 153.824C214.033 153.828 214.05 153.836 214.064 153.847L219.549 157.646C219.579 157.667 219.6 157.699 219.606 157.735C219.613 157.771 219.605 157.808 219.584 157.839L219.582 157.842Z" fill="#0C0C0C"/>
</g>
<g opacity="0.25">
<path d="M217.973 160.306C217.952 160.336 217.92 160.356 217.885 160.362C217.849 160.368 217.813 160.36 217.783 160.34L211.662 156.099C211.632 156.078 211.612 156.046 211.605 156.01C211.598 155.974 211.606 155.937 211.627 155.907C211.649 155.878 211.681 155.858 211.716 155.851C211.752 155.845 211.789 155.852 211.819 155.872L217.94 160.112C217.97 160.133 217.991 160.165 217.997 160.201C218.004 160.237 217.996 160.274 217.975 160.304L217.973 160.306Z" fill="#0C0C0C"/>
</g>
<g opacity="0.25">
<path d="M216.246 162.986C216.225 163.016 216.194 163.036 216.158 163.042C216.123 163.048 216.086 163.04 216.056 163.019L211.174 159.637C211.145 159.615 211.127 159.584 211.121 159.549C211.116 159.514 211.124 159.478 211.144 159.448C211.164 159.419 211.195 159.399 211.23 159.392C211.264 159.385 211.301 159.391 211.331 159.41L216.214 162.792C216.244 162.813 216.264 162.845 216.271 162.881C216.277 162.917 216.269 162.955 216.248 162.985L216.246 162.986Z" fill="#0C0C0C"/>
</g>
<path d="M231.347 158.581L245.369 190.962L264.716 164.483L281.483 179.597L252.851 216.678L252.663 216.943C251.517 218.513 249.991 219.765 248.227 220.581C246.463 221.397 244.521 221.751 242.583 221.609C240.644 221.468 238.774 220.835 237.148 219.77C235.522 218.706 234.194 217.245 233.289 215.525L213.126 168.716L231.347 158.581Z" fill="#8DB4FF"/>
<path d="M246.992 194.35C247.028 194.35 247.063 194.341 247.095 194.323C247.126 194.306 247.152 194.281 247.171 194.25C247.19 194.219 247.201 194.184 247.202 194.148C247.203 194.112 247.195 194.076 247.179 194.044L245.557 190.866C245.531 190.819 245.487 190.783 245.435 190.767C245.382 190.751 245.326 190.755 245.277 190.78C245.228 190.805 245.191 190.848 245.174 190.9C245.156 190.951 245.159 191.008 245.183 191.058L246.805 194.236C246.822 194.27 246.849 194.299 246.882 194.319C246.915 194.34 246.953 194.35 246.992 194.35Z" fill="#0C0C0C"/>
<path d="M263.847 189.796C264.324 195.4 266.644 230.365 267.103 237.268H331.884C332.242 231.042 332.274 203.817 333.628 191.642C334.921 180.025 337.456 174.208 335.598 170.773C332.56 165.16 328.198 160.098 319.834 159.399C316.359 159.108 309.946 160.348 309.946 160.348C309.946 160.348 309.505 169.25 299.011 169.745C284.725 170.42 285.675 160.371 285.608 160.347C282.664 159.27 272.414 158.722 267.9 161.703C259.288 167.39 262.834 177.92 263.847 189.796Z" fill="#8DB4FF"/>
<path d="M264.329 193.434L263.91 193.457L264.415 202.357L264.834 202.333L264.329 193.434Z" fill="#0C0C0C"/>
<path d="M382.269 164.259C382.105 163.997 381.863 163.793 381.578 163.674C381.293 163.555 380.978 163.528 380.677 163.596C380.678 163.577 380.674 163.559 380.666 163.542C380.659 163.525 380.647 163.51 380.632 163.499C380.617 163.487 380.6 163.48 380.581 163.477C380.563 163.474 380.544 163.475 380.526 163.481L381.488 162.647C381.777 162.408 381.969 162.072 382.029 161.702C382.089 161.332 382.014 160.953 381.816 160.634C381.611 160.326 381.298 160.105 380.939 160.014C380.58 159.923 380.2 159.969 379.872 160.142C379.872 160.127 379.862 160.114 379.859 160.1L380.254 159.757C380.525 159.531 380.709 159.217 380.776 158.87C380.842 158.523 380.787 158.164 380.619 157.853C380.509 157.66 380.358 157.494 380.177 157.367C379.996 157.239 379.789 157.154 379.57 157.116C379.352 157.078 379.128 157.09 378.914 157.149C378.701 157.209 378.503 157.315 378.336 157.46L377.424 158.25C377.42 158.244 377.424 158.237 377.418 158.232C377.413 158.228 377.403 158.227 377.397 158.221C377.598 157.948 377.7 157.615 377.687 157.276C377.673 156.938 377.545 156.613 377.324 156.357C376.793 155.658 375.744 155.908 375.154 156.419L369.774 160.921L370.641 159.097C370.817 158.745 370.853 158.339 370.742 157.962C370.63 157.584 370.379 157.263 370.04 157.064C369.862 156.966 369.665 156.907 369.463 156.888C369.26 156.87 369.056 156.893 368.863 156.955C368.67 157.018 368.491 157.12 368.339 157.254C368.186 157.388 368.062 157.552 367.975 157.736L363.239 167.699C362.683 168.867 362.605 170.207 363.021 171.432C363.437 172.658 364.315 173.673 365.467 174.261C366.804 174.944 368.314 175.212 369.804 175.031C371.294 174.85 372.696 174.228 373.83 173.245L381.935 166.22C382.203 165.979 382.383 165.654 382.443 165.298C382.504 164.942 382.442 164.576 382.269 164.259Z" fill="#E98862"/>
<g opacity="0.25">
<path d="M372.096 162.7C372.12 162.727 372.154 162.744 372.19 162.746C372.226 162.749 372.261 162.738 372.289 162.715L377.4 158.427C377.414 158.415 377.426 158.401 377.434 158.385C377.443 158.369 377.448 158.351 377.449 158.333C377.451 158.315 377.449 158.297 377.443 158.28C377.438 158.262 377.429 158.246 377.417 158.232C377.406 158.218 377.392 158.207 377.375 158.199C377.359 158.19 377.342 158.185 377.324 158.183C377.306 158.182 377.288 158.184 377.27 158.189C377.253 158.195 377.237 158.204 377.223 158.215L372.111 162.503C372.083 162.527 372.066 162.56 372.063 162.597C372.059 162.633 372.071 162.669 372.094 162.697L372.096 162.7Z" fill="#0C0C0C"/>
</g>
<g opacity="0.25">
<path d="M373.925 165.006C373.949 165.033 373.983 165.049 374.019 165.052C374.055 165.055 374.09 165.043 374.118 165.02L379.822 160.235C379.85 160.211 379.867 160.178 379.87 160.141C379.874 160.105 379.862 160.068 379.839 160.04C379.815 160.013 379.781 159.997 379.745 159.993C379.709 159.99 379.673 160.001 379.644 160.023L373.94 164.809C373.912 164.832 373.895 164.866 373.892 164.902C373.888 164.939 373.9 164.975 373.923 165.003L373.925 165.006Z" fill="#0C0C0C"/>
</g>
<g opacity="0.25">
<path d="M375.892 167.516C375.916 167.543 375.949 167.56 375.985 167.563C376.021 167.565 376.057 167.554 376.084 167.531L380.635 163.712C380.663 163.689 380.68 163.655 380.684 163.619C380.687 163.582 380.675 163.546 380.652 163.518C380.628 163.49 380.595 163.472 380.558 163.469C380.522 163.466 380.485 163.477 380.457 163.501L375.907 167.318C375.879 167.341 375.861 167.375 375.858 167.412C375.855 167.448 375.866 167.484 375.89 167.512L375.892 167.516Z" fill="#0C0C0C"/>
</g>
<path d="M361.015 163.841L350.355 191.178L334.791 169.324L318.027 184.439L342.035 221.098L342.222 221.364C343.368 222.933 344.895 224.185 346.659 225.001C348.422 225.818 350.365 226.172 352.303 226.03C354.241 225.888 356.112 225.255 357.738 224.191C359.364 223.126 360.692 221.665 361.597 219.945L378.818 173.557L361.015 163.841Z" fill="#8DB4FF"/>
<path d="M348.733 194.566C348.697 194.566 348.662 194.557 348.63 194.539C348.599 194.522 348.573 194.496 348.554 194.466C348.535 194.435 348.524 194.4 348.523 194.364C348.522 194.328 348.529 194.292 348.546 194.26L350.168 191.082C350.193 191.033 350.238 190.997 350.29 190.98C350.343 190.963 350.4 190.968 350.449 190.993C350.499 191.018 350.536 191.062 350.553 191.114C350.571 191.167 350.567 191.224 350.542 191.274L348.92 194.452C348.903 194.486 348.876 194.515 348.843 194.535C348.81 194.556 348.772 194.566 348.733 194.566Z" fill="#0C0C0C"/>
<path d="M368.886 264.884H209.382C209.279 264.881 209.182 264.839 209.111 264.765C209.04 264.692 209 264.594 209 264.492C209 264.389 209.04 264.291 209.111 264.218C209.182 264.144 209.279 264.102 209.382 264.099H368.886C368.989 264.102 369.086 264.144 369.157 264.218C369.228 264.291 369.268 264.389 369.268 264.492C369.268 264.594 369.228 264.692 369.157 264.765C369.086 264.839 368.989 264.881 368.886 264.884Z" fill="#292A2E"/>
<path d="M270.886 115.907V91.0999C270.886 90.5431 270.664 90.0091 270.271 89.6153C269.877 89.2216 269.343 89.0002 268.786 89H239.608C239.051 89 238.517 89.2212 238.123 89.615C237.73 90.0089 237.508 90.543 237.508 91.0999V109.597C237.508 110.154 237.73 110.688 238.123 111.082C238.517 111.475 239.051 111.697 239.608 111.697H263.317L269.93 116.4C270.02 116.464 270.127 116.502 270.238 116.51C270.349 116.518 270.459 116.495 270.558 116.444C270.657 116.393 270.739 116.316 270.797 116.221C270.855 116.127 270.886 116.018 270.886 115.907Z" fill="#0CBC8B"/>
<path d="M253.299 108.687C254.009 108.687 254.584 108.112 254.584 107.402C254.584 106.692 254.009 106.117 253.299 106.117C252.589 106.117 252.014 106.692 252.014 107.402C252.014 108.112 252.589 108.687 253.299 108.687Z" fill="white"/>
<path d="M253.239 104.613C253.017 104.613 252.804 104.525 252.648 104.368C252.491 104.211 252.403 103.998 252.403 103.776V100.669C252.403 100.481 252.466 100.299 252.582 100.151C252.698 100.004 252.86 99.8998 253.043 99.8557C253.079 99.8467 256.822 98.8996 256.822 96.3811C256.822 94.8008 255.526 93.696 253.671 93.696C251.662 93.696 250.63 95.7047 250.587 95.7896C250.487 95.985 250.313 96.1331 250.105 96.2019C249.896 96.2707 249.669 96.2547 249.472 96.1573C249.275 96.0599 249.124 95.8889 249.052 95.6813C248.98 95.4737 248.993 95.2462 249.087 95.0478C249.149 94.9248 250.611 92.0231 253.671 92.0231C256.466 92.0231 258.495 93.8553 258.495 96.3801C258.495 99.4228 255.441 100.817 254.076 101.288V103.776C254.076 103.998 253.987 104.211 253.831 104.368C253.674 104.525 253.461 104.613 253.239 104.613Z" fill="white"/>
<defs>
<linearGradient id="paint0_linear_20_3274" x1="27.8004" y1="161.376" x2="389.333" y2="244.076" gradientUnits="userSpaceOnUse">
<stop stop-color="#F7FAFF"/>
<stop offset="1" stop-color="#EFF5FF"/>
</linearGradient>
<linearGradient id="paint1_linear_20_3274" x1="83.4931" y1="48.0956" x2="192.103" y2="48.0956" gradientUnits="userSpaceOnUse">
<stop stop-color="#EFF5FF"/>
<stop offset="1" stop-color="#EFF5FF"/>
</linearGradient>
<linearGradient id="paint2_linear_20_3274" x1="296.105" y1="15.4556" x2="374.526" y2="15.4556" gradientUnits="userSpaceOnUse">
<stop stop-color="#EFF5FF"/>
<stop offset="1" stop-color="#EFF5FF"/>
</linearGradient>
<linearGradient id="paint3_linear_20_3274" x1="66.48" y1="221.26" x2="225.83" y2="185.92" gradientUnits="userSpaceOnUse">
<stop stop-color="#FAFFFF"/>
<stop offset="1" stop-color="#CAEBEF"/>
</linearGradient>
<linearGradient id="paint4_linear_20_3274" x1="148.41" y1="152.11" x2="267.3" y2="233.13" gradientUnits="userSpaceOnUse">
<stop offset="0.03" stop-color="#0A91F2"/>
<stop offset="0.76" stop-color="#004D8A"/>
</linearGradient>
<linearGradient id="paint5_linear_20_3274" x1="143.64" y1="183.06" x2="212.04" y2="183.06" gradientUnits="userSpaceOnUse">
<stop stop-color="#CCCCFF"/>
<stop offset="1" stop-color="#D1D3D4"/>
</linearGradient>
<linearGradient id="paint6_linear_20_3274" x1="129.39" y1="169.95" x2="178.01" y2="169.95" gradientUnits="userSpaceOnUse">
<stop stop-color="#D1D3D4"/>
<stop offset="1" stop-color="#CCCCFF"/>
</linearGradient>
<linearGradient id="paint7_linear_20_3274" x1="107.44" y1="183.08" x2="222.71" y2="208.52" gradientUnits="userSpaceOnUse">
<stop stop-color="#FAFFFF"/>
<stop offset="1" stop-color="#CAEBEF"/>
</linearGradient>
<linearGradient id="paint8_linear_20_3274" x1="120.81" y1="194.02" x2="132.24" y2="194.02" gradientUnits="userSpaceOnUse">
<stop stop-color="#0A91F2"/>
<stop offset="0.75" stop-color="#004D8A"/>
</linearGradient>
<linearGradient id="paint9_linear_20_3274" x1="135.89" y1="194.02" x2="147.32" y2="194.02" gradientUnits="userSpaceOnUse">
<stop stop-color="#0A91F2"/>
<stop offset="0.75" stop-color="#004D8A"/>
</linearGradient>
<linearGradient id="paint10_linear_20_3274" x1="151.67" y1="194.02" x2="163.1" y2="194.02" gradientUnits="userSpaceOnUse">
<stop stop-color="#0A91F2"/>
<stop offset="0.75" stop-color="#004D8A"/>
</linearGradient>
<linearGradient id="paint11_linear_20_3274" x1="167.45" y1="194.02" x2="178.88" y2="194.02" gradientUnits="userSpaceOnUse">
<stop stop-color="#0A91F2"/>
<stop offset="0.75" stop-color="#004D8A"/>
</linearGradient>
<linearGradient id="paint12_linear_20_3274" x1="183.97" y1="194.02" x2="195.4" y2="194.02" gradientUnits="userSpaceOnUse">
<stop stop-color="#0A91F2"/>
<stop offset="0.75" stop-color="#004D8A"/>
</linearGradient>
<clipPath id="clip0_20_3274">
<rect width="170.18" height="163.28" fill="white" transform="translate(113 111)"/>
</clipPath>
<clipPath id="clip1_20_3274">
<rect width="106.62" height="26.04" fill="white" transform="translate(105 181)"/>
</clipPath>
</defs>
</svg>
