<svg width="396" height="259" viewBox="0 0 396 259" fill="none" xmlns="http://www.w3.org/2000/svg">
<g clip-path="url(#clip0_218_3428)">
<path d="M124.086 246.781C124.086 246.781 25.941 148.945 49.8345 110.476C77.4786 65.8139 123.201 110.476 123.201 110.476L124.086 246.781Z" fill="#F0F8FF"/>
<path d="M124.086 246.781C124.086 246.781 80.8501 17.4858 171.705 2.40168C298.547 -18.6655 271.029 99.9848 271.029 99.9848C271.029 99.9848 304.194 76.1368 335.63 101.881C379.288 137.569 309.672 246.528 309.672 246.528L124.086 246.781Z" fill="#F0F8FF"/>
<path d="M173.305 63.7914C173.836 62.563 174.218 61.2759 174.443 59.9572C175.358 57.6597 176.639 55.5254 178.236 53.637C179.079 52.5837 179.584 49.4236 181.354 49.4236C184.262 49.4236 181.944 54.6061 181.86 55.9123C181.762 56.5016 181.857 57.1067 182.131 57.6379C182.404 58.1691 182.841 58.5982 183.377 58.8617C184.111 59.1326 184.918 59.1326 185.653 58.8617C188.01 58.0091 190.317 57.0244 192.564 55.9123C193.744 55.4067 194.966 54.9432 196.188 54.5219C197.113 54.0051 198.087 53.5817 199.095 53.2578C199.854 53.2578 200.739 53.7635 200.612 54.6062C200.486 55.4488 199.77 55.4488 199.222 55.7859L195.556 58.0611C195.303 58.0611 193.996 58.8196 193.954 59.1567C193.954 60.8842 197.326 59.1567 197.915 59.1567C199.309 58.4606 200.883 58.2104 202.424 58.4403C202.536 58.4499 202.643 58.4854 202.738 58.544C202.833 58.6025 202.914 58.6824 202.972 58.7774C202.972 59.0724 202.972 59.4095 202.551 59.6202C200.992 60.7578 199.011 61.3477 197.452 62.5696C197.314 62.6538 197.199 62.7711 197.118 62.9109C197.037 63.0508 196.993 63.2086 196.988 63.3701C197.241 64.6341 199.727 64.0864 200.57 64.0021C201.413 63.9178 201.792 64.0021 202.045 64.3813C202.145 64.5232 202.198 64.6924 202.198 64.8659C202.198 65.0393 202.145 65.2085 202.045 65.3504C201.8 65.5936 201.515 65.7931 201.202 65.9403C200.275 66.3617 199.348 66.9515 198.379 67.2886C197.41 67.6257 196.483 67.7942 196.567 68.4683C196.567 68.5385 196.587 68.6072 196.625 68.6667C196.662 68.7262 196.715 68.7742 196.778 68.8054C197.224 69.0173 197.719 69.1046 198.21 69.0582C198.451 69.0485 198.691 69.1017 198.905 69.2125C199.119 69.3233 199.301 69.488 199.432 69.6903C199.643 70.2802 199.095 70.8279 198.632 71.1649C196.723 72.2599 194.665 73.0691 192.521 73.5666C190.33 74.1986 188.097 74.7885 185.863 75.252C182.869 75.8412 179.844 76.2632 176.803 76.516C174.077 77.0053 171.266 76.5442 168.839 75.2099C168.216 74.7279 167.651 74.1766 167.153 73.5666C166.427 72.8116 165.83 71.9435 165.383 70.9964C164.938 70.0467 164.862 68.9649 165.172 67.9627C165.202 67.8294 165.276 67.7103 165.383 67.6257C165.531 67.5138 165.705 67.4413 165.889 67.415C167.313 67.2628 168.722 66.995 170.103 66.6144C171.44 66.0325 172.56 65.045 173.305 63.7914Z" fill="#FBB99D"/>
<path d="M105.713 75.9261C100.403 77.6115 88.1824 83.8895 89.2781 91.0103C90.3737 98.131 106.134 104.451 127.415 99.4371C148.696 94.4231 179.88 74.5778 179.88 74.5778L174.823 63.3279C174.823 63.3279 122.485 70.7015 105.713 75.9261Z" fill="#FBB99D"/>
<path d="M153.795 136.347C161.085 113.004 196.23 111.782 224.844 116.122C244.102 119.03 256.533 125.308 258.556 149.366C259.946 164.703 256.954 228.832 247.557 246.613H140.226C140.226 246.613 138.33 186.276 153.795 136.347Z" fill="#4C6EF4"/>
<path d="M237.275 165.082H216.205L217.216 164.071C216.752 170.686 216.921 184.001 224.927 186.15C232.934 188.299 237.57 181.178 237.57 174.563C237.728 171.114 237.286 167.664 236.263 164.366C236.217 164.118 236.265 163.862 236.398 163.647C236.531 163.433 236.74 163.276 236.982 163.208C237.225 163.139 237.485 163.164 237.711 163.277C237.936 163.39 238.111 163.583 238.202 163.818C241.152 173.509 239.635 189.394 225.939 188.341C215.362 187.498 214.477 172.035 215.025 164.071C215.035 163.806 215.145 163.555 215.332 163.368C215.52 163.18 215.771 163.07 216.036 163.06H237.106C237.374 163.038 237.64 163.123 237.846 163.297C238.051 163.47 238.179 163.719 238.202 163.987C238.224 164.255 238.139 164.521 237.965 164.727C237.791 164.932 237.543 165.06 237.275 165.082Z" fill="#305DDE"/>
<path d="M163.909 159.142L185.906 161.543C186.037 161.543 186.167 161.569 186.287 161.621C186.408 161.672 186.516 161.747 186.607 161.842C186.697 161.936 186.768 162.048 186.814 162.171C186.86 162.293 186.881 162.424 186.875 162.554C186.875 171.95 183.883 187.835 171.41 186.445C158.936 185.054 160.158 168.79 162.982 159.858C163.361 158.636 165.3 159.184 164.92 160.406C162.894 165.968 162.528 171.999 163.867 177.765C164.208 178.981 164.792 180.117 165.582 181.102C166.373 182.088 167.354 182.905 168.468 183.503C169.581 184.1 170.804 184.468 172.062 184.582C173.321 184.697 174.59 184.556 175.793 184.169C177.782 183.219 179.514 181.805 180.841 180.045C182.169 178.285 183.053 176.231 183.42 174.057C184.347 170.813 184.221 167.484 184.895 164.282C184.895 163.734 184.895 163.144 184.895 162.554C184.558 165.293 186.623 162.891 185.19 163.439C184.576 163.541 183.949 163.541 183.336 163.439L163.909 161.29C162.645 160.995 162.603 158.804 163.909 159.142Z" fill="#305DDE"/>
<path d="M152.573 153.453C152.573 153.453 77.3522 103.271 89.9101 88.8193C102.468 74.3672 167.111 129.816 167.111 129.816L152.573 153.453Z" fill="#FBB99D"/>
<path d="M172.885 149.029C154.933 172.161 110.602 124.76 110.602 124.76L130.365 100.069C130.365 100.069 194.208 121.6 172.885 149.029Z" fill="#4C6EF4"/>
<path d="M244.522 152.231C244.522 152.231 325.6 112.288 315.065 96.3192C304.53 80.3502 233.145 126.951 233.145 126.951L244.522 152.231Z" fill="#FBB99D"/>
<path d="M224.97 145.237C239.761 170.518 289.866 129.268 289.866 129.268L273.473 102.218C273.473 102.218 207.397 115.28 224.97 145.237Z" fill="#4C6EF4"/>
<path d="M215.488 85.8277C215.488 85.8277 190.204 91.4737 191.468 93.6226C192.732 95.7714 190.414 100.153 190.372 104.325C189.684 109.625 187.252 114.546 183.461 118.313C180.722 121.558 185.568 125.392 189.909 126.235C208.577 129.9 220.334 122.653 216.373 116.375C207.523 102.302 215.488 85.8277 215.488 85.8277Z" fill="#FBB99D"/>
<path d="M190.373 104.325C190.373 100.111 192.901 95.8978 191.468 93.6226C190.035 91.3473 217.469 85.1957 217.469 85.1957C214.805 88.3365 213.12 92.1891 212.623 96.2771C205.598 102.288 197.546 106.984 188.855 110.139C189.691 108.302 190.204 106.336 190.373 104.325Z" fill="#DC8162"/>
<path d="M189.108 51.109C178.447 59.5359 169.345 88.3979 180.68 102.176C186.791 109.718 209.125 101.712 219.576 85.3221C222.781 76.3042 222.358 66.3939 218.396 57.6819C216.036 51.4461 200.191 42.4293 189.108 51.109Z" fill="#FBB99D"/>
<path d="M176.804 73.8615C176.804 75.6733 179.164 56.3758 189.446 55.0696C193.66 54.564 192.733 59.283 197.663 59.578C201.877 59.8729 214.519 51.1511 209.589 77.1059C209.378 78.3699 210.516 79.8446 211.064 80.9401C211.612 82.0356 209.968 85.4906 209.968 87.176C209.968 88.8614 214.182 84.058 214.182 85.5749C214.182 87.9765 212.412 90.0833 212.202 92.4849C211.864 96.909 215.531 94.4231 217.006 92.4849C219.028 89.6198 221.22 86.7546 223.032 84.058C224.124 82.7142 224.941 81.1678 225.434 79.5075C225.434 78.7912 226.15 75.2941 226.74 74.9571C228.004 74.4879 229.363 74.329 230.701 74.4936C230.782 70.665 230.168 66.8534 228.889 63.2437C227.597 59.6062 225.194 56.4668 222.02 54.2691C223.421 54.4099 224.833 54.4099 226.234 54.2691C226.477 54.2822 226.716 54.2074 226.908 54.0584C227.203 53.7213 226.908 53.1736 226.656 52.7943C224.588 50.0619 222.115 47.6608 219.323 45.6736C217.595 44.4939 212.834 40.9546 210.558 41.8816C211.423 41.5361 212.149 40.9138 212.623 40.1119C206.721 39.7242 200.795 40.0354 194.966 41.0389C196.078 39.5729 197.051 38.0072 197.874 36.362C192.799 37.4555 188.173 40.0547 184.6 43.8198C182.815 45.8937 181.512 48.3368 180.783 50.9739C180.055 53.611 179.919 56.3766 180.386 59.0724C180.386 60.2943 180.091 60.5049 179.585 61.3476C178.995 62.6099 178.516 63.921 178.152 65.2661C177.296 68.0525 176.842 70.9468 176.804 73.8615Z" fill="#53424D"/>
<path d="M207.186 83.5524C207.186 83.5524 214.856 76.516 219.112 78.5384C223.368 80.5609 217.384 92.6113 208.619 90.926C199.854 89.2406 204.784 85.4485 207.186 83.5524Z" fill="#FBB99D"/>
<path d="M202.72 79.4233H202.383C201.99 79.5678 201.578 79.653 201.16 79.6761C199.559 79.6761 198.843 78.7491 198.506 77.4008C198.168 76.0525 196.946 76.9795 197.157 77.8222C197.308 78.4786 197.615 79.0893 198.051 79.6029C198.487 80.1165 199.04 80.518 199.663 80.7739C200.286 81.0298 200.962 81.1325 201.633 81.0734C202.304 81.0144 202.951 80.7953 203.52 80.4345C204.321 80.0132 203.52 78.9177 202.72 79.2969V79.4233Z" fill="#1E100C"/>
<path d="M188.013 73.8194C187.617 74.178 187.16 74.4633 186.665 74.6621C185.063 75.3363 184.22 74.325 183.673 72.9346C183.599 72.7728 183.467 72.6444 183.304 72.5742C183.14 72.5041 182.956 72.4973 182.788 72.5551C182.62 72.6129 182.479 72.7312 182.393 72.887C182.308 73.0428 182.283 73.225 182.324 73.3981C182.956 75.0413 184.136 76.516 186.159 76.2211C187.252 76.026 188.263 75.5131 189.067 74.7464C189.741 74.1144 188.687 73.2296 188.013 73.8194Z" fill="#1E100C"/>
<path d="M185.61 66.5302C186.665 66.2969 187.768 66.4771 188.694 67.0338C189.619 67.5904 190.295 68.481 190.583 69.5217C190.92 70.5751 192.479 69.9009 192.142 68.8476C191.754 67.4173 190.838 66.1873 189.579 65.4054C188.32 64.6236 186.812 64.3479 185.358 64.6341C184.262 64.8448 184.515 66.5302 185.61 66.3195V66.5302Z" fill="#552B19"/>
<path d="M199.18 72.5554C200.131 72.0579 201.237 71.9422 202.271 72.2319C203.304 72.5216 204.189 73.1949 204.743 74.1144C205.375 74.9992 206.723 74.1144 206.091 73.0189C205.3 71.7918 204.077 70.9069 202.664 70.54C201.251 70.1732 199.752 70.3511 198.464 71.0386C198.353 71.0782 198.252 71.1406 198.167 71.2217C198.082 71.3027 198.014 71.4008 197.969 71.5094C197.924 71.618 197.903 71.7347 197.906 71.8522C197.908 71.9698 197.936 72.0853 197.986 72.1916C198.036 72.2979 198.108 72.3926 198.197 72.4694C198.286 72.5463 198.39 72.6037 198.502 72.638C198.615 72.6722 198.733 72.6826 198.85 72.6684C198.967 72.6542 199.079 72.6156 199.18 72.5554Z" fill="#552B19"/>
<path d="M193.365 72.6818C193.692 74.2587 193.561 75.8964 192.986 77.4008C192.059 79.5075 189.446 80.1817 187.887 81.6143C185.696 83.8474 187.381 85.5749 190.247 86.7968C190.963 87.0918 191.427 86.2069 190.71 85.912C184.221 83.1733 192.522 80.6873 193.913 78.0329C194.686 76.2869 194.907 74.3461 194.545 72.4711C194.545 71.8391 193.239 71.8812 193.365 72.4711V72.6818Z" fill="#DC8162"/>
<path d="M184.136 92.6113C184.136 92.6113 186.664 87.3024 190.92 89.7041C192.09 90.452 192.948 91.5989 193.336 92.9318C193.723 94.2647 193.614 95.693 193.027 96.9512L184.136 92.6113Z" fill="#FAFFFF"/>
<path d="M205.08 89.8305C204.7 90.6183 204.022 91.2229 203.196 91.5113C202.371 91.7998 201.464 91.7483 200.676 91.3684C199.888 90.9884 199.284 90.3111 198.995 89.4854C198.707 88.6596 198.758 87.7531 199.138 86.9653C199.518 86.1775 200.195 85.5729 201.021 85.2845C201.847 84.9961 202.754 85.0475 203.542 85.4275C204.33 85.8074 204.934 86.4847 205.223 87.3104C205.511 88.1362 205.46 89.0427 205.08 89.8305Z" fill="#F3A498"/>
<path d="M178.615 79.1705C178.952 78.9112 179.34 78.7255 179.753 78.6256C180.166 78.5258 180.596 78.5139 181.014 78.5908C181.432 78.6676 181.83 78.8315 182.181 79.0718C182.531 79.3121 182.828 79.6235 183.051 79.9857C183.273 80.3479 183.417 80.7528 183.473 81.1743C183.529 81.5957 183.496 82.0243 183.376 82.4321C183.256 82.8399 183.051 83.2179 182.776 83.5416C182.5 83.8652 182.159 84.1274 181.776 84.3109C181.099 84.6345 180.327 84.6963 179.608 84.4844C178.889 84.2724 178.274 83.8018 177.881 83.1632C177.488 82.5246 177.346 81.7632 177.482 81.026C177.617 80.2887 178.021 79.6277 178.615 79.1705Z" fill="#F3A498"/>
<path d="M303.856 83.6367C308.492 86.7126 318.479 96.277 315.445 102.681C312.411 109.086 295.344 110.813 276.465 100.069C257.586 89.3249 233.019 61.6004 233.019 61.6004L241.025 52.2045C241.025 52.2045 289.234 73.9037 303.856 83.6367Z" fill="#FBB99D"/>
<path d="M240.098 51.4039C239.64 50.1546 239.343 48.852 239.213 47.5276C238.477 45.1847 237.336 42.9888 235.842 41.0389C235.084 39.9013 234.789 36.8254 233.019 36.5305C230.153 36.2777 232.134 41.5866 232.134 42.8506C232.187 43.4334 232.052 44.0179 231.749 44.5183C231.445 45.0187 230.989 45.4089 230.448 45.6315C229.673 45.7724 228.874 45.6539 228.173 45.2944C225.855 44.3253 223.706 43.0192 221.515 41.8395C220.377 41.2074 219.197 40.7018 218.017 40.154C217.135 39.556 216.188 39.0612 215.193 38.6794C215.006 38.6358 214.811 38.6341 214.623 38.6746C214.435 38.715 214.258 38.7965 214.105 38.9132C213.952 39.0299 213.827 39.1791 213.738 39.3499C213.649 39.5207 213.6 39.7089 213.592 39.9012C213.592 40.6175 214.393 40.7861 214.899 41.1232L218.396 43.6512C218.649 43.8619 219.913 44.5361 219.913 44.8731C219.913 46.5585 216.584 44.8731 216.036 44.4939C214.692 43.6854 213.135 43.3035 211.569 43.3984C211.359 43.3984 211.106 43.3984 211.022 43.6933C210.937 43.9883 211.022 44.3254 211.359 44.536C212.876 45.8001 214.772 46.5585 216.247 47.8646C216.458 48.0753 216.71 48.3703 216.626 48.6652C216.331 49.8871 213.887 49.1708 213.044 49.0023C212.202 48.8337 211.864 48.7916 211.569 49.2551C211.475 49.3991 211.425 49.5675 211.425 49.7396C211.425 49.9118 211.475 50.0801 211.569 50.2242C211.813 50.4805 212.098 50.6942 212.412 50.8562C213.278 51.4318 214.178 51.9525 215.109 52.4152C215.573 52.6258 216.963 53.0893 216.837 53.7635C216.711 54.4376 216.837 53.9741 216.584 54.0584C216.127 54.1645 215.651 54.1645 215.193 54.0584C214.688 54.0584 214.14 54.0584 213.929 54.6062C213.719 55.1539 214.14 55.7016 214.646 56.0808C216.452 57.3101 218.424 58.2749 220.503 58.946C222.652 59.7465 224.717 60.505 227.035 61.137C229.958 61.9795 232.927 62.6547 235.927 63.1594C238.579 63.8716 241.396 63.6331 243.891 62.4853C245.386 61.4855 246.65 60.1783 247.599 58.651C248.094 57.752 248.244 56.7033 248.021 55.7016C247.976 55.5754 247.904 55.4604 247.81 55.3645C247.681 55.2407 247.521 55.1535 247.347 55.1118C245.985 54.836 244.646 54.4557 243.343 53.9741C242.041 53.4406 240.916 52.5496 240.098 51.4039Z" fill="#FBB99D"/>
<path d="M276.663 137.378L235.335 133.086L229.64 187.902L270.968 192.194L276.663 137.378Z" fill="#2D2C44"/>
<path d="M272.501 140.288L238.844 136.792L233.802 185.323L267.46 188.818L272.501 140.288Z" fill="#D9ECFF"/>
<path d="M262.18 141.951L249.243 140.602C248.743 140.556 248.257 140.409 247.816 140.169C247.375 139.93 246.987 139.603 246.675 139.209C246.364 138.815 246.136 138.362 246.005 137.877C245.874 137.392 245.843 136.886 245.914 136.389C245.96 135.889 246.108 135.404 246.347 134.962C246.587 134.521 246.913 134.133 247.307 133.822C247.701 133.511 248.155 133.283 248.64 133.152C249.124 133.021 249.631 132.99 250.128 133.06L263.065 134.367C264.061 134.493 264.968 135.005 265.59 135.793C266.213 136.581 266.501 137.582 266.394 138.58C266.342 139.079 266.191 139.563 265.95 140.003C265.709 140.444 265.383 140.832 264.991 141.146C264.599 141.459 264.149 141.692 263.666 141.83C263.184 141.968 262.679 142.009 262.18 141.951Z" fill="#FFA60E"/>
<path d="M269.115 145.806L241.325 142.92L241.177 144.345L268.967 147.231L269.115 145.806Z" fill="#F3FAFF"/>
<path d="M268.825 148.626L241.035 145.74L240.887 147.165L268.677 150.051L268.825 148.626Z" fill="#F3FAFF"/>
<path d="M268.241 154.307L240.451 151.421L240.303 152.846L268.093 155.732L268.241 154.307Z" fill="#F3FAFF"/>
<path d="M267.946 157.168L240.156 154.282L240.008 155.707L267.798 158.593L267.946 157.168Z" fill="#F3FAFF"/>
<path d="M267.067 165.711L239.277 162.825L239.129 164.25L266.919 167.136L267.067 165.711Z" fill="#F3FAFF"/>
<path d="M266.73 168.615L238.94 165.729L238.792 167.153L266.582 170.039L266.73 168.615Z" fill="#F3FAFF"/>
<path d="M266.188 174.253L238.398 171.367L238.25 172.792L266.04 175.678L266.188 174.253Z" fill="#F3FAFF"/>
<path d="M265.898 177.073L238.108 174.187L237.96 175.612L265.75 178.498L265.898 177.073Z" fill="#F3FAFF"/>
<path d="M132.556 123.622C132.556 123.622 142.754 138.454 167.828 152.484C167.828 152.484 144.903 164.24 140.563 181.599C140.563 181.599 98.4227 146.923 85.7806 149.324C85.6542 149.324 118.313 142.161 132.556 123.622Z" fill="#9BC3EA"/>
<path d="M74.2417 227.103C74.2417 227.103 84.2547 220.619 93.96 204.334C93.96 204.334 101.429 219.598 112.903 222.719C112.903 222.719 89.2159 249.92 90.6217 258.275C90.6198 258.359 86.3509 236.759 74.2417 227.103Z" fill="#9BC3EA"/>
<path d="M133.061 132.639L155.817 152.063L153.584 153.411L130.575 133.65L133.061 132.639Z" fill="#D9ECFF"/>
<path d="M129.14 135.562L151.896 154.944L149.663 156.292L126.696 136.573L129.14 135.562Z" fill="#D9ECFF"/>
<path d="M124.845 138.749L147.642 158.13L145.409 159.479L122.4 139.718L124.845 138.749Z" fill="#D9ECFF"/>
<path d="M120.038 141.756L142.836 161.137L140.56 162.486L117.594 142.725L120.038 141.756Z" fill="#D9ECFF"/>
<path d="M115.152 144.816L137.908 164.24L135.674 165.588L112.708 145.827L115.152 144.816Z" fill="#D9ECFF"/>
<path d="M110.391 147.934L133.146 167.358L130.913 168.664L107.904 148.945L110.391 147.934Z" fill="#D9ECFF"/>
<path d="M69.3192 63.8226C66.6184 53.0027 61.6747 42.8776 54.8115 34.1096C54.8115 34.1096 73.3847 33.2927 81.4731 23.1447C81.4731 23.1447 98.5912 58.7056 107.835 60.9846C107.835 60.9846 84.2548 55.9106 69.3192 63.8226Z" fill="#D9ECFF"/>
<path d="M340.84 182.301L335.168 168.306L309.674 181.51L307.215 199.712L340.84 182.301Z" fill="#9BC3EA"/>
<path d="M308.834 33.7994C319.555 34.7029 330.346 33.3257 340.502 29.7574C340.502 29.7574 335.41 46.9574 342.129 57.7934C342.129 57.7934 304.255 62.4374 299.333 70.1773C299.29 70.0483 311.359 49.9244 308.834 33.7994Z" fill="#9BC3EA"/>
</g>
<defs>
<clipPath id="clip0_218_3428">
<rect width="304" height="259" fill="white" transform="translate(46)"/>
</clipPath>
</defs>
</svg>
