<svg width="396" height="311" viewBox="0 0 396 311" fill="none" xmlns="http://www.w3.org/2000/svg">
<g clip-path="url(#clip0_47_1422)">
<path d="M376.503 224.105C332.2 300.604 220.689 330.178 127.483 290.161C34.2778 250.144 -32.7967 166.702 16.8259 92.6587C53.2096 38.3197 115.484 73.5167 181.919 53.4221C231.782 38.3197 244.234 -0.297179 302.709 3.22596C419.459 10.2722 420.793 147.617 376.503 224.105Z" fill="url(#paint0_linear_47_1422)"/>
<path d="M114.71 131.92C114.71 131.92 98.4739 82.3837 155.107 88.4295C211.741 94.4753 184.682 72.5498 206.082 58.9436C227.482 45.3373 290.537 87.6676 264.157 128.496C237.777 169.324 306.315 131.976 320.612 193.373C329.435 231.262 307.546 259.15 289.488 274.958" stroke="#CCDDE2" stroke-miterlimit="10"/>
<path d="M295.01 227.621C290.755 202.21 275.685 179.469 251.202 171.33C244.939 169.26 238.535 167.675 232.043 166.588V166.622C231.705 168.731 230.903 170.734 229.699 172.475C227.148 176.079 223.631 179.04 219.559 180.583C215.402 182.169 210.254 182.374 206.396 179.88C204.073 178.381 201.82 175.74 201.413 172.892C200.948 169.682 202.535 166.644 204.767 164.523C185.849 164.681 168.053 167.891 153.792 171.545C154.287 173.679 154.971 175.761 155.837 177.765C157.049 180.559 158.762 183.091 160.886 185.229C163.536 182.523 165.855 179.495 167.794 176.21C169.648 176.836 171.283 178.01 172.496 179.587C173.708 181.163 174.445 183.072 174.613 185.077V185.179C175.361 192.46 168.563 197.93 162.85 201.295C156.25 205.208 148.894 208.137 141.667 210.572C138.687 211.58 134.814 212.438 131.668 211.387C131.329 211.276 130.999 211.14 130.679 210.98C127.542 209.394 125.442 206.069 123.804 203.031C119.138 194.4 116.104 184.993 114.047 175.336C99.7709 177.218 98.1361 167.25 97.2885 164.806L85.0757 200.008C84.435 202.538 84.366 205.186 84.873 207.749C85.3803 210.311 86.4508 212.719 88.0021 214.788C89.553 216.857 91.5437 218.532 93.8207 219.684C96.098 220.836 98.6009 221.434 101.137 221.433H151.696L174.662 282.171L181.171 299.41H218.349C215.333 299.41 213.683 298.651 212.486 297.413C211.249 296.137 210.553 294.408 210.549 292.605C210.549 288.873 213.52 285.813 218.349 285.813H218.69C218.325 285.813 217.975 285.778 217.61 285.744C217.836 285.719 218.061 285.681 218.283 285.629C218.044 285.623 217.805 285.605 217.568 285.573C219.746 285.308 221.764 284.262 223.27 282.618C224.776 280.974 225.673 278.836 225.805 276.579C225.811 276.462 225.811 276.345 225.805 276.228V276.047C225.754 273.733 224.895 271.515 223.389 269.8C221.882 268.084 219.826 266.984 217.598 266.702C217.852 266.68 218.093 266.658 218.337 266.658C218.117 266.602 217.873 266.568 217.643 266.534C218.005 266.5 218.37 266.475 218.72 266.475L245.921 266.624L250.925 266.646H256.864C257.138 266.646 257.416 266.646 257.678 266.68L266.501 266.727L272.395 266.761C274.858 266.782 277.212 267.808 278.944 269.615C280.675 271.422 281.642 273.862 281.633 276.402C281.63 277.838 281.307 279.254 280.689 280.541C283.218 280.208 285.563 279.002 287.343 277.12C291.587 272.651 293.415 265.962 294.679 260.015C296.914 249.423 296.781 238.261 295.01 227.621ZM226.288 228.337C221.163 236.469 212.437 235.739 212.437 235.739C212.437 235.739 211.713 236.466 210.024 233.369C208.335 230.271 203.524 228.153 203.524 228.153C203.141 231.263 202.348 235.991 194.475 229.864C186.603 223.737 188.977 214.805 189.649 210.087C190.322 205.369 193.004 203.805 193.004 203.805L196.171 202.082C196.171 202.082 187.01 199.653 186.57 199.563C186.129 199.473 177.97 192.429 186.25 190.569C194.53 188.709 207.436 196.105 209.931 197.566C212.425 199.028 227.003 211.742 227.003 211.742C227.003 211.742 231.44 220.217 226.288 228.337Z" fill="#353642"/>
<path d="M114.035 175.342C114.035 175.342 120.939 174.477 123.524 169.396L121.271 182.43C121.271 182.43 148.737 172.789 153.774 171.545C153.774 171.545 155.397 182.333 161.858 185.229L168.524 176.489C168.524 176.489 176.882 178.666 174.595 190.41C172.309 202.153 140.687 211.968 135.324 211.741C129.961 211.514 124.188 208.112 118.276 189.828L114.035 175.342Z" fill="#353642"/>
<path d="M125.283 146.307C127.032 149.243 128.791 152.173 130.606 155.065C131.725 156.847 133.764 159.388 131.596 161.251C130.89 161.809 130.037 162.134 129.149 162.184C127.756 162.311 126.293 161.966 125.445 160.731L121.223 153.516C120.381 152.077 119.045 151.018 117.48 150.549C115.915 150.08 114.236 150.235 112.777 150.985" stroke="black" stroke-miterlimit="10"/>
<path d="M141.254 155.81C142.358 158.516 141.61 160.261 140.319 161.138C138.207 162.565 135.381 161.881 133.885 159.797L125.298 146.322" stroke="black" stroke-miterlimit="10"/>
<path d="M132.552 142.389C135.676 146.307 139.619 153.585 141.799 156.623C143.98 159.662 147.352 157.83 147.352 157.83C150.091 156.309 149.627 153.787 148.429 150.723C145.479 143.203 141.269 138.203 136.572 134.925C122.019 124.774 107.088 132.263 102.645 149.784L85.0757 200.008C84.435 202.538 84.366 205.186 84.873 207.749C85.3803 210.311 86.4508 212.719 88.0021 214.789C89.553 216.858 91.5437 218.532 93.8207 219.684C96.098 220.836 98.6009 221.434 101.137 221.432H151.696L181.18 299.413" stroke="black" stroke-miterlimit="10"/>
<path d="M150.604 147.274C154.224 145.98 154.058 140.028 148.921 138.019C143.247 135.798 133.173 132.657 130.642 131.873C130.627 131.861 130.608 131.854 130.588 131.852C130.41 131.796 130.286 131.749 130.19 131.727L130.048 131.681" stroke="black" stroke-miterlimit="10"/>
<path d="M204.083 206.79C200.915 202.865 192.247 200.641 186.588 199.565C185.637 199.381 184.77 198.883 184.117 198.147C183.464 197.41 183.061 196.475 182.969 195.482C182.903 194.812 182.978 194.135 183.189 193.498C183.526 192.519 184.173 191.685 185.024 191.131C185.875 190.576 186.883 190.332 187.885 190.437C197.537 191.445 207.491 194.577 214.854 201.322C214.854 201.322 250.545 229.406 254.807 232.139C256.566 233.24 258.206 231.94 257.015 230.211L256.641 229.552C254.543 225.84 252.06 222.374 249.236 219.214" stroke="black" stroke-miterlimit="10"/>
<path d="M204.743 164.519C159.855 164.905 121.271 182.426 121.271 182.426L125.123 160.165" stroke="black" stroke-miterlimit="10"/>
<path d="M274.461 285.675C274.461 285.675 269.571 284.534 268.271 288.57C266.971 292.607 265.614 299.029 274.961 299.409C284.309 299.788 278.819 297.894 278.279 294.775C277.739 291.656 274.461 285.675 274.461 285.675Z" fill="#353642"/>
<path d="M199.769 211.913C199.769 211.913 194.494 207.789 189.743 211.969C189.543 212.15 189.369 212.359 189.224 212.591" stroke="black" stroke-miterlimit="10"/>
<g opacity="0.77">
<path opacity="0.77" d="M133.867 159.783C135.375 161.87 138.198 162.551 140.301 161.12C141.577 160.249 142.325 158.514 141.248 155.833C141.444 156.129 141.622 156.39 141.797 156.629C143.974 159.68 147.35 157.842 147.35 157.842C150.088 156.321 149.627 153.799 148.429 150.733C147.258 147.696 145.72 144.822 143.854 142.18C145.075 141.002 146.526 139.81 148.055 140.333C149.705 140.899 150.167 143.032 150.354 144.811C150.441 145.639 150.529 146.457 150.616 147.284L151.937 159.463C152.378 163.506 152.818 167.608 153.774 171.554C154.269 173.688 154.953 175.77 155.819 177.774C157.032 180.568 158.744 183.1 160.869 185.238C163.518 182.532 165.837 179.504 167.776 176.219C169.63 176.845 171.266 178.019 172.478 179.596C173.69 181.172 174.427 183.081 174.596 185.086V185.189C175.344 192.469 168.545 197.94 162.832 201.305C156.233 205.217 148.876 208.147 141.649 210.582C138.669 211.589 134.796 212.448 131.65 211.396C131.311 211.285 130.981 211.149 130.661 210.989C127.524 209.403 125.424 206.078 123.787 203.04C115.944 188.501 112.687 171.806 110.971 155.273C114.403 154.785 117.823 154.241 121.202 153.491C121.202 153.491 121.202 153.516 121.223 153.526L125.117 160.184L125.437 160.738C126.281 161.982 127.744 162.314 129.14 162.19C130.028 162.145 130.881 161.819 131.584 161.257C133.749 159.391 131.716 156.86 130.594 155.077" fill="white"/>
<path opacity="0.77" d="M133.867 159.783C135.375 161.87 138.198 162.551 140.301 161.12C141.577 160.249 142.325 158.514 141.248 155.833C141.444 156.129 141.622 156.39 141.797 156.629C143.974 159.68 147.35 157.842 147.35 157.842C150.088 156.321 149.627 153.799 148.429 150.733C147.258 147.696 145.72 144.822 143.854 142.18C145.075 141.002 146.526 139.81 148.055 140.333C149.705 140.899 150.167 143.032 150.354 144.811C150.441 145.639 150.529 146.457 150.616 147.284L151.937 159.463C152.378 163.506 152.818 167.608 153.774 171.554C154.269 173.688 154.953 175.77 155.819 177.774C157.032 180.568 158.744 183.1 160.869 185.238C163.518 182.532 165.837 179.504 167.776 176.219C169.63 176.845 171.266 178.019 172.478 179.596C173.69 181.172 174.427 183.081 174.596 185.086V185.189C175.344 192.469 168.545 197.94 162.832 201.305C156.233 205.217 148.876 208.147 141.649 210.582C138.669 211.589 134.796 212.448 131.65 211.396C131.311 211.285 130.981 211.149 130.661 210.989C127.524 209.403 125.424 206.078 123.787 203.04C115.944 188.501 112.687 171.806 110.971 155.273C114.403 154.785 117.823 154.241 121.202 153.491C121.202 153.491 121.202 153.516 121.223 153.526L125.117 160.184L125.437 160.738C126.281 161.982 127.744 162.314 129.14 162.19C130.028 162.145 130.881 161.819 131.584 161.257C133.749 159.391 131.716 156.86 130.594 155.077" fill="#3FBDF1"/>
<path opacity="0.77" d="M134.793 160.769C136.129 162.635 138.413 162.398 140.301 161.12C141.441 160.343 142.376 160.57 141.414 158.172C141.592 158.433 141.616 157.55 141.773 157.746C143.718 160.47 141.797 156.62 141.797 156.62C144.511 160.156 150.42 156.825 149.337 154.092C148.191 151.146 146.985 146.792 145.456 144.615C146.662 143.44 146.43 143.614 147.965 144.55C148.377 144.823 148.723 145.192 148.973 145.626C149.224 146.061 149.374 146.549 149.41 147.054C149.534 148.238 149.657 149.374 149.781 150.531L150.957 161.416C151.352 165.032 151.744 168.687 152.598 172.207C153.039 174.111 153.651 175.968 154.426 177.755C155.506 180.216 158.974 184.311 160.869 186.187C163.224 183.776 166.048 179.345 167.776 176.4C171.094 177.451 170.949 180.722 171.184 184.296V184.389C171.854 190.886 165.785 195.766 160.7 198.773C154.806 202.265 148.24 204.878 141.788 207.055C139.127 207.957 135.671 208.734 132.863 207.783C132.56 207.684 132.264 207.562 131.979 207.419C129.18 206.001 127.304 203.037 125.841 200.322C119.437 188.463 116.466 175 114.831 161.503C114.711 160.493 114.976 159.474 115.571 158.662C116.165 157.85 117.042 157.307 118.017 157.149C119.853 156.838 121.684 156.527 123.503 156.11L123.554 156.135L127.029 162.078C127.786 163.182 127.91 162.317 129.156 162.205C129.943 162.134 131.469 161.975 132.078 161.45C134.012 159.789 132.92 159.102 131.919 157.513" fill="#3FBDF1"/>
</g>
<path d="M199.132 217.915C199.132 217.915 189.115 214.519 188.965 220.229" stroke="black" stroke-miterlimit="10"/>
<path opacity="0.54" d="M109.468 276.08L89.8234 224.187C89.58 223.183 89.5619 222.135 89.77 221.122C89.9784 220.11 90.4079 219.159 91.0257 218.344C91.6437 217.528 92.4336 216.868 93.3361 216.414C94.2383 215.96 95.2291 215.725 96.2329 215.725H174.264C176.016 215.724 177.717 216.332 179.093 217.451C180.469 218.569 181.44 220.132 181.85 221.889L203.355 273.77C203.588 274.77 203.597 275.813 203.383 276.818C203.169 277.823 202.737 278.765 202.118 279.573C201.5 280.381 200.713 281.034 199.815 281.484C198.917 281.933 197.932 282.166 196.934 282.167H117.036C115.297 282.168 113.608 281.569 112.236 280.466C110.865 279.364 109.891 277.82 109.468 276.08Z" fill="white"/>
<path d="M202.393 226.669C202.393 226.669 204.019 228.205 203.401 230.401C202.942 232.027 201.374 233.053 199.821 232.497C194.874 230.733 190.419 227.738 189.333 222.647C188.82 220.07 188.709 217.424 189.004 214.81C189.243 212.387 189.589 209.772 190.38 207.467C191.586 203.928 195.281 201.462 198.867 203.166" stroke="black" stroke-miterlimit="10"/>
<path d="M109.468 276.08L89.8234 224.187C89.58 223.183 89.5619 222.135 89.77 221.122C89.9784 220.11 90.4079 219.159 91.0257 218.344C91.6437 217.528 92.4336 216.868 93.3361 216.414C94.2383 215.96 95.2291 215.725 96.2329 215.725H174.264C176.016 215.724 177.717 216.332 179.093 217.451C180.469 218.569 181.44 220.132 181.85 221.889L203.355 273.77C203.588 274.77 203.597 275.813 203.383 276.818C203.169 277.823 202.737 278.765 202.118 279.573C201.5 280.381 200.713 281.034 199.815 281.484C198.917 281.933 197.932 282.166 196.934 282.167H117.036C115.297 282.168 113.608 281.569 112.236 280.466C110.865 279.364 109.891 277.82 109.468 276.08Z" fill="#3FBDF1"/>
<path d="M109.468 276.08L89.8234 224.187C89.58 223.183 89.5619 222.135 89.77 221.122C89.9784 220.11 90.4079 219.159 91.0257 218.344C91.6437 217.528 92.4336 216.868 93.3361 216.414C94.2383 215.96 95.2291 215.725 96.2329 215.725H174.264C176.016 215.724 177.717 216.332 179.093 217.451C180.469 218.569 181.44 220.132 181.85 221.889L203.355 273.77C203.588 274.77 203.597 275.813 203.383 276.818C203.169 277.823 202.737 278.765 202.119 279.573C201.5 280.381 200.713 281.034 199.815 281.484C198.917 281.933 197.932 282.166 196.934 282.167H117.036C115.297 282.168 113.608 281.569 112.236 280.466C110.865 279.364 109.891 277.82 109.468 276.08Z" stroke="black" stroke-linecap="square" stroke-linejoin="round"/>
<path d="M112.343 273.99L94.2181 226.096C93.9939 225.17 93.9777 224.203 94.1701 223.269C94.3625 222.335 94.7589 221.458 95.3292 220.706C95.8993 219.954 96.6283 219.345 97.4605 218.927C98.293 218.508 99.207 218.29 100.133 218.29H172.119C173.735 218.29 175.305 218.85 176.574 219.882C177.844 220.913 178.739 222.355 179.117 223.975L198.961 271.841C199.175 272.765 199.183 273.727 198.985 274.654C198.788 275.581 198.388 276.45 197.818 277.196C197.248 277.941 196.521 278.544 195.692 278.958C194.864 279.373 193.955 279.588 193.034 279.588H119.322C117.72 279.59 116.164 279.04 114.9 278.026C113.636 277.012 112.736 275.592 112.343 273.99Z" fill="#3FBDF1"/>
<path d="M266.404 266.477L280.207 299.409" stroke="black" stroke-miterlimit="10"/>
<path d="M331.881 299.409H60.4178" stroke="black" stroke-miterlimit="10"/>
<path d="M203.5 150.776C201.262 153.055 197.92 153.052 196.017 150.944" stroke="black" stroke-miterlimit="10"/>
<path d="M143.854 142.17C145.075 140.992 146.526 139.8 148.055 140.323C149.705 140.889 150.167 143.022 150.354 144.801C150.883 149.69 151.41 154.574 151.937 159.453C152.607 165.673 153.313 172.042 155.819 177.758C157.032 180.552 158.745 183.084 160.869 185.222" stroke="black" stroke-miterlimit="10"/>
<path d="M174.595 185.185V185.082C174.427 183.078 173.69 181.169 172.478 179.592C171.265 178.016 169.63 176.842 167.776 176.216C165.837 179.5 163.518 182.529 160.868 185.235C153.923 192.356 145 197.072 135.339 198.729C135.803 200.635 136.759 202.371 137.42 204.206C138.081 206.04 138.409 208.165 137.607 209.934C136.594 212.192 133.686 211.897 131.665 211.396C131.644 211.396 131.632 211.396 131.611 211.396" stroke="black" stroke-miterlimit="10"/>
<path d="M121.208 153.488C117.829 154.238 114.409 154.782 110.976 155.27C112.693 171.803 115.938 188.498 123.792 203.037C125.43 206.075 127.53 209.4 130.667 210.986C130.987 211.146 131.317 211.282 131.656 211.393C134.802 212.46 138.675 211.586 141.655 210.579C148.894 208.14 156.238 205.214 162.838 201.301C168.536 197.933 175.334 192.466 174.601 185.185C174.531 184.384 174.372 183.593 174.128 182.828" stroke="black" stroke-miterlimit="10"/>
<path d="M177.696 120.509C178.202 122.685 179.358 124.643 181 126.106C182.642 127.569 184.689 128.463 186.85 128.663C187.03 127.766 187.419 126.926 187.985 126.219C190.398 123.286 191.426 128.788 199.145 124.838C209.84 119.352 213.9 122.5 213.9 122.5C214.256 122.773 214.202 125.298 214.262 125.759C214.564 128.38 214.835 130.99 215.134 133.608C215.315 135.207 215.493 136.793 215.662 138.379C215.807 138.109 215.969 137.848 216.144 137.598C217.119 134.044 218.859 129.845 222.611 131.652C223.371 132.034 224.033 132.596 224.542 133.291C227.03 136.662 225.145 139.918 222.542 142.329C221.889 143.077 221.16 143.749 220.367 144.335C220.795 145.249 222.545 148.879 222.545 148.891C222.726 149.258 228.84 142.123 229.295 141.346C229.976 139.441 230.341 137.432 230.375 135.403C230.475 127.059 227.181 117.346 220.627 112.56C219.001 111.375 219.52 110.233 219.42 108.622C219.413 108.535 219.381 108.453 219.327 108.385C219.274 108.317 219.201 108.268 219.12 108.243C219.039 108.218 218.952 108.22 218.872 108.247C218.791 108.274 218.721 108.326 218.669 108.396C216.615 110.834 211.53 110.591 211.53 110.591C193.878 106.032 187.945 114.124 184.383 115.567C182.93 116.135 181.33 116.162 179.859 115.645C179.772 116.147 179.554 116.615 179.228 116.999C178.902 117.383 178.481 117.667 178.01 117.822L178.1 118.665C178.177 119.309 178.034 119.961 177.696 120.509Z" fill="#3FBDF1"/>
<path d="M186.863 128.677C184.701 128.477 182.655 127.582 181.012 126.119C179.37 124.656 178.214 122.699 177.708 120.523C177.51 119.688 177.385 118.836 177.334 117.979L177.473 117.963C177.663 117.948 177.849 117.906 178.028 117.839C178.499 117.684 178.921 117.399 179.247 117.015C179.572 116.632 179.79 116.164 179.877 115.662C179.932 115.383 179.943 115.098 179.91 114.816L179.458 110.698C179.458 110.698 182.649 113.146 186.19 111.715C189.731 110.284 195.676 102.192 213.336 106.739C213.336 106.739 217.324 106.982 219.369 104.543C219.42 104.474 219.491 104.422 219.572 104.395C219.652 104.368 219.739 104.366 219.82 104.391C219.901 104.416 219.974 104.465 220.027 104.533C220.081 104.6 220.113 104.683 220.12 104.77C220.226 106.385 220.805 107.526 222.433 108.708C228.988 113.497 232.282 123.207 232.179 131.551C232.149 135.012 231.033 138.43 229.311 141.363C228.855 142.14 222.741 149.275 222.56 148.908C222.56 148.908 220.811 145.266 220.382 144.351L220.28 144.149L220.476 144.016C221.204 143.506 221.899 142.948 222.557 142.345C225.157 139.935 227.045 136.679 224.557 133.308C224.047 132.612 223.386 132.051 222.626 131.669C218.862 129.862 217.134 134.06 216.16 137.615C215.971 138.294 215.854 138.993 215.813 139.699C215.768 139.263 215.722 138.844 215.677 138.408C215.508 136.822 215.33 135.236 215.149 133.637C214.848 131.019 214.564 128.41 214.277 125.788C214.232 125.34 214.277 122.802 213.916 122.529C213.916 122.529 209.853 119.381 199.16 124.867C191.441 128.817 190.413 123.312 188 126.248C187.435 126.956 187.045 127.795 186.866 128.693C186.81 128.981 186.775 129.273 186.76 129.566C186.754 129.604 186.754 129.643 186.76 129.682C186.724 130.325 186.712 130.966 186.697 131.594C186.639 137.656 187.285 143.988 189.592 149.617C192.398 156.44 199.821 163.17 207.539 159.989C209.952 158.99 212.115 157.382 214.093 155.675" stroke="black" stroke-miterlimit="10"/>
<path d="M192.145 143.46C192.912 143.195 193.283 142.204 192.972 141.246C192.661 140.289 191.787 139.727 191.019 139.992C190.252 140.257 189.881 141.248 190.192 142.206C190.503 143.163 191.377 143.725 192.145 143.46Z" fill="black"/>
<path d="M203.629 143.081C204.397 142.816 204.767 141.825 204.457 140.867C204.146 139.909 203.271 139.348 202.504 139.613C201.736 139.878 201.365 140.869 201.676 141.826C201.987 142.784 202.861 143.346 203.629 143.081Z" fill="black"/>
<path d="M199.238 145.132C199.238 145.132 195.417 147.368 195.184 145.048C195.112 144.333 194.177 137.326 194.177 137.326C194.177 137.326 191.088 133.951 186.356 136.446" stroke="black" stroke-miterlimit="10"/>
<path d="M198.379 135.363C198.379 135.363 204.55 132.184 208.634 136.765" stroke="black" stroke-miterlimit="10"/>
<path d="M204.037 160.769L204.746 164.519C202.511 166.644 200.93 169.688 201.392 172.895C201.802 175.737 204.058 178.384 206.372 179.874C210.238 182.362 215.381 182.166 219.544 180.583C223.613 179.028 227.132 176.076 229.684 172.475C230.886 170.734 231.686 168.733 232.025 166.625V166.588" stroke="black" stroke-miterlimit="10"/>
<path d="M204.746 164.519L206.127 171.293" stroke="black" stroke-miterlimit="10"/>
<path d="M224.282 147.274L226.369 161.565C226.575 162.964 227.261 164.24 228.302 165.162C229.343 166.083 230.671 166.589 232.043 166.588C238.539 167.673 244.947 169.257 251.214 171.327C275.697 179.469 290.767 202.209 295.023 227.618C296.793 238.257 296.926 249.416 294.703 259.996C293.439 265.952 291.611 272.642 287.367 277.101C281.857 282.917 273.399 280.522 266.887 277.894C246.669 269.787 229.853 255.362 215.333 238.848C207.569 230.016 197.537 222.938 197.537 222.938" stroke="black" stroke-miterlimit="10"/>
<path d="M119.024 263.272C116.755 263.25 114.78 261.362 114.27 258.734C113.263 253.565 112.997 245.573 120.348 243.828C129.532 241.651 136.596 251.964 140.059 258.482C141.223 260.659 139.905 263.458 137.736 263.458L119.024 263.272Z" fill="#D7E8F0"/>
<path d="M122.056 239.439C124.006 238.101 124.036 234.614 122.123 231.649C120.21 228.685 117.078 227.366 115.128 228.704C113.178 230.042 113.148 233.53 115.061 236.494C116.974 239.458 120.106 240.777 122.056 239.439Z" fill="#D7E8F0"/>
<path d="M272.995 285.846C272.853 285.868 272.693 285.889 272.555 285.924H272.5L251.046 285.808L218.853 285.637C218.729 285.637 218.609 285.637 218.488 285.637C218.249 285.632 218.01 285.613 217.773 285.581C219.954 285.32 221.976 284.274 223.483 282.627C224.99 280.981 225.885 278.838 226.011 276.578C226.017 276.461 226.017 276.344 226.011 276.227V276.046C226.002 273.835 225.254 271.694 223.894 269.984C222.534 268.274 220.644 267.099 218.542 266.657C218.322 266.601 218.081 266.567 217.849 266.533C218.214 266.499 218.576 266.474 218.929 266.474L246.126 266.623L251.133 266.645L257.887 266.679C260.199 266.897 262.349 267.996 263.918 269.762C265.485 271.527 266.358 273.833 266.365 276.227C266.366 276.678 266.332 277.13 266.266 277.576C265.944 279.856 264.84 281.94 263.154 283.451C261.468 284.962 259.312 285.798 257.078 285.808H273.42C272.479 285.808 272.742 285.808 272.995 285.846Z" fill="white"/>
<path d="M229.476 297.413C230.089 298.048 230.818 298.552 231.621 298.895C232.425 299.238 233.286 299.412 234.155 299.41H218.355C215.339 299.41 213.692 298.651 212.492 297.413C211.258 296.135 210.564 294.408 210.558 292.605C210.558 288.873 213.526 285.813 218.355 285.813H234.155C232.85 285.811 231.575 286.208 230.49 286.954C229.404 287.7 228.558 288.762 228.059 290.004C227.56 291.247 227.429 292.614 227.684 293.933C227.939 295.252 228.568 296.463 229.491 297.413H229.476Z" fill="#D7E8F0"/>
<path d="M281.655 276.397C281.651 277.834 281.326 279.25 280.708 280.537C280.265 281.51 279.659 282.393 278.916 283.146C277.691 284.398 276.153 285.273 274.473 285.675C273.78 285.839 273.072 285.923 272.362 285.923C272.506 285.889 272.663 285.867 272.802 285.846C272.549 285.821 272.286 285.811 273.23 285.811H256.885C259.12 285.803 261.278 284.966 262.966 283.455C264.653 281.943 265.758 279.857 266.079 277.576C266.145 277.13 266.178 276.678 266.178 276.226C266.171 273.832 265.298 271.526 263.729 269.76C262.161 267.995 260.009 266.896 257.696 266.679L266.519 266.725L272.413 266.76C274.876 266.781 277.23 267.807 278.962 269.613C280.694 271.419 281.662 273.858 281.655 276.397Z" fill="#3FBDF1"/>
<path d="M281.654 276.395C281.636 278.936 280.642 281.366 278.889 283.153C277.137 284.94 274.769 285.937 272.304 285.927L218.639 285.641C218.28 285.641 217.921 285.613 217.559 285.576C219.821 285.312 221.91 284.201 223.432 282.454C224.952 280.707 225.799 278.446 225.811 276.099C225.823 273.752 224.999 271.481 223.496 269.718C221.993 267.955 219.915 266.822 217.655 266.533C218.014 266.494 218.375 266.476 218.735 266.477L272.401 266.763C274.865 266.781 277.222 267.804 278.956 269.609C280.691 271.414 281.661 273.854 281.654 276.395Z" stroke="black" stroke-linecap="square" stroke-linejoin="round"/>
<path d="M266.172 276.224C266.167 278.764 265.186 281.199 263.444 282.996C261.702 284.792 259.34 285.804 256.876 285.809H218.693C218.332 285.807 217.972 285.786 217.613 285.747C219.873 285.47 221.957 284.348 223.469 282.593C224.981 280.838 225.816 278.572 225.816 276.225C225.816 273.878 224.981 271.613 223.469 269.858C221.957 268.103 219.873 266.981 217.613 266.704C217.972 266.67 218.334 266.645 218.693 266.645H256.876C259.339 266.651 261.699 267.662 263.441 269.456C265.183 271.252 266.165 273.685 266.172 276.224Z" stroke="black" stroke-linecap="square" stroke-linejoin="round"/>
<path d="M210.558 292.607C210.558 293.499 210.729 294.382 211.06 295.206C211.391 296.03 211.877 296.779 212.489 297.409C213.695 298.653 215.333 299.409 218.352 299.409H273.227C272.283 299.409 272.54 299.39 272.796 299.365C271.19 299.17 269.71 298.374 268.636 297.129C267.561 295.883 266.968 294.274 266.968 292.607C266.968 290.94 267.561 289.331 268.636 288.085C269.71 286.84 271.19 286.044 272.796 285.849C272.54 285.824 272.283 285.805 273.227 285.805H218.352C213.52 285.809 210.558 288.869 210.558 292.607Z" stroke="black" stroke-linecap="square" stroke-linejoin="round"/>
<path d="M227.54 292.607C227.544 294.41 228.24 296.137 229.476 297.412C230.713 298.687 232.388 299.405 234.136 299.409H272.03C272.283 299.409 272.539 299.39 272.796 299.365C271.19 299.17 269.71 298.374 268.636 297.129C267.561 295.883 266.968 294.274 266.968 292.607C266.968 290.94 267.561 289.331 268.636 288.085C269.71 286.84 271.19 286.044 272.796 285.849C272.539 285.824 272.283 285.805 272.03 285.805H234.136C232.389 285.81 230.713 286.529 229.477 287.803C228.241 289.077 227.545 290.805 227.54 292.607Z" stroke="black" stroke-linecap="square" stroke-linejoin="round"/>
<path d="M166.113 240.714H149.186C148.412 240.713 147.654 240.479 147.006 240.042C146.358 239.604 145.848 238.982 145.537 238.251C145.417 237.979 145.365 237.68 145.387 237.381C145.409 237.083 145.504 236.796 145.663 236.545C145.822 236.295 146.04 236.091 146.296 235.951C146.553 235.811 146.839 235.74 147.129 235.744H165.124C164.277 237.215 164.708 239.259 166.113 240.714Z" fill="#D7E8F0"/>
<path d="M177.06 238.916C177.059 239.392 176.875 239.848 176.549 240.184C176.223 240.52 175.781 240.71 175.319 240.71H166.114C164.708 239.258 164.277 237.215 165.124 235.734H173.253C174.027 235.735 174.784 235.966 175.432 236.401C176.08 236.836 176.592 237.456 176.906 238.185C177.003 238.416 177.055 238.664 177.06 238.916Z" fill="#3FBDF1"/>
<path d="M172.825 240.714C172.777 240.809 172.722 240.899 172.659 240.984C171.452 242.685 168.831 242.85 166.795 241.314C166.555 241.131 166.327 240.93 166.114 240.714C164.708 239.261 164.277 237.218 165.124 235.738C165.172 235.643 165.227 235.552 165.29 235.467C166.497 233.754 169.106 233.601 171.142 235.125C171.387 235.314 171.618 235.522 171.832 235.747C173.226 237.193 173.66 239.224 172.825 240.714Z" fill="white"/>
<path d="M181.316 249.873C181.312 250.349 181.127 250.805 180.799 251.141C180.471 251.476 180.028 251.665 179.566 251.665H161.803C162.66 250.178 162.232 248.15 160.823 246.689H177.509C178.284 246.689 179.042 246.922 179.69 247.358C180.339 247.795 180.85 248.417 181.162 249.149C181.261 249.377 181.313 249.623 181.316 249.873Z" fill="#3FBDF1"/>
<path d="M161.804 251.664H153.446C152.672 251.664 151.914 251.433 151.266 250.998C150.617 250.563 150.106 249.943 149.793 249.213C149.694 248.985 149.642 248.738 149.639 248.488C149.639 248.253 149.683 248.02 149.771 247.802C149.858 247.585 149.986 247.387 150.147 247.221C150.308 247.054 150.5 246.923 150.711 246.833C150.922 246.743 151.148 246.697 151.376 246.697H160.823C162.232 248.149 162.669 250.177 161.804 251.664Z" fill="#D7E8F0"/>
<path d="M161.803 251.664C161.764 251.762 161.712 251.854 161.65 251.938C160.443 253.648 157.831 253.804 155.798 252.277C155.552 252.088 155.32 251.88 155.104 251.655C153.708 250.202 153.279 248.175 154.115 246.679C154.163 246.583 154.219 246.491 154.281 246.405C155.487 244.704 158.108 244.539 160.141 246.078C160.384 246.26 160.611 246.46 160.823 246.679C162.232 248.15 162.669 250.177 161.803 251.664Z" fill="white"/>
<path d="M167.721 262.54H157.086C156.312 262.539 155.556 262.307 154.908 261.873C154.259 261.437 153.747 260.818 153.433 260.09C153.313 259.817 153.262 259.517 153.285 259.218C153.307 258.919 153.402 258.631 153.561 258.38C153.721 258.13 153.938 257.924 154.195 257.783C154.451 257.642 154.738 257.57 155.029 257.574H166.732C165.893 259.063 166.325 261.088 167.721 262.54Z" fill="#3FBDF1"/>
<path d="M184.956 260.761C184.954 261.234 184.77 261.687 184.444 262.021C184.118 262.354 183.678 262.541 183.219 262.54H167.721C166.325 261.088 165.893 259.06 166.732 257.564H181.15C181.924 257.564 182.682 257.797 183.331 258.234C183.98 258.671 184.491 259.293 184.802 260.024C184.902 260.256 184.954 260.507 184.956 260.761Z" fill="#D7E8F0"/>
<path d="M174.432 262.54C174.384 262.636 174.328 262.727 174.266 262.814C173.06 264.525 170.45 264.68 168.414 263.153C168.17 262.963 167.939 262.755 167.724 262.531C166.327 261.079 165.896 259.051 166.734 257.555C166.781 257.459 166.835 257.367 166.897 257.281C168.104 255.58 170.725 255.434 172.761 256.955C173.003 257.136 173.231 257.337 173.443 257.555C174.848 259.026 175.276 261.066 174.432 262.54Z" fill="white"/>
<path d="M94.0824 163.39L94.3478 163.468L94.2482 163.866C94.1852 163.711 94.1297 163.552 94.0824 163.39Z" fill="#353642"/>
<path d="M141.286 188.272C145.256 187.07 147.342 182.118 145.946 177.212C144.549 172.306 140.198 169.303 136.227 170.504C132.257 171.706 130.171 176.658 131.568 181.564C132.964 186.47 137.315 189.473 141.286 188.272Z" fill="#D7E8F0"/>
</g>
<defs>
<linearGradient id="paint0_linear_47_1422" x1="4.04513" y1="116.76" x2="391.645" y2="198.754" gradientUnits="userSpaceOnUse">
<stop stop-color="#F7FAFF"/>
<stop offset="1" stop-color="#EFF5FF"/>
</linearGradient>
<clipPath id="clip0_47_1422">
<rect width="396" height="311" fill="white"/>
</clipPath>
</defs>
</svg>
