<svg width="32" height="32" viewBox="0 0 32 32" fill="none" xmlns="http://www.w3.org/2000/svg">
<g id="Bell Ic">
<path id="Vector" d="M20 22.6667V24C20 26.2091 18.2091 28 16 28C13.7909 28 12 26.2091 12 24V22.6667M20 22.6667H12M20 22.6667H24.7873C25.2974 22.6667 25.5536 22.6667 25.7601 22.597C26.1546 22.4639 26.4633 22.1542 26.5964 21.7597C26.6663 21.5524 26.6663 21.2953 26.6663 20.7813C26.6663 20.5563 26.666 20.4438 26.6484 20.3366C26.6152 20.1339 26.5365 19.9418 26.4167 19.775C26.3535 19.6868 26.273 19.6064 26.1144 19.4478L25.5951 18.9284C25.4275 18.7608 25.3333 18.5335 25.3333 18.2965V13.3333C25.3333 8.17867 21.1547 3.99999 16 4C10.8454 4.00001 6.66667 8.17869 6.66667 13.3333V18.2966C6.66667 18.5336 6.57233 18.7608 6.40476 18.9284L5.88542 19.4477C5.72634 19.6068 5.64672 19.6867 5.58333 19.775C5.46354 19.9418 5.3842 20.1339 5.35093 20.3366C5.33333 20.4438 5.33333 20.5563 5.33333 20.7813C5.33333 21.2953 5.33333 21.5523 5.40327 21.7597C5.53633 22.1541 5.8464 22.4639 6.24089 22.597C6.44741 22.6667 6.70269 22.6667 7.21274 22.6667H12" stroke="#9A9A9A" stroke-width="2.5" stroke-linecap="round" stroke-linejoin="round"/>
</g>
</svg>
