<svg width="32" height="32" viewBox="0 0 32 32" fill="none" xmlns="http://www.w3.org/2000/svg">
<g id="Bell Notification Ic">
<path id="Vector" d="M20 22.6667V24C20 26.2091 18.2091 28 16 28C13.7909 28 12 26.2091 12 24V22.6668M20 22.6667L12 22.6668M20 22.6667H25.3333C26.0697 22.6667 26.6667 22.0697 26.6667 21.3333V20.5521C26.6667 20.1985 26.5261 19.8595 26.2761 19.6094L25.5951 18.9284C25.4275 18.7608 25.3333 18.5333 25.3333 18.2962V13.3333C25.3333 13.0981 25.3249 12.8647 25.3073 12.6348M12 22.6668L6.66668 22.6668C5.9303 22.6668 5.33334 22.0695 5.33334 21.3331V20.5521C5.33334 20.1985 5.47393 19.8599 5.72397 19.6097L6.40496 18.9278C6.57253 18.7602 6.66668 18.5336 6.66668 18.2966V13.3333C6.66668 8.17868 10.8453 4 16 4C16.9488 4 17.8646 4.14158 18.7273 4.40476M25.3073 12.6348C26.9158 11.7164 28 9.98481 28 8C28 5.05448 25.6122 2.66666 22.6667 2.66666C21.1064 2.66666 19.7025 3.33671 18.7273 4.40476M25.3073 12.6348C24.5288 13.0793 23.6274 13.3333 22.6667 13.3333C19.7212 13.3333 17.3333 10.9455 17.3333 8C17.3333 6.6148 17.8614 5.35294 18.7273 4.40476M25.3073 12.6348C25.3073 12.6348 25.3073 12.6348 25.3073 12.6348ZM18.7273 4.40476C18.7279 4.40495 18.7285 4.40514 18.7291 4.40533" stroke="#9A9A9A" stroke-width="2.5" stroke-linecap="round" stroke-linejoin="round"/>
</g>
</svg>
