<svg width="32" height="32" viewBox="0 0 32 32" fill="none" xmlns="http://www.w3.org/2000/svg">
<g id="Building_02">
<path id="Vector" d="M2.66667 26.6667H5.33334M5.33334 26.6667H16M5.33334 26.6667V9.60026C5.33334 8.10678 5.33334 7.35949 5.62399 6.78906C5.87965 6.28729 6.2873 5.87964 6.78907 5.62398C7.3595 5.33333 8.10679 5.33333 9.60027 5.33333H11.7336C13.2271 5.33333 13.9734 5.33333 14.5438 5.62398C15.0456 5.87964 15.454 6.28729 15.7096 6.78906C16 7.35893 16 8.10532 16 9.59588V13.6614M16 26.6667H26.6667M16 26.6667V13.6614M26.6667 26.6667H29.3333M26.6667 26.6667V19.1575C26.6667 18.4573 26.6667 18.1066 26.5827 17.7799C26.5082 17.4904 26.3852 17.2158 26.2196 16.9669C26.0327 16.6861 25.7727 16.4517 25.2516 15.9836L22.1849 13.2285C21.1769 12.3229 20.6727 11.8703 20.1029 11.6986C19.6009 11.5473 19.0654 11.5473 18.5635 11.6986C17.9937 11.8703 17.4897 12.3231 16.4819 13.2285L16 13.6614" stroke="#9A9A9A" stroke-width="2.5" stroke-linecap="round" stroke-linejoin="round"/>
</g>
</svg>
