<svg width="32" height="32" viewBox="0 0 32 32" fill="none" xmlns="http://www.w3.org/2000/svg">
<path d="M20 28H4V5.33333C4 4.97971 4.14048 4.64057 4.39052 4.39052C4.64057 4.14048 4.97971 4 5.33333 4H18.6667C19.0203 4 19.3594 4.14048 19.6095 4.39052C19.8595 4.64057 20 4.97971 20 5.33333V28ZM20 28H28V11.6267C28.0152 11.3359 27.9348 11.0482 27.771 10.8074C27.6073 10.5667 27.3693 10.3861 27.0933 10.2933L20 8V28ZM9.33333 9.33333H14.6667M9.33333 14.6667H14.6667M14.6667 28V20H9.33333V28H14.6667Z" stroke="#9A9A9A" stroke-width="2.5" stroke-linecap="round" stroke-linejoin="round"/>
</svg>
