<svg width="32" height="32" viewBox="0 0 32 32" fill="none" xmlns="http://www.w3.org/2000/svg">
<g id="Calendar Ic">
<path id="Vector" d="M10.6667 5.33333H9.60027C8.1068 5.33333 7.3595 5.33333 6.78907 5.62398C6.28731 5.87965 5.87966 6.2873 5.62399 6.78906C5.33334 7.3595 5.33334 8.10679 5.33334 9.60026V10.6667M10.6667 5.33333H21.3333M10.6667 5.33333V2.66667M21.3333 5.33333H22.4003C23.8937 5.33333 24.6394 5.33333 25.2099 5.62398C25.7116 5.87965 26.1207 6.2873 26.3763 6.78906C26.6667 7.35894 26.6667 8.10533 26.6667 9.59588V10.6667M21.3333 5.33333V2.66667M5.33334 10.6667V22.4003C5.33334 23.8937 5.33334 24.6401 5.62399 25.2105C5.87966 25.7123 6.28731 26.1206 6.78907 26.3763C7.35895 26.6667 8.10534 26.6667 9.59589 26.6667H22.4041C23.8947 26.6667 24.64 26.6667 25.2099 26.3763C25.7116 26.1206 26.1207 25.7123 26.3763 25.2105C26.6667 24.6406 26.6667 23.8953 26.6667 22.4048V10.6667M5.33334 10.6667H26.6667M21.3333 21.3333H21.336L21.3359 21.336L21.3333 21.3359V21.3333ZM16 21.3333H16.0027L16.0026 21.336L16 21.3359V21.3333ZM10.6667 21.3333H10.6693L10.6693 21.336L10.6667 21.3359V21.3333ZM21.3359 16V16.0027L21.3333 16.0026V16H21.3359ZM16 16H16.0027L16.0026 16.0027L16 16.0026V16ZM10.6667 16H10.6693L10.6693 16.0027L10.6667 16.0026V16Z" stroke="#9A9A9A" stroke-width="2.5" stroke-linecap="round" stroke-linejoin="round"/>
</g>
</svg>
