<svg width="32" height="32" viewBox="0 0 32 32" fill="none" xmlns="http://www.w3.org/2000/svg">
<path d="M12 8.00013C12.1723 8 12.35 8 12.5333 8H19.4667C19.65 8 19.8277 8 20 8.00013M12 8.00013C9.3644 8.00219 7.9829 8.03568 6.91205 8.5813C5.90852 9.09262 5.09262 9.90852 4.5813 10.9121C4 12.0529 4 13.5464 4 16.5333V18.1333C4 21.1203 4 22.6138 4.5813 23.7546C5.09262 24.7581 5.90852 25.574 6.91205 26.0854C8.05291 26.6667 9.54639 26.6667 12.5333 26.6667H19.4667C22.4536 26.6667 23.9471 26.6667 25.0879 26.0854C26.0915 25.574 26.9074 24.7581 27.4187 23.7546C28 22.6138 28 21.1203 28 18.1333V16.5333C28 13.5464 28 12.0529 27.4187 10.9121C26.9074 9.90852 26.0915 9.09262 25.0879 8.5813C24.0171 8.03568 22.6356 8.00219 20 8.00013M12 8.00013V6.66667C12 5.19391 13.1939 4 14.6667 4H17.3333C18.8061 4 20 5.19391 20 6.66667V8.00013M20 17.3333C20 19.5425 18.2091 21.3333 16 21.3333C13.7909 21.3333 12 19.5425 12 17.3333C12 15.1242 13.7909 13.3333 16 13.3333C18.2091 13.3333 20 15.1242 20 17.3333Z" stroke="#9A9A9A" stroke-width="2.5" stroke-linecap="round"/>
</svg>
