<svg width="32" height="32" viewBox="0 0 32 32" fill="none" xmlns="http://www.w3.org/2000/svg">
<path d="M14 10.6667H18M9.01333 29.3333H22.9867C26.6667 29.3333 28.1333 27.08 28.3067 24.3333L29 13.32C29.0432 12.6371 28.9459 11.9526 28.7141 11.3088C28.4823 10.665 28.1209 10.0756 27.6523 9.577C27.1837 9.0784 26.6178 8.6812 25.9896 8.40995C25.3614 8.13871 24.6843 7.99919 24 8.00001C23.1867 8.00001 22.44 7.53334 22.0667 6.81334L21.1067 4.88001C20.4933 3.66667 18.8933 2.66667 17.5333 2.66667H14.48C13.1067 2.66667 11.5067 3.66667 10.8933 4.88001L9.93333 6.81334C9.56 7.53334 8.81333 8.00001 8 8.00001C5.10666 8.00001 2.81333 10.44 3 13.32L3.69333 24.3333C3.85333 27.08 5.33333 29.3333 9.01333 29.3333Z" stroke="#9A9A9A" stroke-width="2.5" stroke-linecap="round" stroke-linejoin="round"/>
<path d="M16 24C18.3867 24 20.3333 22.0533 20.3333 19.6667C20.3333 17.28 18.3867 15.3333 16 15.3333C13.6133 15.3333 11.6667 17.28 11.6667 19.6667C11.6667 22.0533 13.6133 24 16 24Z" stroke="#9A9A9A" stroke-width="2.5" stroke-linecap="round" stroke-linejoin="round"/>
</svg>
