<svg width="32" height="32" viewBox="0 0 32 32" fill="none" xmlns="http://www.w3.org/2000/svg">
<g id="Chat_Circle_Dots Ic">
<path id="Vector" d="M10.013 26.4036C11.775 27.4198 13.8194 28.0012 15.9995 28.0012C22.6269 28.0012 28 22.6287 28 16.0013C28 9.37383 22.6274 4.00125 16 4.00125C9.37258 4.00125 4 9.37383 4 16.0013C4 18.1814 4.58139 20.2258 5.59759 21.9878L5.60153 21.9946C5.6993 22.1641 5.74861 22.2496 5.77094 22.3304C5.79201 22.4066 5.79789 22.4751 5.7925 22.554C5.7867 22.6387 5.75814 22.7266 5.69958 22.9023L4.67448 25.9776L4.67319 25.9816C4.4569 26.6305 4.34876 26.9549 4.42585 27.1711C4.49306 27.3596 4.64225 27.5083 4.83073 27.5755C5.04642 27.6524 5.36939 27.5448 6.0154 27.3295L6.02344 27.3265L9.09873 26.3014C9.27383 26.243 9.36285 26.2134 9.44746 26.2076C9.52633 26.2022 9.59437 26.2094 9.67057 26.2304C9.75158 26.2528 9.83711 26.3021 10.0075 26.4004L10.013 26.4036Z" stroke="#9A9A9A" stroke-width="2.5" stroke-linecap="round" stroke-linejoin="round"/>
</g>
</svg>
