<svg width="32" height="32" viewBox="0 0 32 32" fill="none" xmlns="http://www.w3.org/2000/svg">
<g clip-path="url(#clip0_280_3698)">
<path d="M11.5508 18.4345L19.0258 10.9594C19.5629 10.4371 20.2839 10.1473 21.033 10.1525C21.7821 10.1577 22.499 10.4576 23.0287 10.9873C23.5584 11.517 23.8583 12.2339 23.8635 12.983C23.8687 13.7321 23.5789 14.4531 23.0566 14.9902L10.9637 27.0856C9.8945 28.1548 8.44434 28.7556 6.93222 28.7556C5.4201 28.7557 3.96989 28.1551 2.90062 27.0859C1.83135 26.0167 1.2306 24.5665 1.23055 23.0544C1.23049 21.5423 1.83112 20.0921 2.90031 19.0228L16.1705 5.75263C19.5102 2.41294 24.9249 2.41294 28.2646 5.75263C31.6043 9.09233 31.6043 14.5071 28.2646 17.8462L19.6142 26.4972" stroke="#9A9A9A" stroke-width="2.5" stroke-miterlimit="10" stroke-linecap="round" stroke-linejoin="round"/>
</g>
<defs>
<clipPath id="clip0_280_3698">
<rect width="32" height="32" fill="white" transform="translate(0 0.00125122)"/>
</clipPath>
</defs>
</svg>
