<svg width="32" height="32" viewBox="0 0 32 32" fill="none" xmlns="http://www.w3.org/2000/svg">
<path d="M15.4997 15.4999H16.4997M15.4997 16.4999H16.4997M6.16634 15.4999H7.16634M6.16634 16.4999H7.16634M24.833 15.4999H25.833M24.833 16.4999H25.833M17.3333 16C17.3333 16.7364 16.7364 17.3333 16 17.3333C15.2636 17.3333 14.6667 16.7364 14.6667 16C14.6667 15.2636 15.2636 14.6667 16 14.6667C16.7364 14.6667 17.3333 15.2636 17.3333 16ZM8 16C8 16.7364 7.40305 17.3333 6.66667 17.3333C5.93029 17.3333 5.33333 16.7364 5.33333 16C5.33333 15.2636 5.93029 14.6667 6.66667 14.6667C7.40305 14.6667 8 15.2636 8 16ZM26.6667 16C26.6667 16.7364 26.0697 17.3333 25.3333 17.3333C24.597 17.3333 24 16.7364 24 16C24 15.2636 24.597 14.6667 25.3333 14.6667C26.0697 14.6667 26.6667 15.2636 26.6667 16Z" stroke="#9A9A9A" stroke-width="2" stroke-linecap="round"/>
</svg>
