<svg width="32" height="32" viewBox="0 0 32 32" fill="none" xmlns="http://www.w3.org/2000/svg">
<path d="M16 24V16M16 16L12 18.6667M16 16L20 18.6667M17.3333 4.00116C17.206 4 17.063 4 16.8996 4H10.9336C9.44011 4 8.69282 4 8.12239 4.29065C7.62062 4.54631 7.21297 4.95396 6.95731 5.45573C6.66666 6.02616 6.66666 6.77345 6.66666 8.26693V23.7336C6.66666 25.2271 6.66666 25.9734 6.95731 26.5438C7.21297 27.0456 7.62062 27.454 8.12239 27.7096C8.69226 28 9.43866 28 10.9292 28L21.0708 28C22.5613 28 23.3066 28 23.8765 27.7096C24.3783 27.454 24.7873 27.0456 25.043 26.5438C25.3333 25.974 25.3333 25.2287 25.3333 23.7381V12.4342C25.3333 12.2706 25.3333 12.1275 25.3321 12M17.3333 4.00116C17.7142 4.00463 17.9551 4.01846 18.1851 4.07368C18.4572 4.139 18.7171 4.24702 18.9557 4.39323C19.2247 4.55809 19.4557 4.78909 19.9167 5.25L24.084 9.41731C24.5452 9.87852 24.7745 10.1085 24.9394 10.3776C25.0856 10.6162 25.1938 10.8763 25.2591 11.1484C25.3143 11.3783 25.3285 11.6193 25.3321 12M17.3333 4.00116V7.73333C17.3333 9.22681 17.3333 9.97302 17.624 10.5435C17.8796 11.0452 18.2873 11.454 18.7891 11.7096C19.3589 12 20.1053 12 21.5959 12H25.3321M25.3321 12H25.3336" stroke="#9A9A9A" stroke-width="2.5" stroke-linecap="round" stroke-linejoin="round"/>
</svg>
