<svg width="32" height="32" viewBox="0 0 32 32" fill="none" xmlns="http://www.w3.org/2000/svg">
<path d="M12 29.3333H20C26.6667 29.3333 29.3333 26.6667 29.3333 20V12C29.3333 5.33334 26.6667 2.66667 20 2.66667H12C5.33332 2.66667 2.66666 5.33334 2.66666 12V20C2.66666 26.6667 5.33332 29.3333 12 29.3333Z" stroke="#9A9A9A" stroke-width="2.5" stroke-linecap="round" stroke-linejoin="round"/>
<path d="M3.56 25.2667L10.1333 20.8533C11.1867 20.1467 12.7067 20.2267 13.6533 21.04L14.0933 21.4267C15.1333 22.32 16.8133 22.32 17.8533 21.4267L23.4 16.6667C24.44 15.7733 26.12 15.7733 27.16 16.6667L29.3333 18.5333M12 13.3333C12.7072 13.3333 13.3855 13.0524 13.8856 12.5523C14.3857 12.0522 14.6667 11.3739 14.6667 10.6667C14.6667 9.95942 14.3857 9.28115 13.8856 8.78105C13.3855 8.28095 12.7072 8 12 8C11.2928 8 10.6145 8.28095 10.1144 8.78105C9.61428 9.28115 9.33333 9.95942 9.33333 10.6667C9.33333 11.3739 9.61428 12.0522 10.1144 12.5523C10.6145 13.0524 11.2928 13.3333 12 13.3333Z" stroke="#9A9A9A" stroke-width="2.5" stroke-linecap="round" stroke-linejoin="round"/>
</svg>
