<svg width="32" height="32" viewBox="0 0 32 32" fill="none" xmlns="http://www.w3.org/2000/svg">
<path d="M28.6667 3.33333L21.3333 10.6667M28.6667 3.33333H20M28.6667 3.33333V12M13.6667 28.6667C15.0237 28.6667 16.3674 28.3994 17.6211 27.8801C18.8748 27.3608 20.0139 26.5996 20.9734 25.6401C21.933 24.6806 22.6941 23.5414 23.2134 22.2877C23.7327 21.034 24 19.6903 24 18.3333C24 16.9763 23.7327 15.6326 23.2134 14.3789C22.6941 13.1252 21.933 11.9861 20.9734 11.0266C20.0139 10.067 18.8748 9.30587 17.6211 8.78657C16.3674 8.26727 15.0237 8 13.6667 8C10.9261 8 8.29777 9.08868 6.35989 11.0266C4.42202 12.9644 3.33333 15.5928 3.33333 18.3333C3.33333 21.0739 4.42202 23.7022 6.35989 25.6401C8.29777 27.578 10.9261 28.6667 13.6667 28.6667Z" stroke="#9A9A9A" stroke-width="2.5" stroke-linecap="round" stroke-linejoin="round"/>
</svg>
