<svg width="32" height="32" viewBox="0 0 32 32" fill="none" xmlns="http://www.w3.org/2000/svg">
<path d="M16 29.3333C23.364 29.3333 29.3333 23.364 29.3333 16C29.3333 8.636 23.364 2.66666 16 2.66666C8.63601 2.66666 2.66667 8.636 2.66667 16C2.66667 23.364 8.63601 29.3333 16 29.3333Z" stroke="#9A9A9A" stroke-width="2.5" stroke-linecap="round" stroke-linejoin="round"/>
<path d="M10.6667 4H12C9.40004 11.7888 9.40004 20.2112 12 28H10.6667M20 4C22.6 11.7888 22.6 20.2112 20 28" stroke="#9A9A9A" stroke-width="2.5" stroke-linecap="round" stroke-linejoin="round"/>
<path d="M4 21.3333V20C11.7888 22.6 20.2112 22.6 28 20V21.3333M4 12C11.7888 9.40004 20.2112 9.40004 28 12" stroke="#9A9A9A" stroke-width="2.5" stroke-linecap="round" stroke-linejoin="round"/>
</svg>
