<svg width="32" height="32" viewBox="0 0 32 32" fill="none" xmlns="http://www.w3.org/2000/svg">
<path fill-rule="evenodd" clip-rule="evenodd" d="M13.071 20.3368C13.9037 20.9012 14.9184 21.2425 15.9982 21.2425C18.8604 21.2425 21.1892 18.8928 21.1892 16.0049C21.1892 14.9154 20.8509 13.8915 20.2915 13.0514L18.8734 14.4822C19.1076 14.9285 19.2377 15.4536 19.2377 16.0049C19.2377 17.8033 17.7806 19.2735 15.9982 19.2735C15.4518 19.2735 14.9314 19.1422 14.4891 18.9059L13.071 20.3368ZM24.5717 8.73269C26.4582 10.4654 28.0584 12.802 29.2553 15.6111C29.3594 15.8605 29.3594 16.1493 29.2553 16.3856C26.4712 22.9227 21.5144 26.8345 15.9982 26.8345H15.9852C13.4743 26.8345 11.0675 26.0075 8.94691 24.498L6.423 27.0445C6.22786 27.2414 5.98067 27.3333 5.73348 27.3333C5.4863 27.3333 5.2261 27.2414 5.04396 27.0445C4.71871 26.7164 4.66668 26.1913 4.92687 25.8106L4.9659 25.7581L24.2075 6.34362C24.2335 6.31736 24.2595 6.29111 24.2725 6.26486L24.2725 6.26484C24.2985 6.2386 24.3245 6.21235 24.3376 6.1861L25.5605 4.95218C25.9508 4.5715 26.5622 4.5715 26.9395 4.95218C27.3298 5.33286 27.3298 5.96294 26.9395 6.34362L24.5717 8.73269ZM10.7978 16.01C10.7978 16.3513 10.8369 16.6926 10.8889 17.0077L6.07525 21.8646C4.77427 20.3419 3.64241 18.5041 2.74473 16.3907C2.64065 16.1544 2.64065 15.8657 2.74473 15.6162C5.52884 9.07911 10.4856 5.18045 15.9888 5.18045H16.0018C17.8622 5.18045 19.6705 5.62676 21.3358 6.46688L16.9905 10.8512C16.6783 10.7987 16.34 10.7593 16.0018 10.7593C13.1266 10.7593 10.7978 13.109 10.7978 16.01Z" fill="#9A9A9A"/>
</svg>
