<svg width="32" height="32" viewBox="0 0 32 32" fill="none" xmlns="http://www.w3.org/2000/svg">
<g id="House Ic">
<path id="Vector" d="M26.6667 22.6669V15.2696C26.6667 14.5572 26.6661 14.2008 26.5794 13.8692C26.5027 13.5754 26.3766 13.2974 26.2061 13.0462C26.0136 12.7627 25.7461 12.5276 25.2099 12.0584L18.8099 6.45843C17.8144 5.58739 17.3167 5.15208 16.7565 4.98643C16.2629 4.84046 15.7368 4.84046 15.2432 4.98643C14.6835 5.15196 14.1865 5.58685 13.1925 6.45658L6.79037 12.0584C6.2542 12.5276 5.98673 12.7627 5.79428 13.0462C5.62373 13.2974 5.49674 13.5754 5.41997 13.8692C5.33334 14.2008 5.33334 14.5572 5.33334 15.2696V22.6669C5.33334 23.9094 5.33334 24.5304 5.53633 25.0205C5.80698 25.6739 6.32577 26.1936 6.97918 26.4643C7.46923 26.6673 8.09049 26.6673 9.333 26.6673C10.5755 26.6673 11.1975 26.6673 11.6875 26.4643C12.3409 26.1936 12.8596 25.674 13.1302 25.0206C13.3332 24.5305 13.3333 23.9093 13.3333 22.6668V21.3334C13.3333 19.8607 14.5273 18.6668 16 18.6668C17.4728 18.6668 18.6667 19.8607 18.6667 21.3334V22.6668C18.6667 23.9093 18.6667 24.5305 18.8697 25.0206C19.1403 25.674 19.6591 26.1936 20.3125 26.4643C20.8026 26.6673 21.4238 26.6673 22.6663 26.6673C23.9088 26.6673 24.5308 26.6673 25.0208 26.4643C25.6743 26.1936 26.1929 25.6739 26.4636 25.0205C26.6665 24.5304 26.6667 23.9094 26.6667 22.6669Z" stroke="#9A9A9A" stroke-width="2.5" stroke-linecap="round" stroke-linejoin="round"/>
</g>
</svg>
