<svg width="32" height="32" viewBox="0 0 32 32" fill="none" xmlns="http://www.w3.org/2000/svg">
<path d="M11.3333 25.4209H10.6667C5.33332 25.4209 2.66666 24.0876 2.66666 17.4209V10.7542C2.66666 5.4209 5.33332 2.75423 10.6667 2.75423H21.3333C26.6667 2.75423 29.3333 5.4209 29.3333 10.7542V17.4209C29.3333 22.7542 26.6667 25.4209 21.3333 25.4209H20.6667C20.2533 25.4209 19.8533 25.6209 19.6 25.9542L17.6 28.6209C16.72 29.7942 15.28 29.7942 14.4 28.6209L12.4 25.9542C12.1867 25.6609 11.6933 25.4209 11.3333 25.4209Z" stroke="#9A9A9A" stroke-width="2.5" stroke-miterlimit="10" stroke-linecap="round" stroke-linejoin="round"/>
<path d="M9.33334 10.6667H22.6667M9.33334 17.3333H17.3333" stroke="#9A9A9A" stroke-width="2.5" stroke-linecap="round" stroke-linejoin="round"/>
</svg>
