<svg width="32" height="32" viewBox="0 0 32 32" fill="none" xmlns="http://www.w3.org/2000/svg">
<path d="M25.4933 12.16C24.9733 12.16 24.56 12.5733 24.56 13.0933V15.2C24.56 19.92 20.72 23.76 16 23.76C11.28 23.76 7.44 19.92 7.44 15.2V13.08C7.44 12.56 7.02667 12.1467 6.50667 12.1467C5.98667 12.1467 5.57333 12.56 5.57333 13.08V15.1867C5.57333 20.6133 9.74667 25.08 15.0667 25.56V28.4C15.0667 28.92 15.48 29.3333 16 29.3333C16.52 29.3333 16.9333 28.92 16.9333 28.4V25.56C22.24 25.0933 26.4267 20.6133 26.4267 15.1867V13.08C26.4208 12.8355 26.3202 12.6029 26.146 12.4313C25.9719 12.2596 25.7378 12.1624 25.4933 12.16Z" fill="#9A9A9A"/>
<path d="M15.9973 2.66667C12.744 2.66667 10.104 5.30667 10.104 8.56001V15.3867C10.104 18.64 12.744 21.28 15.9973 21.28C19.2507 21.28 21.8907 18.64 21.8907 15.3867V8.56001C21.8907 5.30667 19.2507 2.66667 15.9973 2.66667ZM17.744 11.9333C17.6507 12.28 17.344 12.5067 16.9973 12.5067C16.9307 12.5067 16.864 12.4933 16.7973 12.48C16.2773 12.3333 15.7307 12.3333 15.2107 12.48C14.784 12.6 14.3707 12.3467 14.264 11.9333C14.144 11.52 14.3973 11.0933 14.8107 10.9867C15.5973 10.7733 16.424 10.7733 17.2107 10.9867C17.6107 11.0933 17.8507 11.52 17.744 11.9333ZM18.4507 9.34667C18.3956 9.49647 18.2956 9.62558 18.1643 9.71629C18.033 9.807 17.8769 9.85487 17.7173 9.85334C17.624 9.85334 17.544 9.84001 17.4507 9.81334C16.5173 9.46667 15.4773 9.46667 14.544 9.81334C14.3494 9.88233 14.1355 9.87206 13.9484 9.78476C13.7614 9.69746 13.6161 9.54011 13.544 9.34667C13.3973 8.94667 13.6107 8.49334 14.0107 8.36001C15.294 7.89334 16.7007 7.89334 17.984 8.36001C18.384 8.50667 18.5973 8.94667 18.4507 9.34667Z" fill="#9A9A9A"/>
</svg>
