<svg width="32" height="32" viewBox="0 0 32 32" fill="none" xmlns="http://www.w3.org/2000/svg">
<path d="M2.66666 29.3333H29.3333M26.64 29.3467V24M3.99999 18.6667H20M12 29.3333V24.3333M20.0133 29.32L4.01332 29.3467L3.99999 9.42667C3.99999 8.53333 4.45332 7.70667 5.18666 7.21333L10.52 3.65333C11.4133 3.05333 12.5867 3.05333 13.48 3.65333L18.8133 7.21333C19.56 7.70667 20 8.53333 20 9.42667L20.0133 29.32ZM26.6667 16C25.2 16 24 17.2 24 18.6667V21.3333C24 22.8 25.2 24 26.6667 24C28.1333 24 29.3333 22.8 29.3333 21.3333V18.6667C29.3333 17.2 28.1333 16 26.6667 16Z" stroke="#9A9A9A" stroke-width="2.5" stroke-miterlimit="10" stroke-linecap="round" stroke-linejoin="round"/>
<path d="M12 14C12.5304 14 13.0391 13.7893 13.4142 13.4142C13.7893 13.0391 14 12.5304 14 12C14 11.4696 13.7893 10.9609 13.4142 10.5858C13.0391 10.2107 12.5304 10 12 10C11.4696 10 10.9609 10.2107 10.5858 10.5858C10.2107 10.9609 10 11.4696 10 12C10 12.5304 10.2107 13.0391 10.5858 13.4142C10.9609 13.7893 11.4696 14 12 14Z" stroke="#9A9A9A" stroke-width="2.5" stroke-miterlimit="10" stroke-linecap="round" stroke-linejoin="round"/>
</svg>
