<svg width="32" height="32" viewBox="0 0 32 32" fill="none" xmlns="http://www.w3.org/2000/svg">
<path d="M11.5733 14.2133L20.4 9.8M8 12C8.79113 12 9.56448 12.2346 10.2223 12.6741C10.8801 13.1136 11.3928 13.7384 11.6955 14.4693C11.9983 15.2002 12.0775 16.0044 11.9231 16.7804C11.7688 17.5563 11.3878 18.269 10.8284 18.8284C10.269 19.3878 9.55628 19.7688 8.78036 19.9231C8.00444 20.0775 7.20017 19.9983 6.46927 19.6955C5.73836 19.3928 5.11365 18.8801 4.67412 18.2223C4.2346 17.5645 4 16.7911 4 16C4 14.9391 4.42143 13.9217 5.17157 13.1716C5.92172 12.4214 6.93913 12 8 12V12ZM20 24C20 24.7911 20.2346 25.5645 20.6741 26.2223C21.1136 26.8801 21.7384 27.3928 22.4693 27.6955C23.2002 27.9983 24.0044 28.0775 24.7804 27.9231C25.5563 27.7688 26.269 27.3878 26.8284 26.8284C27.3878 26.269 27.7688 25.5563 27.9231 24.7804C28.0775 24.0044 27.9983 23.2002 27.6955 22.4693C27.3928 21.7384 26.8801 21.1136 26.2223 20.6741C25.5645 20.2346 24.7911 20 24 20C22.9391 20 21.9217 20.4214 21.1716 21.1716C20.4214 21.9217 20 22.9391 20 24ZM11.5733 17.7867L20.4 22.2L11.5733 17.7867ZM24 12C24.7911 12 25.5645 11.7654 26.2223 11.3259C26.8801 10.8864 27.3928 10.2616 27.6955 9.53074C27.9983 8.79983 28.0775 7.99556 27.9231 7.21964C27.7688 6.44372 27.3878 5.73098 26.8284 5.17157C26.269 4.61216 25.5563 4.2312 24.7804 4.07686C24.0044 3.92252 23.2002 4.00173 22.4693 4.30448C21.7384 4.60723 21.1136 5.11992 20.6741 5.77772C20.2346 6.43552 20 7.20888 20 8C20 9.06087 20.4214 10.0783 21.1716 10.8284C21.9217 11.5786 22.9391 12 24 12Z" stroke="#9A9A9A" stroke-width="2.5" stroke-linecap="round" stroke-linejoin="round"/>
</svg>
