<svg width="32" height="32" viewBox="0 0 32 32" fill="none" xmlns="http://www.w3.org/2000/svg">
<g id="Terminal Ic">
<path id="Vector" d="M22.6667 20H16M9.33333 13.3333L13.3333 16.6667L9.33333 20M4 21.0669V10.9336C4 9.44012 4 8.69282 4.29065 8.12239C4.54631 7.62063 4.95396 7.21298 5.45573 6.95731C6.02616 6.66666 6.77345 6.66666 8.26693 6.66666H23.7336C25.2271 6.66666 25.9728 6.66666 26.5432 6.95731C27.045 7.21298 27.454 7.62063 27.7096 8.12239C28 8.69227 28 9.43866 28 10.9292V21.0708C28 22.5613 28 23.3066 27.7096 23.8765C27.454 24.3783 27.045 24.7873 26.5432 25.043C25.9733 25.3333 25.228 25.3333 23.7375 25.3333H8.26255C6.77199 25.3333 6.0256 25.3333 5.45573 25.043C4.95396 24.7873 4.54631 24.3783 4.29065 23.8765C4 23.3061 4 22.5604 4 21.0669Z" stroke="#9A9A9A" stroke-width="2.5" stroke-linecap="round" stroke-linejoin="round"/>
</g>
</svg>
