<svg width="32" height="32" viewBox="0 0 32 32" fill="none" xmlns="http://www.w3.org/2000/svg">
<g clip-path="url(#clip0_6_22)">
<path d="M22.6667 13.3333H9.33333V10.6667C9.33333 8.89856 10.0357 7.20287 11.2859 5.95263C12.5362 4.70238 14.2319 4 16 4V4C17.1689 3.99868 18.3176 4.30472 19.3309 4.88744C20.3442 5.47015 21.1865 6.30905 21.7733 7.32" stroke="#9A9A9A" stroke-width="2.5" stroke-linecap="round" stroke-linejoin="round"/>
<path d="M16 22.6667V21.3333M25.3333 14.6667V18.28C25.3716 20.7557 24.4505 23.1502 22.7629 24.9621C21.0753 26.7739 18.7522 27.8625 16.28 28C15.031 28.0375 13.7871 27.8238 12.6222 27.3715C11.4574 26.9193 10.3951 26.2378 9.49858 25.3673C8.60203 24.4969 7.88939 23.4553 7.40294 22.3043C6.91648 21.1532 6.66611 19.9163 6.66667 18.6667V14.6667C6.66667 14.313 6.80715 13.9739 7.0572 13.7239C7.30725 13.4738 7.64638 13.3333 8.00001 13.3333H24C24.3536 13.3333 24.6928 13.4738 24.9428 13.7239C25.1929 13.9739 25.3333 14.313 25.3333 14.6667Z" stroke="#9A9A9A" stroke-width="2.5" stroke-linecap="round" stroke-linejoin="round"/>
<path d="M15.9333 20H16.0667" stroke="#9A9A9A" stroke-width="3" stroke-linecap="round" stroke-linejoin="round"/>
</g>
<defs>
<clipPath id="clip0_6_22">
<rect width="32" height="32" fill="white"/>
</clipPath>
</defs>
</svg>
