<svg width="32" height="32" viewBox="0 0 32 32" fill="none" xmlns="http://www.w3.org/2000/svg">
<path d="M16 2.66667C12.5067 2.66667 9.66668 5.50667 9.66668 9.00001C9.66668 12.4267 12.3467 15.2 15.84 15.32C15.9467 15.3067 16.0533 15.3067 16.1333 15.32H16.2267C17.8658 15.2653 19.4194 14.5753 20.5591 13.3959C21.6987 12.2165 22.3349 10.6401 22.3333 9.00001C22.3333 5.50667 19.4933 2.66667 16 2.66667ZM22.7733 18.8653C19.0533 16.3853 12.9867 16.3853 9.24001 18.8653C7.54668 19.9987 6.61334 21.532 6.61334 23.172C6.61334 24.812 7.54668 26.332 9.22668 27.452C11.0933 28.7053 13.5467 29.332 16 29.332C18.4533 29.332 20.9067 28.7053 22.7733 27.452C24.4533 26.3187 25.3867 24.7987 25.3867 23.1453C25.3733 21.5053 24.4533 19.9853 22.7733 18.8653Z" fill="black"/>
</svg>
