<svg width="32" height="32" viewBox="0 0 32 32" fill="none" xmlns="http://www.w3.org/2000/svg">
<path d="M16.7067 27.2267H8.28C4.06667 27.2267 2.66667 24.4267 2.66667 21.6133V10.3867C2.66667 6.17333 4.06667 4.77333 8.28 4.77333H16.7067C20.92 4.77333 22.32 6.17333 22.32 10.3867V21.6133C22.32 25.8267 20.9067 27.2267 16.7067 27.2267Z" stroke="#9A9A9A" stroke-width="2.5" stroke-linecap="round" stroke-linejoin="round"/>
<path d="M26.0267 22.8L22.32 20.2V11.7867L26.0267 9.18667C27.84 7.92 29.3333 8.69333 29.3333 10.92V21.08C29.3333 23.3067 27.84 24.08 26.0267 22.8ZM15.3333 14.6667C15.8638 14.6667 16.3725 14.456 16.7475 14.0809C17.1226 13.7058 17.3333 13.1971 17.3333 12.6667C17.3333 12.1362 17.1226 11.6275 16.7475 11.2525C16.3725 10.8774 15.8638 10.6667 15.3333 10.6667C14.8029 10.6667 14.2942 10.8774 13.9191 11.2525C13.544 11.6275 13.3333 12.1362 13.3333 12.6667C13.3333 13.1971 13.544 13.7058 13.9191 14.0809C14.2942 14.456 14.8029 14.6667 15.3333 14.6667Z" stroke="#9A9A9A" stroke-width="2.5" stroke-linecap="round" stroke-linejoin="round"/>
</svg>
