<svg width="32" height="32" viewBox="0 0 32 32" fill="none" xmlns="http://www.w3.org/2000/svg">
<path d="M17.3333 20H14.6667V17.3333H17.3333V20ZM21.3333 5.33333C21.3333 4.97971 21.1929 4.64057 20.9428 4.39052C20.6928 4.14048 20.3536 4 20 4H12C11.6464 4 11.3072 4.14048 11.0572 4.39052C10.8071 4.64057 10.6667 4.97971 10.6667 5.33333V9.33333H21.3333V5.33333ZM28 26.6667V10.6667C28 10.313 27.8595 9.97391 27.6095 9.72386C27.3594 9.47381 27.0203 9.33333 26.6667 9.33333H5.33333C4.97971 9.33333 4.64057 9.47381 4.39052 9.72386C4.14048 9.97391 4 10.313 4 10.6667V26.6667C4 27.0203 4.14048 27.3594 4.39052 27.6095C4.64057 27.8595 4.97971 28 5.33333 28H26.6667C27.0203 28 27.3594 27.8595 27.6095 27.6095C27.8595 27.3594 28 27.0203 28 26.6667Z" stroke="#9A9A9A" stroke-width="2.5" stroke-linecap="round" stroke-linejoin="round"/>
<path d="M14.6667 18.6667H11.52C10.4852 18.6577 9.47539 18.3478 8.61362 17.7749C7.75186 17.202 7.07539 16.3907 6.66667 15.44L4.24001 9.90667" stroke="#9A9A9A" stroke-width="2.5" stroke-linecap="round" stroke-linejoin="round"/>
<path d="M27.76 9.90667L25.3333 15.44C24.9246 16.3907 24.2481 17.202 23.3864 17.7749C22.5246 18.3478 21.5148 18.6577 20.48 18.6667H17.3333" stroke="#9A9A9A" stroke-width="2.5" stroke-linecap="round" stroke-linejoin="round"/>
</svg>
